<svg xmlns="http://www.w3.org/2000/svg" width="82" height="53" viewBox="0 0 82 53" fill="none">
<path d="M24.3919 20.3806C24.5251 20.4458 24.6665 20.5844 24.816 20.7937C24.6447 20.9731 24.4109 21.0301 24.1092 20.9595C23.8726 20.9024 23.5681 20.8181 23.1956 20.6931C23.1304 20.6605 22.8205 20.5219 22.2686 20.2746C22.032 20.3833 21.7493 20.6442 21.4421 21.0682C20.8902 21.8183 20.2621 22.9788 19.5498 24.547C19.2372 25.2509 18.5384 26.6669 18.166 27.3111C18.0899 27.4442 17.9567 27.5285 17.8044 27.5448H17.7609C17.2144 27.61 16.6489 27.4932 16.2167 27.1562C16.127 27.0855 16.0644 27.023 16.0318 26.9605C15.9285 26.7811 15.9095 26.3897 15.9693 25.7918C16.0318 25.3787 16.1677 24.5361 16.3879 23.2696C16.6435 21.7531 16.8583 20.5273 17.0296 19.5924C17.1057 19.1358 17.2009 18.7553 17.315 18.4618C17.4619 18.0568 17.7718 17.8856 18.2503 17.9481C18.7315 18.0106 19.0387 18.2144 19.1855 18.565C19.1529 18.8558 19.0904 19.269 19.0061 19.8044C18.9164 20.3452 18.8539 20.7393 18.8212 20.9866C18.8403 20.9866 18.8729 21.0002 18.9218 21.0328C18.9599 21.0084 18.998 20.9703 19.036 20.9133C19.0741 20.8562 19.1067 20.81 19.1448 20.7665C19.1828 20.723 19.21 20.6768 19.2263 20.6333C19.5961 20.1631 19.7918 19.9212 19.8054 19.8968C20.1561 19.4728 20.5286 19.2119 20.9174 19.1168C21.3062 19.0216 21.7629 19.0787 22.2903 19.288L22.9238 19.6168C23.6605 20.0055 24.15 20.2583 24.3919 20.3724V20.3778V20.3806Z" fill="#ffffff"/>
<path d="M41.879 26.1963C41.879 26.1963 41.9497 26.2805 42.0367 26.4517C41.8002 26.5985 41.4957 26.5904 41.1205 26.4273C40.4137 26.1174 39.8889 25.6255 39.5437 24.9461C39.25 24.3672 38.9727 23.5817 38.7226 22.5897C38.7144 22.5081 38.671 22.3179 38.6003 22.0244C38.535 21.9918 38.4779 21.9918 38.429 22.0244C38.38 22.057 38.3528 22.0869 38.3447 22.095C38.3365 22.1086 38.3175 22.1385 38.293 22.1956C38.2686 22.2472 38.2468 22.2771 38.2223 22.2798C37.2137 23.8372 36.7026 24.6281 36.6836 24.6471C36.2839 25.2233 35.8815 25.6636 35.471 25.9734C35.0061 26.3294 34.5112 26.4871 33.992 26.4382C33.4727 26.392 33.0133 26.1582 32.6082 25.7315C32.3934 25.5331 32.3037 25.2477 32.3281 24.8754C32.3716 24.2992 32.4287 23.8644 32.4994 23.5735C33.0323 21.3368 33.8914 19.2821 35.0795 17.4203C35.3133 17.0507 35.8299 16.3794 36.6292 15.4146C36.8331 15.1672 37.075 14.9688 37.3524 14.8166C37.7275 14.5938 38.0837 14.5747 38.4181 14.765C38.7552 14.9552 38.9374 15.2678 38.9645 15.7162L38.9374 16.0533C38.8178 16.1103 38.7144 16.1185 38.6247 16.0859C38.5404 16.0533 38.4534 15.9962 38.3719 15.9146C38.2876 15.8331 38.2142 15.7869 38.1489 15.7733C37.4828 16.6186 36.7706 17.9639 36.0012 19.7985C35.2372 21.6384 34.8756 22.8778 34.9218 23.5246C35.7103 22.4782 36.3274 21.4862 36.776 20.5404C36.8467 20.4127 37.2789 19.3772 38.0782 17.4339C38.4643 17.2926 38.8776 17.2763 39.318 17.3904C39.7611 17.5046 40.082 17.7275 40.2886 18.0509C40.4109 18.2221 40.4789 18.4395 40.4871 18.7004C40.5115 18.9233 40.5197 19.2413 40.5116 19.6598C40.5061 20.0784 40.5115 20.3774 40.5305 20.5567C40.574 22.1195 40.7779 23.5273 41.1477 24.7721C41.319 25.3673 41.5664 25.8375 41.8981 26.1881L41.8899 26.1963H41.879Z" fill="#ffffff"/>
<path d="M56.8149 7.69872C57.1439 7.83733 57.3559 8.01128 57.4565 8.22599C57.1275 8.31567 56.6681 8.37818 56.0727 8.42167C55.4773 8.46516 55.0368 8.51136 54.7514 8.57931C54.4605 8.64453 54.0255 8.74509 53.4409 8.88914C52.8564 9.02775 52.4105 9.13103 52.1006 9.19897C51.9783 9.23159 51.1164 9.47348 49.5205 9.93551C49.4172 10.1883 49.3628 10.3242 49.3683 10.3432C47.7533 16.0724 46.7746 19.5404 46.432 20.7471C45.9508 22.4947 45.6491 24.0167 45.524 25.3077C45.4397 26.3106 45.4805 27.1612 45.6436 27.8597C45.6436 27.8788 45.7061 28.107 45.8285 28.5473C46.046 28.6506 46.3287 28.637 46.674 28.5039C47.5304 28.2294 48.4086 27.7048 49.3057 26.9411C49.8957 26.441 50.2763 26.1203 50.4503 25.9627C50.8065 25.6882 51.1355 25.4979 51.44 25.3919C51.6439 25.5577 51.6819 25.786 51.5596 26.085C51.3502 26.5878 51.1518 26.9547 50.9615 27.1721C49.7979 28.531 48.4195 29.3491 46.8263 29.6236C45.6654 29.8003 44.5779 29.4578 43.5665 28.5827C43.1805 28.2511 42.9249 27.6885 42.7971 26.9112C42.5633 25.6474 42.5932 24.3646 42.8814 23.0573C43.224 21.4048 43.5475 20.0921 43.8411 19.1327C43.9553 18.7386 44.7056 16.3333 46.0976 11.925C46.1166 11.906 46.1928 11.6641 46.3206 11.2075C46.2553 11.1749 46.1874 11.145 46.1248 11.1314C46.0596 11.1178 46.0106 11.1123 45.9835 11.1123C45.9563 11.1123 45.9019 11.1368 45.8312 11.1694C45.7605 11.2075 45.7116 11.2265 45.6925 11.2265C45.388 11.3298 44.9694 11.482 44.442 11.6831C43.9145 11.8788 43.4251 12.0582 42.9792 12.2212C42.5334 12.3816 42.1147 12.5311 41.7232 12.6642C40.8858 12.9578 40.2116 13.0067 39.6896 12.8028C39.434 12.4794 39.3008 12.3082 39.3008 12.2837C39.3388 11.9739 39.5564 11.7239 39.9615 11.5282C41.2882 10.8487 42.1527 10.4302 42.5605 10.2725C42.7835 10.191 44.1428 9.76429 46.6332 8.98427C46.6767 8.98427 46.829 8.93806 47.0954 8.85653C47.2613 8.35372 47.3483 8.09281 47.3428 8.07379C47.5032 7.53293 47.7234 6.81542 47.9926 5.93212C48.2644 5.04338 48.52 4.22259 48.762 3.45616C48.9985 2.69516 49.2323 1.97765 49.4471 1.30906C49.4471 1.29004 49.5504 1.04815 49.7652 0.583395C50.2464 0.56437 50.5727 0.62688 50.7385 0.77908C50.9098 0.925844 50.9914 1.20578 50.9805 1.61618C50.9533 2.00483 50.8989 2.41522 50.8337 2.84736C50.8065 2.99413 50.5428 4.49981 50.0507 7.36443C50.0316 7.40791 49.9881 7.63621 49.9175 8.04933C50.1078 8.09281 50.4938 8.06291 51.0729 7.9542C52.6607 7.61719 53.8923 7.43237 54.7704 7.40248C55.5208 7.35899 56.2005 7.46499 56.8095 7.72047L56.8149 7.70144V7.69872Z" fill="#ffffff"/>
<path d="M54.6593 14.5885C55.4613 14.4227 56.1845 14.6266 56.818 15.2163C57.4542 15.8061 57.7505 16.4666 57.707 17.2031C57.669 17.9777 57.5738 18.6191 57.427 19.1192C56.7663 21.4701 55.426 23.5275 53.4169 25.2805C53.2592 25.4191 53.0933 25.5414 52.9139 25.661C52.6773 25.8024 52.5088 25.8785 52.4299 25.8839H52.0983C51.9215 25.8785 51.8046 25.8703 51.7502 25.8649C51.6986 25.8594 51.598 25.8513 51.4512 25.8458C51.3044 25.8377 51.1956 25.8214 51.1195 25.7996C51.0434 25.7752 50.9537 25.748 50.845 25.7154C50.7362 25.6828 50.6356 25.6339 50.535 25.5741C50.4344 25.5116 50.3392 25.4463 50.2495 25.3702C49.4801 24.6826 49.124 23.8346 49.1892 22.8372C49.2409 21.9403 49.3795 21.1222 49.6134 20.3911C50.1598 18.6571 50.9863 17.0128 52.0955 15.4555C52.2804 15.1946 52.5033 14.9337 52.7507 14.6728C53.0036 14.4064 53.2347 14.2488 53.4495 14.2026C53.6642 14.1564 53.9497 14.2026 54.295 14.3602C54.3195 14.3792 54.4363 14.4608 54.662 14.6021L54.6674 14.5967L54.6593 14.5885ZM55.5538 16.616C55.5538 16.616 55.5673 16.4204 55.5456 16.0969C55.0644 16.3633 54.6756 16.7383 54.382 17.233C54.1454 17.6787 53.8219 17.9396 53.4087 18.0157C53.3244 18.2495 53.1613 18.6517 52.9275 19.2279C52.6937 19.8068 52.5142 20.2498 52.3946 20.5542C52.275 20.8586 52.1417 21.2527 52.0058 21.7337C51.8671 22.2148 51.7639 22.6687 51.6959 23.1008C51.8726 22.9731 51.9813 22.897 52.0276 22.8671C52.052 22.8535 52.0711 22.8345 52.0901 22.8154C53.1694 21.6604 54.0232 20.5026 54.6512 19.342C55.1215 18.4288 55.4205 17.5184 55.5538 16.6106V16.616Z" fill="#ffffff"/>
<path d="M66.4821 16.8345C66.6153 16.9051 66.754 17.0492 66.8953 17.2585C66.7186 17.4351 66.4876 17.4868 66.1885 17.4107C65.952 17.3481 65.6502 17.253 65.2859 17.1198C65.2533 17.1008 65.1472 17.0492 64.9732 16.9676C64.5546 16.7638 64.038 16.8481 63.728 17.2014C63.6628 17.2775 63.5894 17.3617 63.5187 17.4541C62.9532 18.1907 62.2925 19.3349 61.5422 20.8841C61.167 21.6668 60.7972 22.3898 60.4356 23.0502C60.4084 23.1018 60.2589 23.4062 59.9028 23.8139C59.7886 23.9416 59.3237 23.9281 59.3237 23.9281C59.1089 23.9036 58.905 23.8628 58.7337 23.7704C58.3069 23.553 58.0486 23.3627 57.9643 23.2105C57.8638 23.0257 57.8556 22.6344 57.9317 22.0364C57.9969 21.6233 58.1655 20.7862 58.4129 19.5279C58.7065 18.0167 58.9512 16.7964 59.1442 15.8642C59.2285 15.4076 59.3346 15.0325 59.4569 14.739C59.6146 14.3395 59.9273 14.1737 60.4085 14.2444H60.4221C60.9821 14.3341 61.3301 14.9048 61.235 15.4647C61.2024 15.6604 61.1643 15.8778 61.1153 16.1197C61.0147 16.6578 60.9387 17.0519 60.9006 17.2992C60.9196 17.2992 60.9522 17.3128 61.0011 17.3509C61.0392 17.3264 61.0773 17.2884 61.1153 17.2367C61.1534 17.1851 61.1915 17.1334 61.2295 17.09C61.2676 17.0465 61.2948 17.0057 61.3111 16.9622C61.6917 16.5002 61.8902 16.2637 61.9092 16.2393C62.2763 15.8207 62.6514 15.5734 63.0402 15.4891C63.429 15.4049 63.8857 15.4755 64.4077 15.693L65.0358 16.0409C65.7617 16.4485 66.2428 16.7095 66.4848 16.8345H66.4821Z" fill="#ffffff"/>
<path d="M19.351 4.58667C19.0981 3.03749 18.3342 1.93948 17.0509 1.28992C16.325 0.920289 15.5882 0.819729 14.8351 0.985518C14.4464 1.06162 13.9788 1.29535 13.4377 1.67857C12.739 2.16235 12.0213 2.84724 11.2845 3.72511C9.49831 5.84775 7.89693 8.24761 6.48047 10.922C4.52298 14.5666 2.95971 18.3662 1.79338 22.3342C0.92882 25.2423 0.477515 27.6639 0.439453 29.6045C0.439453 30.6345 0.610723 31.6238 0.972314 32.5588C1.15175 33.0398 1.39104 33.404 1.6901 33.6622C2.7504 34.6515 3.93846 35.1543 5.25976 35.1788C6.88557 35.2168 8.35912 34.9695 9.68043 34.4286C11.8146 33.578 13.7069 32.3006 15.3653 30.6046C15.3789 30.5666 15.398 30.5285 15.4279 30.4959C15.6753 30.2024 15.7024 29.811 15.5502 29.4794C15.5448 29.4713 15.5366 29.4604 15.5311 29.4468C15.5176 29.4332 15.504 29.4224 15.4877 29.4088C15.4795 29.4033 15.4632 29.3952 15.4605 29.3898C15.436 29.3762 15.4142 29.3653 15.3898 29.3517C15.3707 29.3435 15.3517 29.3381 15.3327 29.3272C15.4034 29.3599 15.3463 29.3272 15.3245 29.3272C15.2783 29.3191 15.2294 29.3082 15.1831 29.3001H15.1179C15.0717 29.3001 15.0173 29.3055 14.9711 29.3082C14.9466 29.3137 14.9249 29.3164 14.9058 29.3218C14.8596 29.33 14.8161 29.3463 14.7672 29.3599C14.7155 29.3734 14.6666 29.3925 14.615 29.4115C14.5959 29.4196 14.5768 29.4251 14.5524 29.436C14.5524 29.436 14.5279 29.4441 14.5089 29.455C14.4953 29.4604 14.4654 29.474 14.4627 29.4794C14.4382 29.4876 14.4165 29.5039 14.392 29.5121C14.3485 29.5365 14.3077 29.5555 14.2642 29.5773C14.2126 29.6045 14.1609 29.6344 14.112 29.6615C13.8401 29.8953 13.6172 30.0855 13.4568 30.2187C11.6651 31.7624 9.86804 32.855 8.07096 33.4964C6.99162 33.8851 5.89323 34.0726 4.78126 34.0563C4.20217 34.0563 3.79709 33.8144 3.56872 33.3143C3.28869 32.7354 3.10654 32.1348 3.03041 31.5178C2.87817 30.2812 2.9597 28.8136 3.2778 27.1095C3.67201 24.9705 4.33813 22.6142 5.27881 20.0431C6.71974 16.056 8.3863 12.5554 10.284 9.53859C11.4449 7.67958 12.7118 5.99995 14.0902 4.48882C14.7454 3.79034 15.4061 3.23861 16.0667 2.84453C16.0912 2.84453 16.2571 2.78745 16.5752 2.6733C16.9449 3.4805 17.0972 4.45893 17.0373 5.60586C16.8851 8.43242 16.2434 11.2073 15.1125 13.9198C15.0554 14.0339 14.9602 14.3193 14.8406 14.7786L14.8542 14.9743C14.8542 14.9743 14.9384 15.0123 15.039 15.0884C15.1396 15.1645 15.224 15.2216 15.2947 15.2597L15.6562 15.0042C16.3794 14.235 16.9204 13.5175 17.2766 12.8435C18.2934 10.9519 18.9649 9.01948 19.2776 7.03817C19.4298 6.12225 19.4543 5.30418 19.3428 4.58123L19.351 4.58667Z" fill="#ffffff"/>
<path d="M72.5794 21.1664C72.5604 21.1393 72.4788 21.0251 72.4788 21.0088C71.3179 19.3264 69.3522 19.4025 68.1832 18.5763C68.4197 17.8072 69.0151 17.019 69.9694 16.2064C70.35 15.8884 70.6763 15.7226 70.9618 15.7117C70.9618 16.0786 70.9862 16.296 71.0324 16.3667C71.0841 16.4428 71.133 16.5705 71.4511 16.5135C71.6659 16.4482 71.7828 16.1275 71.7991 16.1085C72.0329 15.7199 71.9976 15.3448 71.6849 14.9725C71.1439 14.3555 70.4642 14.1163 69.6377 14.2549C68.5149 14.4343 67.5416 14.9208 66.7096 15.709C66.5438 15.8666 66.3589 16.0949 66.1496 16.3939C65.8695 16.7988 65.7635 17.2201 65.8451 17.6577C65.9158 17.8996 66.0354 18.1523 66.2013 18.4187C66.3671 18.685 66.5248 18.8997 66.6716 19.0601C66.8184 19.2204 66.9462 19.3591 67.0604 19.4786C67.4736 19.8673 67.9956 20.1771 68.3681 20.3728C68.6209 20.506 68.8874 20.6011 69.1674 20.6582C69.5616 20.7424 70.2086 20.8919 70.573 21.0251C70.6681 21.0577 70.7198 21.1664 70.6763 21.2616C70.5811 21.4763 70.4235 21.6855 70.206 21.8894C69.6024 22.4737 68.7269 22.9765 67.5878 23.4005C67.6204 23.2157 67.8216 22.6395 67.8406 22.5634C67.8542 22.5254 67.8923 22.2128 67.7781 22.0932C67.7726 22.0878 67.6693 21.9981 67.6367 21.9791C67.6231 21.9736 67.6095 21.9709 67.5932 21.96C67.5497 21.9465 67.509 21.9329 67.4655 21.9166L67.4084 21.903C66.7586 21.8323 66.4949 22.1584 66.4052 22.2971C66.31 22.4764 66.1876 22.7292 66.0354 23.0662C65.9348 23.3135 65.9593 23.5554 66.1115 23.7919C66.3263 24.0854 66.5302 24.3137 66.726 24.4768C66.9108 24.629 67.3866 24.7431 67.7944 24.8083L67.9412 24.8219C68.2784 24.8355 68.5122 24.8301 68.64 24.8138C69.1674 24.7322 69.7954 24.5338 70.5213 24.2186C71.2907 23.8707 71.8861 23.4929 72.3075 23.0771C72.6555 22.7455 72.8458 22.4221 72.8675 22.1068C72.8947 21.7943 72.8024 21.4735 72.5821 21.1474L72.5767 21.161L72.5794 21.1664Z" fill="#ffffff"/>
<path d="M49.5263 47.8351C49.5072 47.8025 49.4121 47.6748 49.4121 47.6557C48.0663 45.7043 45.7853 45.794 44.4314 44.8346C44.706 43.9404 45.3965 43.03 46.503 42.0896C46.9407 41.72 47.3241 41.5297 47.653 41.5188C47.653 41.9428 47.6775 42.1929 47.7346 42.2798C47.7917 42.3668 47.8488 42.5136 48.2185 42.4511C48.4714 42.3695 48.6046 42.0053 48.6236 41.9863C48.8955 41.5352 48.852 41.0976 48.4904 40.6709C47.8624 39.9534 47.074 39.6789 46.1197 39.8392C44.8229 40.0485 43.6919 40.6084 42.7267 41.527C42.531 41.7118 42.3189 41.9727 42.077 42.3152C41.748 42.7854 41.6338 43.2746 41.7262 43.7774C41.8105 44.0573 41.9437 44.3481 42.1395 44.6607C42.3352 44.9705 42.5147 45.2178 42.686 45.4054C42.8572 45.5956 43.0095 45.7533 43.1372 45.8891C43.6185 46.3403 44.222 46.6963 44.6489 46.9246C44.9425 47.0768 45.2524 47.1856 45.5759 47.2562C46.0381 47.3568 46.7831 47.528 47.2072 47.6829C47.3159 47.7264 47.3784 47.8487 47.3295 47.9574C47.2153 48.2102 47.0359 48.4521 46.783 48.6831C46.0843 49.3626 45.073 49.9469 43.7462 50.4361C43.7843 50.2214 44.0181 49.5528 44.0372 49.4658C44.0508 49.4196 44.0997 49.0582 43.9665 48.925C43.961 48.9168 43.8387 48.8163 43.8006 48.7918C43.787 48.7864 43.768 48.7782 43.7544 48.7728C43.7082 48.7538 43.6538 48.7402 43.6021 48.7266C43.5777 48.7211 43.5559 48.7184 43.5369 48.713C42.7811 48.6315 42.4766 49.0065 42.3733 49.1696C42.2591 49.3789 42.1204 49.6724 41.9464 50.0638C41.8268 50.3491 41.8621 50.6291 42.0307 50.9036C42.2781 51.246 42.5147 51.5069 42.743 51.6918C42.9578 51.8684 43.507 52.0016 43.9827 52.0777L44.154 52.0913C44.5428 52.1049 44.8147 52.0994 44.9615 52.0831C45.5759 51.988 46.3018 51.7597 47.1419 51.3955C48.0364 50.9905 48.7243 50.5557 49.2136 50.0746C49.6187 49.6887 49.8308 49.3136 49.8634 48.9522C49.896 48.5907 49.7873 48.2211 49.5344 47.8406L49.529 47.8351H49.5263Z" fill="#ffffff"/>
<path d="M39.3437 48.7253C39.9663 48.8095 40.3279 49.1112 40.423 49.614C39.7624 50.3641 39.4144 50.7636 39.3681 50.8126C39.3029 50.9077 39.2105 51.0463 39.1017 51.2257C38.9875 51.4051 38.8788 51.5545 38.7646 51.6768C38.6504 51.7964 38.5227 51.9106 38.384 52.0057L37.3481 52.0519C36.7527 51.6143 36.4319 51.386 36.383 51.367C36.0323 51.0354 35.9779 50.6549 36.2226 50.2255C36.4891 49.7743 36.9485 49.3938 37.601 49.084C38.2562 48.7742 38.838 48.6573 39.341 48.7225H39.3464L39.3437 48.7253Z" fill="#ffffff"/>
<path d="M62.4995 38.1961C63.3069 38.0575 64.0193 38.2912 64.6337 38.9027C65.2481 39.517 65.5173 40.1855 65.452 40.9166C65.3868 41.6912 65.2672 42.3218 65.1013 42.8219C64.3509 45.1511 62.9399 47.1541 60.8655 48.831C60.7051 48.9588 60.5338 49.0783 60.3463 49.1925C60.1043 49.3257 59.9384 49.3909 59.8514 49.3963C59.8079 49.3963 59.6992 49.3963 59.5197 49.3827C59.3403 49.3692 59.2261 49.3583 59.1717 49.3556C59.1201 49.3474 59.0195 49.3365 58.8727 49.3229C58.7258 49.3094 58.6171 49.2903 58.541 49.2604C58.4649 49.2333 58.3751 49.2034 58.2691 49.1653C58.1658 49.1273 58.0598 49.0811 57.9646 49.0131C57.8695 48.9479 57.7743 48.8745 57.69 48.7984C56.9451 48.0809 56.6243 47.2248 56.7194 46.2273C56.8037 45.3304 56.975 44.5205 57.2333 43.8003C57.8423 42.0908 58.7313 40.4736 59.8949 38.9598C60.0906 38.707 60.3217 38.4516 60.58 38.1988C60.841 37.9433 61.0803 37.7938 61.2978 37.7531C61.5153 37.7096 61.798 37.7775 62.1379 37.9433C62.1569 37.9623 62.2792 38.0466 62.494 38.1988L62.4995 38.1934V38.1961ZM63.3178 40.2589C63.3178 40.2589 63.3423 40.0632 63.3233 39.7398C62.8339 39.9871 62.4288 40.3486 62.1216 40.8324C61.8688 41.27 61.537 41.52 61.1238 41.5771C61.0286 41.8054 60.8519 42.2049 60.6018 42.7757C60.3462 43.3464 60.1505 43.784 60.0227 44.0829C59.8895 44.3819 59.7481 44.7706 59.5904 45.2462C59.4328 45.7218 59.3158 46.173 59.2288 46.5997C59.4518 46.4475 59.5768 46.3714 59.5959 46.3714C60.7377 45.2462 61.6431 44.1047 62.3228 42.955C62.8257 42.0609 63.1601 41.1585 63.326 40.2616L63.3205 40.2562L63.3178 40.2589Z" fill="#ffffff"/>
<path d="M74.2266 40.5718C74.3598 40.637 74.5011 40.7756 74.6507 40.9849C74.4794 41.1643 74.2456 41.2214 73.9438 41.1507C73.7073 41.0936 73.4028 41.0039 73.0303 40.8789C72.9651 40.8463 72.6552 40.7023 72.1033 40.4549C71.8613 40.5636 71.584 40.8246 71.2713 41.2485C70.7194 41.9987 70.0887 43.1592 69.3709 44.722C69.0148 45.5156 68.6641 46.2412 68.3106 46.9125C68.3106 46.9506 68.1638 47.2115 67.8593 47.6926L67.5793 47.7197C67.0328 47.7768 66.4673 47.6572 66.035 47.3202C65.9453 47.2496 65.8828 47.187 65.8502 47.1245C65.7469 46.9452 65.7278 46.5538 65.7876 45.9559C65.8502 45.5427 65.9915 44.7002 66.2144 43.4337C66.4754 41.9171 66.6903 40.6914 66.8643 39.7564C66.9404 39.2998 67.041 38.9193 67.1552 38.6258C67.302 38.2209 67.6174 38.0496 68.0959 38.1121C68.5743 38.1747 68.8843 38.3785 69.0284 38.7291C68.9957 39.0199 68.9332 39.433 68.8435 39.9684C68.7538 40.5093 68.6913 40.9007 68.6532 41.1507C68.6722 41.1507 68.7048 41.1643 68.7538 41.2023C68.7918 41.1779 68.8299 41.1371 68.8679 41.0828C68.906 41.0257 68.9387 40.9795 68.9767 40.936C69.0148 40.8925 69.042 40.8463 69.0583 40.8028C69.428 40.3381 69.6238 40.0907 69.6428 40.0663C69.9989 39.6423 70.3687 39.3814 70.7602 39.2917C71.149 39.202 71.6057 39.2591 72.1331 39.4684L72.7666 39.7999C73.5034 40.1886 73.9927 40.4468 74.2347 40.5609L74.2293 40.5664L74.2266 40.5718Z" fill="#ffffff"/>
<path d="M18.607 37.4967C18.8408 37.4314 19.6238 37.1923 20.9587 36.8036C22.299 36.415 23.3267 36.135 24.039 35.9448C25.3168 35.6322 27.4619 35.1321 30.4987 34.5288C34.7536 33.708 41.0012 32.8383 49.2771 32.4089C50.1144 32.4089 55.7585 31.9387 66.2908 32.0909C68.9715 32.1289 70.4451 32.1914 70.6979 32.2105C71.9621 32.2675 72.7234 32.5149 72.9844 32.9361C72.5956 33.1699 72.0111 33.3058 71.2254 33.3628C70.9399 33.3954 70.4641 33.4253 69.8035 33.458C68.2294 33.5232 66.0816 33.5775 63.3492 33.6672C62.7701 33.6808 61.8376 33.7107 60.5544 33.7624C59.2766 33.8194 58.2814 33.8711 57.5827 33.9145C56.9656 33.9472 56.2614 33.9852 55.4784 34.0233C54.6954 34.0667 53.9967 34.1075 53.3769 34.151C52.757 34.1945 52.061 34.2516 51.2807 34.3114C50.5004 34.3739 49.8017 34.4391 49.19 34.4907C48.4913 34.556 47.4745 34.662 46.1206 34.8087C44.7721 34.9555 43.7716 35.0805 43.1218 35.1593C41.2024 35.3931 39.2476 35.6485 37.2575 35.9285C35.8356 36.1269 33.7938 36.4286 31.1458 36.8634C28.4977 37.3064 26.6789 37.657 25.6757 37.8609C25.3957 37.9179 24.5121 38.0837 23.0277 38.3881C21.5432 38.6925 20.4095 38.9453 19.6102 39.1192C18.9686 39.2524 18.2753 39.3666 17.5331 39.4671C16.9486 39.5323 16.6685 39.4209 16.6821 39.1192C16.7582 38.7496 16.9948 38.4072 17.3999 38.0919C17.737 37.8364 18.1421 37.6298 18.607 37.4776V37.4858V37.4967Z" fill="#ffffff"/>
<path d="M35.5899 18.1956C35.2582 18.2146 34.8831 18.4375 34.4644 18.8696C32.9827 20.5194 31.0714 22.3675 28.7333 24.4141C28.4043 24.694 27.7871 25.1778 26.8736 25.8681C26.8546 25.8926 26.6072 26.0475 26.1369 26.3437C26.0281 25.7023 26.0988 24.7185 26.3517 23.384C27.102 22.7507 27.4962 22.4137 27.5343 22.3729C28.6082 21.419 29.345 20.3019 29.7528 19.0137C29.8235 18.7202 29.8914 18.3397 29.9431 17.8586C29.9676 17.5107 29.8398 17.19 29.5543 16.8938C29.1085 16.4752 28.5946 16.2714 28.0047 16.2795C27.4147 16.2931 26.9307 16.5269 26.5365 16.9726C26.0906 17.4917 25.672 18.0978 25.2805 18.7935C24.7911 19.7013 24.3344 20.9461 23.9211 22.5197C23.7118 23.3188 23.5976 23.9113 23.5786 24.2972C23.5867 24.3977 23.5785 24.626 23.5595 24.9712C23.535 25.3218 23.5215 25.5882 23.5215 25.7703C23.546 26.36 23.8069 26.8819 24.3044 27.3385C24.8074 27.7951 25.3593 27.9989 25.9629 27.9554C27.0504 27.8983 27.8796 27.5939 28.4478 27.0422C28.5239 26.9715 28.6245 26.8819 28.7469 26.7677C28.8692 26.6536 28.9888 26.5448 29.103 26.4388C29.2172 26.3356 29.3205 26.2404 29.4157 26.1453C31.0931 24.3977 32.3329 23.0986 33.124 22.2588C33.5943 21.7587 34.2305 21.0276 35.0298 20.0628C35.2718 19.791 35.5002 19.473 35.715 19.1034C35.9297 18.7337 35.8863 18.4348 35.5872 18.2011V18.1956H35.5899ZM28.1759 17.9293C28.5457 18.038 28.1895 18.818 28.0345 19.2637C27.8769 19.7095 27.6784 20.1416 27.4446 20.5466C27.2108 20.9515 26.9172 21.2505 26.5474 21.4434C26.5392 19.9513 27.953 17.8613 28.1732 17.9238L28.1786 17.9293H28.1759Z" fill="#ffffff"/>
<path d="M53.9884 51.2375C53.1483 51.2375 52.349 50.914 51.6013 50.2781C51.2451 49.9682 51.0032 49.4573 50.889 48.7534C50.6906 47.6744 50.7123 46.5546 50.9652 45.4321C51.2561 44.0297 51.5307 42.91 51.7835 42.1055C51.8787 41.7739 52.5203 39.7247 53.6893 36.0229C53.6975 35.9958 53.7138 35.9713 53.7328 35.9523C53.7328 35.9523 53.76 35.8381 53.8796 35.4196L53.9041 35.4277C53.9422 35.2049 54.0998 34.7102 54.4805 33.528C54.8121 32.4925 55.1846 31.3374 55.2988 30.9569C55.5272 30.2068 55.7446 29.5137 55.9486 28.8669C56.147 28.2309 56.3428 27.6302 56.525 27.0649C56.5386 26.9997 56.6011 26.8611 56.805 26.4154C56.8322 26.3501 56.9001 26.3066 56.9708 26.3066H57.1176C57.4982 26.3066 57.7647 26.3773 57.9305 26.5213C58.1208 26.6871 58.2106 26.9671 58.2024 27.372C58.1779 27.7091 58.1372 28.0651 58.0746 28.4402C58.0556 28.5353 57.9278 29.2609 57.414 32.256C57.3895 32.3457 56.9301 34.0416 56.4026 36.0012C55.5653 39.105 54.5212 42.9725 54.35 43.5786C53.9449 45.0381 53.6947 46.3209 53.5887 47.3944C53.5235 48.2152 53.5507 48.9191 53.6839 49.4899C53.692 49.5361 53.7355 49.6937 53.8117 49.9709C53.8497 49.9791 53.8878 49.9845 53.9313 49.9845C54.0346 49.9845 54.1597 49.9574 54.3011 49.903C55.0052 49.6747 55.7311 49.2426 56.4679 48.6147C56.9627 48.1962 57.2862 47.9217 57.433 47.7939C57.762 47.5412 58.061 47.3672 58.3302 47.2721C58.3492 47.2667 58.3737 47.264 58.3927 47.264C58.4362 47.264 58.477 47.2776 58.5124 47.3075C58.651 47.4216 58.8494 47.6744 58.67 48.1092C58.4851 48.5604 58.3084 48.8729 58.129 49.0795C57.1203 50.2536 55.9105 50.9711 54.5267 51.213C54.3472 51.2402 54.176 51.2511 54.0047 51.2511L53.9965 51.2429L53.9884 51.2375Z" fill="#ffffff"/>
<path d="M81.422 43.4067C81.422 43.4067 81.4301 43.3632 81.4301 43.3414V43.3224C81.5117 42.8006 80.9869 42.4962 80.8265 42.5043C80.802 42.5043 80.783 42.5234 80.764 42.537C79.9429 43.23 79.0539 43.953 78.0888 44.7085C77.7653 44.9558 77.1563 45.3771 76.2645 45.9778C76.2455 45.9968 76.0089 46.1354 75.5468 46.3854C75.4761 45.7766 75.593 44.8553 75.9084 43.6214C76.6506 43.0642 77.0339 42.7707 77.072 42.7326C78.1323 41.8955 78.8881 40.8845 79.3394 39.6968C79.4237 39.425 79.5053 39.069 79.5759 38.6233C79.6194 38.2944 79.5134 37.9873 79.2632 37.691C78.869 37.2725 78.3933 37.0551 77.8414 37.0306C77.2894 37.0116 76.8191 37.2018 76.4249 37.6068C75.979 38.0688 75.5495 38.6178 75.1498 39.2456C74.6414 40.0719 74.1466 41.2161 73.6709 42.6701C73.4343 43.4067 73.2957 43.9584 73.2522 44.3226C73.2576 44.4177 73.2386 44.6324 73.1951 44.9558C73.1516 45.2847 73.1244 45.532 73.1135 45.706C73.1053 46.2631 73.3228 46.7659 73.7633 47.2171C74.2091 47.6737 74.7176 47.8966 75.2885 47.883C76.3107 47.8884 77.11 47.6465 77.6755 47.16C77.7517 47.0975 77.8522 47.0187 77.9746 46.9181C78.0969 46.8176 78.2165 46.7197 78.3253 46.6273C78.4395 46.5376 78.5428 46.4507 78.638 46.3664C79.6847 45.3934 81.3757 43.5779 81.4084 43.4012L81.4138 43.4067H81.422ZM77.9202 38.5879C78.2628 38.7102 77.8876 39.425 77.7163 39.8381C77.545 40.2512 77.3357 40.6399 77.0937 41.0122C76.8517 41.3819 76.5554 41.6455 76.2047 41.8113C76.2754 40.4089 77.7217 38.52 77.9202 38.5906V38.5879Z" fill="#ffffff"/>
</svg>