<svg xmlns="http://www.w3.org/2000/svg" width="137" height="25" viewBox="0 0 137 25" fill="none">
<path d="M58.4253 0.0981445H57.6069C57.0034 0.331879 56.5167 0.687918 56.2883 1.45707C56.0464 0.715096 55.5869 0.307419 54.9453 0.0981445H54.1269C53.5044 0.312855 53.0422 0.701507 52.7948 1.42445C52.5528 0.715096 52.0933 0.315572 51.4653 0.0981445H50.647C50.0081 0.301983 49.5404 0.690635 49.2903 1.4462C49.0701 0.712378 48.5998 0.329162 47.9853 0.0981445H47.167C46.5254 0.291112 46.0577 0.679764 45.7967 1.42989C45.5439 0.6852 45.079 0.291112 44.4374 0.0981445H43.619C43.4967 0.155219 43.3689 0.209577 43.2493 0.269369C42.6104 0.592793 42.1971 1.30759 42.2651 1.96802C42.3467 2.77523 42.8279 3.37315 43.5701 3.58514C44.2688 3.78626 45.0382 3.52807 45.4787 2.93558C45.5983 2.77522 45.688 2.59585 45.7967 2.41375C46.4764 4.10697 48.6868 4.02815 49.3094 2.37298C49.6302 3.15844 50.1821 3.64494 51.0357 3.65037C51.903 3.65581 52.4576 3.16388 52.7975 2.34037C53.1237 3.17203 53.6838 3.64766 54.5402 3.65037C55.4048 3.65309 55.9539 3.15301 56.2938 2.34852C56.359 2.49257 56.3971 2.58769 56.4433 2.67738C56.8185 3.4112 57.6532 3.7917 58.4525 3.59873C59.2626 3.40305 59.8145 2.70184 59.8145 1.86475C59.8145 1.0195 59.3741 0.4569 58.428 0.0981445H58.4253Z" fill="#ffffff"/>
<path d="M135.319 0.0969557H134.501C133.889 0.325255 133.413 0.700319 133.174 1.43414C132.938 0.705754 132.478 0.303512 131.842 0.0969557H131.024C130.393 0.311666 129.923 0.700318 129.692 1.45044C129.458 0.708471 128.982 0.325255 128.365 0.0969557H127.546C126.902 0.295359 126.443 0.692165 126.187 1.44773C125.972 0.708472 125.491 0.336126 124.885 0.0969557H123.998C123.876 0.156748 123.751 0.208388 123.631 0.273616C122.908 0.656833 122.549 1.40968 122.693 2.2196C122.827 2.96157 123.447 3.5296 124.243 3.64103C124.958 3.74431 125.711 3.32032 126.059 2.62727C126.1 2.54574 126.095 2.42615 126.22 2.39082C126.524 3.15182 127.065 3.61929 127.889 3.64375C128.775 3.67093 129.344 3.17356 129.689 2.33374C130.018 3.15725 130.57 3.63831 131.426 3.64375C132.293 3.64918 132.845 3.1491 133.185 2.3419C133.248 2.48323 133.286 2.57563 133.332 2.66532C133.761 3.51601 134.789 3.87748 135.659 3.48611C136.195 3.24422 136.499 2.80937 136.687 2.27667V1.39065C136.437 0.743804 136.004 0.287206 135.322 0.0942383L135.319 0.0969557Z" fill="#ffffff"/>
<path d="M26.9309 3.61232C27.6269 3.46556 28.0592 3.02255 28.331 2.31047C28.6355 3.16388 29.1983 3.63135 30.0466 3.64766C30.9084 3.66396 31.4657 3.1666 31.8246 2.37298C31.9035 2.53062 31.9497 2.6339 32.0068 2.73174C32.4526 3.52807 33.4232 3.85693 34.2742 3.50633C35.0925 3.16659 35.5357 2.23166 35.2828 1.36466C35.0925 0.704225 34.6086 0.337315 33.9996 0.0981445H33.1813C32.5478 0.291112 32.0829 0.677046 31.8219 1.43261C31.5799 0.696071 31.1123 0.329162 30.5196 0.0981445H29.7013C29.0461 0.29383 28.5676 0.682482 28.3256 1.44892C28.0864 0.698789 27.6214 0.296547 26.9717 0.0981445H26.1533C25.9984 0.171526 25.8407 0.236755 25.6912 0.318291C24.9136 0.747711 24.5901 1.67722 24.9136 2.52247C25.2208 3.3188 26.0908 3.78898 26.9255 3.61232H26.9309Z" fill="#ffffff"/>
<path d="M93.4257 0.0981445H92.6073C91.9712 0.288394 91.5062 0.668893 91.2425 1.39999C90.9625 0.706943 90.5248 0.282958 89.8777 0.0981445H89.0594C88.4531 0.329162 87.9719 0.690635 87.7462 1.4462C87.4988 0.712378 87.0366 0.307419 86.3977 0.0981445H85.5794C85.487 0.138912 85.3918 0.176962 85.2994 0.220448C84.5653 0.552025 84.1167 1.30759 84.2119 2.05228C84.3179 2.88394 84.9351 3.51448 85.7588 3.6395C86.5092 3.75365 87.2677 3.32695 87.6212 2.59857C87.6565 2.52518 87.6565 2.42191 87.768 2.38657C88.0806 3.18018 88.6407 3.65037 89.4971 3.64765C90.3589 3.64765 90.9027 3.1367 91.2453 2.34037C91.3023 2.47083 91.335 2.55508 91.3757 2.63661C91.7754 3.45469 92.678 3.83247 93.5562 3.55253C94.3881 3.2889 94.9019 2.41919 94.7388 1.53589C94.6002 0.788478 94.0999 0.361776 93.4257 0.0981445Z" fill="#ffffff"/>
<path d="M92.6759 21.0774C91.9608 21.2051 91.5258 21.6645 91.2512 22.3195C90.4791 20.4958 88.2715 20.7349 87.7332 22.3521C87.6897 22.2515 87.6544 22.1564 87.6109 22.064C87.2085 21.2214 86.2597 20.8382 85.3679 21.1562C84.5278 21.4579 84.0493 22.3602 84.2641 23.249C84.4272 23.9284 84.8921 24.3334 85.5147 24.5834H86.469C87.0617 24.347 87.5211 23.9746 87.7305 23.2707C87.986 23.9583 88.421 24.3796 89.0599 24.5834H89.9462C90.5389 24.366 90.9821 23.9909 91.2322 23.2734C91.4851 23.9773 91.9255 24.3796 92.5399 24.5834H93.4262C93.5105 24.5481 93.5921 24.5128 93.6764 24.4774C94.5219 24.1214 94.9569 23.1892 94.6904 22.3086C94.424 21.4389 93.5703 20.9143 92.6759 21.0747V21.0774Z" fill="#ffffff"/>
<path d="M33.8121 21.0615C33.0944 20.9391 32.3331 21.3387 31.9688 22.0209C31.9253 22.1051 31.928 22.2274 31.7894 22.2655C31.4495 21.5099 30.884 21.0288 30.0331 21.0424C29.193 21.056 28.6411 21.5425 28.3203 22.3579C28.2523 22.2029 28.2142 22.1105 28.168 22.0181C27.752 21.2028 26.7814 20.8332 25.9305 21.1647C25.0659 21.5017 24.5983 22.4149 24.8484 23.2982C25.0387 23.9696 25.5091 24.3664 26.1507 24.5838H27.037C27.6378 24.3528 28.0946 23.975 28.3203 23.2384C28.5296 23.9505 28.9891 24.3229 29.56 24.5838H30.5143C31.1151 24.3636 31.58 23.994 31.8084 23.2466C32.0585 23.975 32.4989 24.3691 33.1052 24.5838H34.0595C34.1492 24.5376 34.2389 24.4887 34.3314 24.4425C35.0274 24.0973 35.4433 23.3444 35.3346 22.6242C35.2068 21.7762 34.6468 21.2001 33.8094 21.0587L33.8121 21.0615Z" fill="#ffffff"/>
<path d="M131.596 21.0456C130.856 20.945 130.103 21.4016 129.774 22.1517C129.747 22.2142 129.717 22.2795 129.679 22.3664C129.323 21.513 128.779 21.0591 128.021 21.0401C127.123 21.0184 126.536 21.4994 126.188 22.3474C126.126 22.2142 126.085 22.1245 126.041 22.0376C125.666 21.2956 124.867 20.9151 124.043 21.089C123.274 21.2494 122.708 21.9261 122.662 22.7415C122.613 23.5731 123.045 24.1684 123.994 24.5842H124.88C125.487 24.3722 125.933 23.989 126.191 23.266C126.43 23.9781 126.873 24.364 127.474 24.5842H128.36C128.991 24.3803 129.432 23.9781 129.687 23.2606C129.907 23.9591 130.353 24.3505 130.954 24.5842H131.908C131.99 24.5434 132.071 24.5054 132.153 24.4646C132.893 24.114 133.325 23.3394 133.202 22.5757C133.072 21.7495 132.455 21.1624 131.598 21.0456H131.596Z" fill="#ffffff"/>
<path d="M134.936 10.5785C134.129 10.5677 133.588 10.9726 133.261 11.6929C133.237 11.7445 133.251 11.8315 133.155 11.8369C132.865 11.0922 132.359 10.622 131.538 10.5813C130.611 10.5378 130.021 11.0107 129.697 11.8586C129.096 10.7769 128.406 10.3883 127.498 10.6193C126.698 10.8231 126.163 11.5108 126.16 12.337C126.16 13.1605 126.696 13.8698 127.479 14.0737C128.387 14.3129 129.069 13.9324 129.703 12.8316C129.999 13.647 130.565 14.1362 131.432 14.1335C132.299 14.1335 132.865 13.6415 133.177 12.8099C133.232 12.9268 133.272 13.0164 133.316 13.1061C133.694 13.8834 134.52 14.283 135.355 14.0818C136.051 13.9133 136.445 13.4268 136.687 12.7854V11.8994C136.657 11.8369 136.625 11.7771 136.597 11.7146C136.29 10.9781 135.738 10.5894 134.939 10.5785H134.936Z" fill="#ffffff"/>
<path d="M6.18953 5.41355C5.70559 5.25864 5.2271 5.28581 4.76763 5.52498C4.32176 5.75872 4.04173 6.13922 3.85957 6.64202C3.45176 5.68805 2.82374 5.25864 1.94287 5.33474C1.12725 5.4054 0.637873 5.90548 0.363281 6.64474V7.5987C0.393187 7.6585 0.425819 7.71829 0.455726 7.7808C0.781974 8.48744 1.33658 8.88968 2.1087 8.88968C2.86179 8.88968 3.42187 8.50918 3.75355 7.81613C3.78346 7.75634 3.77258 7.65306 3.88132 7.64491C4.4006 8.63964 5.08573 9.03644 5.96388 8.85163C6.78222 8.68041 7.35315 8.00638 7.39937 7.16928C7.44015 6.41916 6.91815 5.64729 6.19225 5.41355H6.18953Z" fill="#ffffff"/>
<path d="M113.808 21.0407C112.897 21.1494 112.201 21.856 112.171 22.7203C112.141 23.6634 112.636 24.2505 113.484 24.5821H114.439C114.55 24.525 114.662 24.4706 114.773 24.4135C115.515 24.0439 115.907 23.1362 115.67 22.3344C115.426 21.5109 114.61 20.9429 113.808 21.038V21.0407Z" fill="#ffffff"/>
<path d="M2.7014 3.55915C3.52518 3.2765 4.01726 2.43396 3.86773 1.56425C3.73724 0.795101 3.23155 0.3684 2.54643 0.102051H1.72809C1.04841 0.297736 0.605249 0.740745 0.363281 1.39846V2.35243C0.417656 2.46386 0.469322 2.57801 0.526415 2.68944C0.936944 3.47762 1.86403 3.84996 2.7014 3.56187V3.55915Z" fill="#ffffff"/>
<path d="M99.7005 21.0695C98.7843 21.2325 98.1536 21.9799 98.1889 22.8877C98.2243 23.752 98.7245 24.2765 99.4966 24.5836H100.451C100.562 24.5293 100.677 24.4777 100.788 24.4206C101.585 24.0047 101.952 23.0888 101.661 22.2463C101.381 21.4282 100.532 20.92 99.6978 21.0695H99.7005Z" fill="#ffffff"/>
<path d="M50.0942 21.312C49.2323 21.8447 49.004 23.0025 49.5776 23.8532C49.8278 24.2228 50.1921 24.4131 50.5808 24.5843H51.5351C51.6167 24.5435 51.6955 24.4973 51.7771 24.4593C52.7232 24.0244 53.112 22.8938 52.6226 21.9861C52.136 21.0783 50.9751 20.7685 50.0942 21.312Z" fill="#ffffff"/>
<path d="M65.5455 3.57427C66.4101 3.33782 66.962 2.39744 66.7717 1.48968C66.6167 0.755863 66.1165 0.353622 65.4558 0.0981445H64.6375C64.5423 0.133477 64.4472 0.168808 64.352 0.206858C63.4657 0.568332 63.0334 1.53317 63.3406 2.45995C63.6315 3.34054 64.6076 3.83247 65.5455 3.57427Z" fill="#ffffff"/>
<path d="M16.0586 3.65581C16.866 3.67212 17.6273 3.09593 17.823 2.31591C18.0297 1.50055 17.6545 0.671611 16.8987 0.274805C16.779 0.212295 16.654 0.157937 16.5316 0.0981445H15.6453C15.542 0.147066 15.4414 0.19327 15.3381 0.242191C14.5741 0.609101 14.169 1.42717 14.3458 2.24796C14.5143 3.04157 15.2375 3.63406 16.0586 3.65309V3.65581Z" fill="#ffffff"/>
<path d="M134.28 15.9232C133.446 16.2385 132.97 17.149 133.187 18.0214C133.405 18.902 134.231 19.4727 135.139 19.3559C135.936 19.2526 136.406 18.7552 136.681 18.0377V17.1517C136.624 17.0267 136.572 16.9017 136.51 16.7821C136.088 15.9586 135.148 15.5971 134.28 15.926V15.9232Z" fill="#ffffff"/>
<path d="M79.1526 3.65037C80.1749 3.55796 80.9416 2.58226 80.773 1.59568C80.6398 0.821092 80.145 0.364494 79.4408 0.0981445H78.6225C77.641 0.4569 77.2115 1.03308 77.2332 1.95715C77.2577 2.94101 78.163 3.74006 79.1526 3.65037Z" fill="#ffffff"/>
<path d="M100.509 3.57156C101.404 3.29162 101.929 2.36211 101.706 1.44348C101.534 0.734121 101.048 0.329162 100.384 0.0981445H99.5659C99.4599 0.14163 99.3566 0.182398 99.2506 0.228601C98.3752 0.617253 97.9619 1.61199 98.3072 2.50888C98.6416 3.38402 99.6095 3.85149 100.509 3.57156Z" fill="#ffffff"/>
<path d="M16.0594 21.0317C15.2573 21.0453 14.5124 21.6568 14.3438 22.4396C14.159 23.2984 14.5804 24.1111 15.396 24.4725C15.4776 24.5106 15.5618 24.5459 15.6434 24.584H16.5297C16.6222 24.5432 16.7173 24.5024 16.8097 24.4617C17.6036 24.0948 18.0141 23.2903 17.832 22.445C17.658 21.6297 16.8886 21.0181 16.0567 21.0345L16.0594 21.0317Z" fill="#ffffff"/>
<path d="M1.58129 15.8837C0.96957 16.074 0.605249 16.517 0.363281 17.0823V18.0363C0.436687 18.1912 0.496496 18.3515 0.580777 18.4983C1.0484 19.3001 2.05433 19.6018 2.89442 19.1995C3.72092 18.8027 4.11786 17.7944 3.78345 16.9491C3.43546 16.0713 2.47574 15.6065 1.58399 15.8865L1.58129 15.8837Z" fill="#ffffff"/>
<path d="M114.482 3.57427C115.371 3.30249 115.909 2.36483 115.689 1.44892C115.518 0.739557 115.028 0.337315 114.37 0.0981445H113.552C113.446 0.14163 113.343 0.182398 113.237 0.228601C112.356 0.617253 111.948 1.59568 112.282 2.50344C112.603 3.37315 113.582 3.84877 114.479 3.57427H114.482Z" fill="#ffffff"/>
<path d="M64.2175 21.2367C63.3285 21.6716 62.9832 22.7913 63.4508 23.6855C63.6955 24.1502 64.1061 24.3921 64.5628 24.5851H65.4491C65.5334 24.5498 65.6177 24.5144 65.6992 24.4791C66.6372 24.085 67.064 23.0169 66.6454 22.1037C66.2131 21.1579 65.1473 20.7801 64.2148 21.2367H64.2175Z" fill="#ffffff"/>
<path d="M1.77703 21.0781C1.05112 21.2113 0.643311 21.6978 0.363281 22.331V23.285C0.583499 23.9291 1.0185 24.3586 1.66012 24.5814H2.54643C2.61984 24.5542 2.69597 24.5271 2.76937 24.4972C3.62034 24.152 4.07979 23.2198 3.82967 22.3501C3.56867 21.4477 2.7014 20.9096 1.77703 21.0781Z" fill="#ffffff"/>
<path d="M0.991308 13.7392C1.55137 14.2094 2.42137 14.2637 3.05756 13.8642C3.72365 13.4457 4.04174 12.6412 3.83783 11.8856C3.63121 11.1246 2.97327 10.5974 2.20387 10.5756C1.30669 10.5539 0.79556 10.9208 0.363281 11.8965V12.7825C0.485624 13.1576 0.68681 13.4783 0.991308 13.7365V13.7392Z" fill="#ffffff"/>
<path d="M78.1646 21.2512C77.3 21.7105 76.9765 22.7759 77.4224 23.6565C77.6644 24.1349 78.0776 24.393 78.5534 24.5833H79.5077C79.6164 24.5235 79.7252 24.4637 79.8366 24.4066C80.7066 23.9446 81.041 22.8792 80.5897 22.0095C80.1275 21.1235 79.0482 20.7865 78.1673 21.2539L78.1646 21.2512Z" fill="#ffffff"/>
<path d="M79.4693 14.069C80.2251 13.8679 80.7852 13.1476 80.7961 12.3595C80.807 11.5985 80.2632 10.8483 79.5264 10.6418C79.0642 10.5113 78.6048 10.5385 78.167 10.7641C77.7239 10.9951 77.4602 11.3783 77.2508 11.8621C76.9246 11.0685 76.3999 10.6064 75.5652 10.5765C74.6436 10.5439 74.0971 11.0549 73.7518 11.8784C73.4745 11.1473 73.0123 10.6635 72.2375 10.5874C71.2615 10.4896 70.6198 10.957 70.2637 11.892C69.951 11.044 69.3937 10.5793 68.5319 10.5738C67.651 10.5657 67.0936 11.0467 66.7701 11.8838C66.3297 10.8701 65.6174 10.4407 64.693 10.5929C63.9182 10.7206 63.2901 11.4164 63.2494 12.1937C63.2004 13.0933 63.7061 13.8325 64.5244 14.0635C64.935 14.1804 65.3346 14.1532 65.7234 13.9874C66.2454 13.7673 66.5662 13.3542 66.7701 12.7997C67.0746 13.6341 67.6374 14.1206 68.4884 14.1315C69.3665 14.1424 69.9565 13.664 70.2637 12.7889C70.5519 13.6423 71.131 14.1097 71.9711 14.1315C72.8302 14.1532 73.4174 13.6803 73.7382 12.8623C74.5212 14.6153 76.5766 14.4984 77.2481 12.8894C77.9006 13.9576 78.5613 14.3109 79.4666 14.0717L79.4693 14.069Z" fill="#ffffff"/>
<path d="M114.435 15.8706C113.527 15.6069 112.815 15.982 112.203 17.0637C111.632 16.0228 110.917 15.6314 110.033 15.8488C109.278 16.0364 108.712 16.7077 108.685 17.4551C108.655 18.3357 109.128 19.0505 109.911 19.2896C110.387 19.4364 110.849 19.3956 111.298 19.1646C111.749 18.9282 112.032 18.5531 112.195 18.0367C112.654 19.0668 113.394 19.5043 114.31 19.3386C115.079 19.1972 115.699 18.4879 115.745 17.6888C115.794 16.8653 115.248 16.1097 114.435 15.8733V15.8706Z" fill="#ffffff"/>
<path d="M103.948 5.38419C103.029 5.13143 102.325 5.51193 101.724 6.59636C101.153 5.53368 100.457 5.14774 99.5355 5.38148C98.7253 5.58803 98.1761 6.30011 98.1897 7.12905C98.2033 7.95528 98.7797 8.66464 99.5844 8.84402C100.512 9.05057 101.199 8.64833 101.721 7.59109C102.235 8.64018 102.937 9.05057 103.861 8.84402C104.666 8.66464 105.234 7.97702 105.253 7.16439C105.272 6.31642 104.75 5.60162 103.951 5.38148L103.948 5.38419Z" fill="#ffffff"/>
<path d="M16.5351 15.8541C15.6298 15.6204 14.9011 16.0199 14.3411 17.0744C13.7946 16.0525 13.1367 15.6639 12.2776 15.8297C11.4511 15.99 10.8883 16.6233 10.8067 17.4821C10.7415 18.1697 11.22 18.9443 11.8888 19.2243C12.3754 19.4281 12.8621 19.4172 13.3433 19.2025C13.83 18.9851 14.1317 18.5937 14.3329 18.0692C14.8658 19.1237 15.6243 19.5422 16.5215 19.3194C17.3045 19.1264 17.8673 18.4198 17.8863 17.6071C17.9026 16.7999 17.3317 16.0552 16.5378 15.8514L16.5351 15.8541Z" fill="#ffffff"/>
<path d="M23.094 15.7935C22.1098 15.788 21.2942 16.6034 21.2969 17.5954C21.2969 18.5684 22.1098 19.381 23.0749 19.3756C24.0836 19.3702 24.8775 18.5766 24.8747 17.5818C24.8693 16.6088 24.0618 15.7989 23.094 15.7935Z" fill="#ffffff"/>
<path d="M23.0928 8.89987C24.0661 8.89172 24.8681 8.08452 24.8708 7.11153C24.8735 6.11136 24.0851 5.3259 23.071 5.32862C22.0841 5.32862 21.293 6.11951 21.293 7.10066C21.293 8.08995 22.114 8.91074 23.0928 8.90259V8.89987Z" fill="#ffffff"/>
<path d="M37.0908 10.5748C36.0658 10.5666 35.2855 11.3249 35.2774 12.3359C35.2719 13.3225 36.0848 14.1433 37.069 14.1406C38.026 14.1379 38.858 13.3062 38.8525 12.355C38.8498 11.3548 38.0831 10.5829 37.0881 10.5748H37.0908Z" fill="#ffffff"/>
<path d="M51.067 15.7898C50.0882 15.7735 49.2672 16.5888 49.2617 17.5809C49.259 18.5674 50.0447 19.3665 51.0207 19.3746C52.0131 19.3828 52.8396 18.5701 52.8396 17.5917C52.8396 16.635 52.0239 15.8061 51.067 15.7898Z" fill="#ffffff"/>
<path d="M79.0085 15.7962C78.0189 15.7853 77.2278 16.5871 77.2305 17.5981C77.2305 18.5874 77.989 19.362 78.9623 19.3674C79.9764 19.3756 80.8138 18.5575 80.8002 17.5764C80.7866 16.6061 79.9791 15.8043 79.0085 15.7935V15.7962Z" fill="#ffffff"/>
<path d="M120.944 8.90014C121.931 8.89198 122.714 8.10381 122.717 7.11995C122.717 6.11162 121.964 5.33432 120.972 5.32888C119.949 5.32345 119.139 6.1225 119.145 7.1281C119.153 8.08206 119.993 8.90829 120.944 8.90014Z" fill="#ffffff"/>
<path d="M51.0507 5.32471C50.0529 5.32471 49.2672 6.09386 49.2617 7.07772C49.2563 8.07789 50.042 8.88509 51.0371 8.89596C52.0104 8.90955 52.8396 8.07789 52.8396 7.09403C52.8396 6.13191 52.0267 5.32471 51.0507 5.32471Z" fill="#ffffff"/>
<path d="M23.0984 10.5747C22.0897 10.5693 21.3067 11.3249 21.2931 12.3114C21.2795 13.3035 22.0734 14.1242 23.0658 14.1406C24.0418 14.1569 24.8737 13.3279 24.871 12.3468C24.871 11.3548 24.0962 10.5802 23.0984 10.5747Z" fill="#ffffff"/>
<path d="M113.946 5.32861C112.954 5.32861 112.173 6.1032 112.168 7.09521C112.163 8.08995 112.967 8.90258 113.957 8.89987C114.933 8.89987 115.757 8.06277 115.746 7.08434C115.735 6.11407 114.928 5.32861 113.946 5.32861Z" fill="#ffffff"/>
<path d="M100.004 10.5748C98.9787 10.5666 98.193 11.3303 98.1875 12.3359C98.1821 13.3252 98.995 14.146 99.9792 14.1406C100.944 14.1379 101.763 13.3225 101.765 12.3577C101.768 11.3684 100.991 10.5802 100.004 10.5748Z" fill="#ffffff"/>
<path d="M113.957 14.1432C114.914 14.146 115.735 13.3279 115.746 12.3603C115.757 11.3656 114.96 10.5747 113.949 10.5747C112.951 10.5747 112.173 11.3439 112.168 12.3359C112.165 13.3279 112.967 14.1405 113.957 14.1432Z" fill="#ffffff"/>
<path d="M37.0481 15.7945C36.0123 15.8353 35.2483 16.6344 35.2782 17.6508C35.3054 18.6102 36.1264 19.3957 37.0753 19.3712C38.0867 19.3468 38.8751 18.5396 38.8533 17.5557C38.8316 16.5882 37.9806 15.7592 37.0481 15.7945Z" fill="#ffffff"/>
<path d="M99.9792 15.7935C98.995 15.7935 98.1821 16.6115 98.1875 17.6008C98.193 18.582 98.9841 19.3647 99.971 19.3701C100.966 19.3729 101.774 18.5684 101.765 17.5764C101.757 16.6061 100.947 15.7962 99.9792 15.7962V15.7935Z" fill="#ffffff"/>
<path d="M79.0124 8.89868C79.9586 8.89868 80.8014 8.05886 80.7986 7.11305C80.7959 6.11288 79.9993 5.32471 78.9988 5.32471C78.0011 5.32471 77.2344 6.09658 77.2344 7.09403C77.2344 8.10235 78.0147 8.89324 79.0152 8.89596L79.0124 8.89868Z" fill="#ffffff"/>
<path d="M89.5235 5.32868C88.5175 5.32052 87.7155 6.08967 87.6938 7.08712C87.672 8.04924 88.5121 8.89993 89.4827 8.89993C90.4614 8.89993 91.258 8.1036 91.2635 7.12518C91.2689 6.12501 90.5049 5.33683 89.5235 5.32868Z" fill="#ffffff"/>
<path d="M16.1221 8.89987C17.0655 8.89443 17.873 8.08451 17.8838 7.13055C17.8947 6.1331 17.1008 5.32861 16.1031 5.32861C15.1134 5.32861 14.3196 6.10592 14.3087 7.08163C14.2978 8.08179 15.1216 8.9053 16.1248 8.89987H16.1221Z" fill="#ffffff"/>
<path d="M49.2619 12.3904C49.2728 13.358 50.102 14.1624 51.0671 14.1434C52.0241 14.1244 52.8534 13.2819 52.837 12.3415C52.818 11.3495 52.0241 10.5613 51.0536 10.5749C50.0068 10.5885 49.2483 11.3549 49.2619 12.3904Z" fill="#ffffff"/>
<path d="M37.0282 5.32889C36.0495 5.33432 35.2719 6.13065 35.2774 7.12267C35.2828 8.09294 36.0903 8.89742 37.0609 8.90014C38.0369 8.90286 38.8688 8.06304 38.8552 7.09005C38.8416 6.10075 38.0369 5.32345 37.0282 5.32889Z" fill="#ffffff"/>
<path d="M87.6941 17.5954C87.6996 18.5684 88.488 19.3566 89.4776 19.3729C90.4509 19.3892 91.2584 18.5928 91.2638 17.6117C91.2693 16.6034 90.4808 15.7935 89.4939 15.7935C88.5152 15.7935 87.6887 16.6197 87.6914 17.5954H87.6941Z" fill="#ffffff"/>
<path d="M9.11114 10.5735C8.10521 10.5708 7.30318 11.3617 7.30862 12.351C7.31406 13.3131 8.12969 14.1312 9.08941 14.1393C10.0682 14.1475 10.8892 13.3213 10.8865 12.3374C10.8838 11.3481 10.1035 10.5735 9.11114 10.5708V10.5735Z" fill="#ffffff"/>
<path d="M16.0937 10.5747C15.0796 10.5747 14.2939 11.3629 14.3048 12.3631C14.3157 13.3469 15.1068 14.1351 16.0883 14.1405C17.0616 14.146 17.8935 13.3089 17.8826 12.3332C17.8718 11.3575 17.0725 10.572 16.091 10.5747H16.0937Z" fill="#ffffff"/>
<path d="M65.035 5.32743C64.0182 5.32199 63.2461 6.09114 63.2461 7.10761C63.2461 8.09963 64.0563 8.90683 65.0432 8.89868C65.9757 8.89052 66.7995 8.07245 66.8158 7.1348C66.8321 6.14822 66.0274 5.33014 65.035 5.32471V5.32743Z" fill="#ffffff"/>
<path d="M89.4906 10.5786C88.4955 10.5786 87.7071 11.345 87.6935 12.3289C87.6799 13.2992 88.5227 14.1553 89.4824 14.1444C90.4856 14.1336 91.2659 13.3427 91.2632 12.3371C91.2632 11.3396 90.4938 10.5786 89.4906 10.5786Z" fill="#ffffff"/>
<path d="M106.978 10.5735C105.977 10.5708 105.162 11.3698 105.17 12.3483C105.178 13.3185 106.002 14.1475 106.948 14.1393C107.935 14.1312 108.734 13.3457 108.742 12.3755C108.753 11.3563 107.987 10.5735 106.975 10.5708L106.978 10.5735Z" fill="#ffffff"/>
<path d="M120.916 15.7935C119.962 15.8043 119.144 16.636 119.146 17.5954C119.146 18.5602 119.959 19.3647 120.93 19.3701C121.941 19.3729 122.716 18.601 122.716 17.5845C122.716 16.5925 121.903 15.7853 120.916 15.7962V15.7935Z" fill="#ffffff"/>
<path d="M65.035 15.7935C64.04 15.7962 63.2488 16.5952 63.2461 17.5954C63.2461 18.582 64.0318 19.3756 65.0105 19.3783C65.9975 19.3783 66.8239 18.5602 66.8158 17.5845C66.8076 16.617 65.9838 15.7907 65.035 15.7962V15.7935Z" fill="#ffffff"/>
<path d="M120.946 14.1418C121.909 14.1472 122.713 13.34 122.716 12.3616C122.719 11.356 121.963 10.5868 120.968 10.5787C119.943 10.5705 119.141 11.3614 119.147 12.3725C119.152 13.3183 119.981 14.1363 120.946 14.1418Z" fill="#ffffff"/>
</svg>