<svg xmlns="http://www.w3.org/2000/svg" width="97" height="60" viewBox="0 0 97 60" fill="none">
<path d="M52.5866 24.6005C47.682 26.4024 42.2092 26.6307 37.1578 25.3832C32.9737 24.4238 29.1375 22.4534 25.1573 21.0619C18.8417 18.8251 15.6607 21.0727 11.5527 25.7746C13.1894 21.7739 16.7183 17.1944 23.7898 17.7597C28.4605 18.132 32.7317 19.4909 36.1328 19.9584C52.1407 22.1571 63.6056 13.1393 63.3881 3.67578C64.2065 8.38581 64.6823 19.4773 52.5812 24.6005H52.5866Z" fill="#ffffff"/>
<path d="M36.1364 19.9577C35.6987 9.27655 45.3149 0.495176 56.2116 2.25091C44.0153 -3.53268 30.0736 5.24054 30.041 18.7374C32.2704 19.2076 34.3258 19.7077 36.1364 19.9577Z" fill="#ffffff"/>
<path d="M49.6602 36.9194C42.3006 37.3733 35.898 33.7259 32.4941 27.8608C44.046 38.0446 66.8127 30.0134 65.7361 13.2578C69.314 24.2542 61.2285 36.2046 49.6602 36.9167V36.9194Z" fill="#ffffff"/>
<path d="M6.0898 48.3269H0.173828V59.7528H6.0898C9.88515 59.7528 12.0384 57.0023 12.0384 54.0398C12.0384 51.0774 9.93953 48.3242 6.0898 48.3242M6.08163 57.2143H2.89801V50.86H6.08163C8.15603 50.86 9.28431 52.3901 9.28431 54.0398C9.28431 55.6896 8.1234 57.217 6.08163 57.217" fill="#ffffff"/>
<path d="M90.6074 48.3269H84.6914V59.7528H90.6074C94.4027 59.7528 96.556 57.0023 96.556 54.0398C96.556 51.0774 94.4571 48.3242 90.6074 48.3242M90.5992 57.2143H87.4156V50.86H90.5992C92.6736 50.86 93.8019 52.3901 93.8019 54.0398C93.8019 55.6896 92.641 57.217 90.5992 57.217" fill="#ffffff"/>
<path d="M13.2246 48.3281H19.9535C22.433 48.3281 24.3741 50.0784 24.3741 52.587C24.3741 55.0956 22.433 56.8921 19.9399 56.8921H15.9678V59.7567H13.2273V48.3308L13.2246 48.3281ZM15.9651 50.8014V54.3563H19.8121C22.1991 54.3726 22.1883 50.7932 19.8121 50.8014H15.9651Z" fill="#ffffff"/>
<path d="M43.8282 48.3281L41.4466 55.3184L38.8747 48.3281H35.4056L32.8364 55.3184L30.452 48.3281H27.6816L31.2894 59.754H34.0136L37.1401 51.2118L40.2694 59.754H42.9936L46.6013 48.3281H43.8282Z" fill="#ffffff"/>
<path d="M60.2598 48.3282H67.3312C68.5655 48.3227 69.6775 48.6924 70.5094 49.4887C72.2548 51.1466 71.8932 54.4596 69.7726 55.6229L71.9041 59.7567H68.8972L67.285 56.3268H62.9839V59.7567H60.2598V48.3282ZM62.9839 50.8177V53.8536H67.1273C68.174 53.878 68.8183 53.2828 68.8319 52.318C68.8238 51.2934 68.1794 50.8069 67.1273 50.815H62.9839" fill="#ffffff"/>
<path d="M73.1699 48.3281H75.9104V57.1421H83.531V59.754H73.1699V48.3281Z" fill="#ffffff"/>
<path d="M52.7409 48.2031C49.0326 48.2031 46.4824 50.5079 46.4824 54.0438C46.4824 57.5797 49.0353 59.8844 52.7409 59.8844C56.4466 59.8844 58.9995 57.5797 58.9995 54.0438C58.9995 50.5079 56.4466 48.2031 52.7409 48.2031ZM52.7409 57.2074C50.6529 57.2074 49.2175 55.9571 49.2175 54.0438C49.2175 52.1304 50.6529 50.8802 52.7409 50.8802C54.8289 50.8802 56.2644 52.1277 56.2644 54.0438C56.2644 55.9599 54.8289 57.2074 52.7409 57.2074Z" fill="#ffffff"/>
<path d="M36.1692 19.8765C36.1692 19.8765 36.1529 19.8738 36.142 19.8711C36.1529 19.8711 36.1583 19.8738 36.1692 19.8765ZM36.1393 19.8711C36.1393 19.8711 36.123 19.8711 36.1175 19.8711C36.123 19.8711 36.1311 19.8711 36.1393 19.8711ZM36.1094 19.8711C36.1094 19.8711 36.0985 19.8711 36.0931 19.8684C36.0985 19.8684 36.1039 19.8684 36.1094 19.8711ZM36.0849 19.8684C36.0849 19.8684 36.074 19.8684 36.0686 19.8657C36.074 19.8657 36.0795 19.8657 36.0849 19.8684ZM36.0604 19.863C36.0604 19.863 36.0496 19.863 36.0414 19.863C36.0496 19.863 36.0523 19.863 36.0604 19.863ZM36.036 19.8602C36.036 19.8602 36.0224 19.8602 36.0197 19.8602C36.0224 19.8602 36.0305 19.8602 36.036 19.8602ZM35.9843 19.8575C35.9843 19.8575 35.9707 19.8575 35.968 19.8575C35.9707 19.8575 35.9789 19.8575 35.9843 19.8575ZM35.9599 19.8548C35.9599 19.8548 35.949 19.8548 35.9408 19.8521C35.949 19.8521 35.9544 19.8521 35.9599 19.8548ZM35.9354 19.8521C35.9354 19.8521 35.9218 19.8521 35.9191 19.8494C35.9218 19.8494 35.9299 19.8494 35.9354 19.8521ZM35.9109 19.8467C35.9109 19.8467 35.8973 19.8467 35.8919 19.8467C35.8973 19.8467 35.9028 19.8467 35.9109 19.8467ZM35.8837 19.8467C35.8837 19.8467 35.8729 19.8467 35.8647 19.8467C35.8701 19.8467 35.8783 19.8467 35.8837 19.8467ZM35.8593 19.8439C35.8593 19.8439 35.8484 19.8439 35.8402 19.8412C35.8484 19.8412 35.8538 19.8412 35.8593 19.8439ZM35.8321 19.8412C35.8321 19.8412 35.8212 19.8412 35.8158 19.8385C35.8212 19.8385 35.8294 19.8385 35.8321 19.8412ZM35.8103 19.8385C35.8103 19.8385 35.7967 19.8358 35.7886 19.8358C35.7967 19.8358 35.8022 19.8358 35.8103 19.8385ZM35.7858 19.8358C35.7858 19.8358 35.7695 19.8358 35.7641 19.8358C35.7695 19.8358 35.7804 19.8358 35.7858 19.8358ZM35.7641 19.8331C35.7641 19.8331 35.7478 19.8331 35.7396 19.8303C35.7505 19.8303 35.756 19.8331 35.7641 19.8331ZM35.7369 19.8303C35.7369 19.8303 35.7206 19.8303 35.7125 19.8276C35.7233 19.8276 35.7315 19.8276 35.7369 19.8303ZM35.7125 19.8276C35.7125 19.8276 35.6961 19.8249 35.688 19.8249C35.6989 19.8249 35.7043 19.8249 35.7125 19.8276ZM30.0684 18.7188C31.8899 19.1101 33.7359 19.5232 35.688 19.8249C33.7386 19.5232 31.8899 19.1101 30.0684 18.7188Z" fill="#ffffff"/>
<mask id="mask0_2010_306" style="mask-type:luminance" maskUnits="userSpaceOnUse" x="30" y="18" width="7" height="2" fill="#000000">
<path d="M36.1692 19.8765C36.1692 19.8765 36.1529 19.8738 36.142 19.8711C36.1529 19.8711 36.1583 19.8738 36.1692 19.8765ZM36.1393 19.8711C36.1393 19.8711 36.123 19.8711 36.1175 19.8711C36.123 19.8711 36.1311 19.8711 36.1393 19.8711ZM36.1094 19.8711C36.1094 19.8711 36.0985 19.8711 36.0931 19.8684C36.0985 19.8684 36.1039 19.8684 36.1094 19.8711ZM36.0849 19.8684C36.0849 19.8684 36.074 19.8684 36.0686 19.8657C36.074 19.8657 36.0795 19.8657 36.0849 19.8684ZM36.0604 19.863C36.0604 19.863 36.0496 19.863 36.0414 19.863C36.0496 19.863 36.0523 19.863 36.0604 19.863ZM36.036 19.8602C36.036 19.8602 36.0224 19.8602 36.0197 19.8602C36.0224 19.8602 36.0305 19.8602 36.036 19.8602ZM35.9843 19.8575C35.9843 19.8575 35.9707 19.8575 35.968 19.8575C35.9707 19.8575 35.9789 19.8575 35.9843 19.8575ZM35.9599 19.8548C35.9599 19.8548 35.949 19.8548 35.9408 19.8521C35.949 19.8521 35.9544 19.8521 35.9599 19.8548ZM35.9354 19.8521C35.9354 19.8521 35.9218 19.8521 35.9191 19.8494C35.9218 19.8494 35.9299 19.8494 35.9354 19.8521ZM35.9109 19.8467C35.9109 19.8467 35.8973 19.8467 35.8919 19.8467C35.8973 19.8467 35.9028 19.8467 35.9109 19.8467ZM35.8837 19.8467C35.8837 19.8467 35.8729 19.8467 35.8647 19.8467C35.8701 19.8467 35.8783 19.8467 35.8837 19.8467ZM35.8593 19.8439C35.8593 19.8439 35.8484 19.8439 35.8402 19.8412C35.8484 19.8412 35.8538 19.8412 35.8593 19.8439ZM35.8321 19.8412C35.8321 19.8412 35.8212 19.8412 35.8158 19.8385C35.8212 19.8385 35.8294 19.8385 35.8321 19.8412ZM35.8103 19.8385C35.8103 19.8385 35.7967 19.8358 35.7886 19.8358C35.7967 19.8358 35.8022 19.8358 35.8103 19.8385ZM35.7858 19.8358C35.7858 19.8358 35.7695 19.8358 35.7641 19.8358C35.7695 19.8358 35.7804 19.8358 35.7858 19.8358ZM35.7641 19.8331C35.7641 19.8331 35.7478 19.8331 35.7396 19.8303C35.7505 19.8303 35.756 19.8331 35.7641 19.8331ZM35.7369 19.8303C35.7369 19.8303 35.7206 19.8303 35.7125 19.8276C35.7233 19.8276 35.7315 19.8276 35.7369 19.8303ZM35.7125 19.8276C35.7125 19.8276 35.6961 19.8249 35.688 19.8249C35.6989 19.8249 35.7043 19.8249 35.7125 19.8276ZM30.0684 18.7188C31.8899 19.1101 33.7359 19.5232 35.688 19.8249C33.7386 19.5232 31.8899 19.1101 30.0684 18.7188Z" fill="#ffffff"/>
</mask>
<g mask="url(#mask0_2010_306)">
<path d="M36.168 18.6992H30.0645V19.8788H36.168V18.6992Z" fill="#ffffff"/>
</g>
</svg>