<svg xmlns="http://www.w3.org/2000/svg" width="97" height="47" viewBox="0 0 97 47" fill="none">
<path d="M0.134766 46.3589H5.89854V46.0437C5.16991 45.7909 4.66146 45.4403 4.34608 45.0299C3.99808 44.6168 3.84044 44.0814 3.84044 43.4454C3.84044 43.0649 3.90298 42.5893 4.06067 42.0213C4.22107 41.4831 4.44128 40.7873 4.72675 39.9312L4.8518 39.5833H10.3002L11.5997 43.0676C11.7574 43.5106 11.8852 43.8585 11.9477 44.114C12.0103 44.3994 12.0428 44.6195 12.0428 44.8424C12.0428 45.4756 11.7275 45.8887 11.094 46.0464V46.3617H18.7908V46.0464C18.4428 45.886 18.1274 45.6034 17.8419 45.2229C17.5565 44.8723 17.2709 44.3341 16.9855 43.6384L9.76185 24.7031H9.25613L3.36466 40.82C2.95141 41.9288 2.60339 42.8149 2.25539 43.4807C1.90739 44.1792 1.59203 44.7174 1.24131 45.1278C0.893311 45.5409 0.545295 45.8262 0.134766 46.0464V46.3617V46.3589ZM5.10734 38.8223L7.45092 32.0141L10.0174 38.8223H5.10734Z" fill="#ffffff"/>
<path d="M0.134766 46.3589H5.89854V46.0437C5.16991 45.7909 4.66146 45.4403 4.34608 45.0299C3.99808 44.6168 3.84044 44.0814 3.84044 43.4454C3.84044 43.0649 3.90298 42.5893 4.06067 42.0213C4.22107 41.4831 4.44128 40.7873 4.72675 39.9312L4.8518 39.5833H10.3002L11.5997 43.0676C11.7574 43.5106 11.8852 43.8585 11.9477 44.114C12.0103 44.3994 12.0428 44.6195 12.0428 44.8424C12.0428 45.4756 11.7275 45.8887 11.094 46.0464V46.3617H18.7908V46.0464C18.4428 45.886 18.1274 45.6034 17.8419 45.2229C17.5565 44.8723 17.2709 44.3341 16.9855 43.6384L9.76185 24.7031H9.25613L3.36466 40.82C2.95141 41.9288 2.60339 42.8149 2.25539 43.4807C1.90739 44.1792 1.59203 44.7174 1.24131 45.1278C0.893311 45.5409 0.545295 45.8262 0.134766 46.0464V46.3617V46.3589ZM5.10734 38.8223L7.45092 32.0141L10.0174 38.8223H5.10734Z" fill="#ffffff"/>
<path d="M18.7031 46.3568H25.3233V46.0714C24.9753 45.9763 24.7523 45.786 24.5946 45.4382C24.4342 45.1229 24.3418 44.6473 24.3418 43.9814V24.3477L18.7031 24.5053V24.7907C19.0837 25.0135 19.3366 25.2989 19.4943 25.7093C19.6194 26.1224 19.6846 26.7856 19.6846 27.6716V43.9814C19.6846 44.6445 19.6221 45.1202 19.4644 45.4382C19.304 45.786 19.0511 45.9763 18.7031 46.0714V46.3568Z" fill="#ffffff"/>
<path d="M18.7031 46.3568H25.3233V46.0714C24.9753 45.9763 24.7523 45.786 24.5946 45.4382C24.4342 45.1229 24.3418 44.6473 24.3418 43.9814V24.3477L18.7031 24.5053V24.7907C19.0837 25.0135 19.3366 25.2989 19.4943 25.7093C19.6194 26.1224 19.6846 26.7856 19.6846 27.6716V43.9814C19.6846 44.6445 19.6221 45.1202 19.4644 45.4382C19.304 45.786 19.0511 45.9763 18.7031 46.0714V46.3568Z" fill="#ffffff"/>
<path d="M26.3613 46.3568H32.9815V46.0714C32.6335 45.9763 32.4106 45.786 32.2529 45.4382C32.0925 45.1229 32 44.6473 32 43.9814V24.3477L26.3613 24.5053V24.7907C26.742 25.0135 26.9948 25.2989 27.1525 25.7093C27.2776 26.1224 27.3428 26.7856 27.3428 27.6716V43.9814C27.3428 44.6445 27.2803 45.1202 27.1226 45.4382C26.9622 45.786 26.7093 45.9763 26.3613 46.0714V46.3568Z" fill="#ffffff"/>
<path d="M26.3613 46.3568H32.9815V46.0714C32.6335 45.9763 32.4106 45.786 32.2529 45.4382C32.0925 45.1229 32 44.6473 32 43.9814V24.3477L26.3613 24.5053V24.7907C26.742 25.0135 26.9948 25.2989 27.1525 25.7093C27.2776 26.1224 27.3428 26.7856 27.3428 27.6716V43.9814C27.3428 44.6445 27.2803 45.1202 27.1226 45.4382C26.9622 45.786 26.7093 45.9763 26.3613 46.0714V46.3568Z" fill="#ffffff"/>
<path d="M37.3138 23.9688C36.5852 23.9688 36.0169 24.1916 35.5412 24.6319C35.0654 25.1075 34.8425 25.6457 34.8425 26.2789C34.8425 26.9448 35.0654 27.4829 35.5412 27.9259C36.0169 28.4016 36.5879 28.6217 37.3138 28.6217C38.0397 28.6217 38.5808 28.4016 39.0565 27.9259C39.5323 27.4829 39.7552 26.9448 39.7552 26.2789C39.7552 25.613 39.5323 25.1075 39.0565 24.6319C38.5808 24.1889 38.0125 23.9688 37.3138 23.9688ZM34.1465 30.4916V30.777C34.4945 30.9672 34.7473 31.2852 34.9077 31.7255C35.0654 32.1685 35.128 32.8643 35.128 33.7856V43.665C35.128 44.426 35.0654 44.9967 34.9077 45.3446C34.7473 45.7251 34.4945 45.9779 34.1465 46.073V46.3584H40.7666V46.073C40.4186 45.9779 40.1658 45.7251 40.0081 45.3446C39.8477 44.9967 39.7851 44.426 39.7851 43.665V30.0486L34.1465 30.4916Z" fill="#ffffff"/>
<path d="M37.3138 23.9688C36.5852 23.9688 36.0169 24.1916 35.5412 24.6319C35.0654 25.1075 34.8425 25.6457 34.8425 26.2789C34.8425 26.9448 35.0654 27.4829 35.5412 27.9259C36.0169 28.4016 36.5879 28.6217 37.3138 28.6217C38.0397 28.6217 38.5808 28.4016 39.0565 27.9259C39.5323 27.4829 39.7552 26.9448 39.7552 26.2789C39.7552 25.613 39.5323 25.1075 39.0565 24.6319C38.5808 24.1889 38.0125 23.9688 37.3138 23.9688ZM34.1465 30.4916V30.777C34.4945 30.9672 34.7473 31.2852 34.9077 31.7255C35.0654 32.1685 35.128 32.8643 35.128 33.7856V43.665C35.128 44.426 35.0654 44.9967 34.9077 45.3446C34.7473 45.7251 34.4945 45.9779 34.1465 46.073V46.3584H40.7666V46.073C40.4186 45.9779 40.1658 45.7251 40.0081 45.3446C39.8477 44.9967 39.7851 44.426 39.7851 43.665V30.0486L34.1465 30.4916Z" fill="#ffffff"/>
<path d="M46.2041 46.6749C47.2182 46.6749 48.1044 46.3895 48.8331 45.8188C49.5617 45.248 50.1326 44.4273 50.6057 43.351C50.8912 44.4599 51.3044 45.2508 51.9053 45.6938C52.5061 46.1368 53.3625 46.3569 54.5342 46.3569H56.2443V46.0716C55.929 45.9764 55.6734 45.7237 55.4831 45.3432C55.2928 44.9926 55.1677 44.4572 55.0726 43.7288L53.9633 35.0208C53.7404 33.1835 53.1069 31.8219 52.0629 30.906C51.0189 30.0199 49.5291 29.5742 47.5335 29.5742C46.5194 29.5742 45.6005 29.7346 44.7767 30.0172C43.953 30.3325 43.2895 30.7456 42.8138 31.2511C42.3054 31.7594 42.0526 32.3274 42.0526 32.9308C42.0526 33.3113 42.1477 33.5939 42.3679 33.8168C42.5908 34.0396 42.8763 34.132 43.2243 34.132C43.923 34.132 44.3009 33.689 44.3961 32.7704C44.4613 31.9143 44.6489 31.3136 44.9969 30.9005C45.3476 30.52 45.8207 30.3298 46.4542 30.3298C47.055 30.3298 47.5634 30.52 47.9114 30.9304C48.2594 31.3435 48.5449 32.0393 48.7678 32.9579C46.2965 34.5098 44.4913 36.0291 43.3521 37.4859C42.1804 38.9725 41.6094 40.4945 41.6094 42.1089C41.6094 43.0276 41.7997 43.8185 42.1803 44.4843C42.561 45.1801 43.0993 45.7182 43.7952 46.0987C44.4613 46.4792 45.2851 46.6695 46.2041 46.6695M46.2666 40.6223C46.2666 39.3259 46.4895 38.0892 46.9 36.8553C47.3133 35.6513 47.9766 34.5125 48.8629 33.4363C48.8956 33.5613 48.9255 33.689 48.9581 33.8467L50.4806 42.6824C50.5133 42.7775 50.5132 42.8428 50.5132 42.9352C50.2903 43.3157 49.9749 43.6336 49.6269 43.8538C49.2463 44.1066 48.8657 44.2343 48.4551 44.2343C46.9979 44.2343 46.2693 43.0303 46.2693 40.625" fill="#ffffff"/>
<path d="M46.2041 46.6749C47.2182 46.6749 48.1044 46.3895 48.8331 45.8188C49.5617 45.248 50.1326 44.4273 50.6057 43.351C50.8912 44.4599 51.3044 45.2508 51.9053 45.6938C52.5061 46.1368 53.3625 46.3569 54.5342 46.3569H56.2443V46.0716C55.929 45.9764 55.6734 45.7237 55.4831 45.3432C55.2928 44.9926 55.1677 44.4572 55.0726 43.7288L53.9633 35.0208C53.7404 33.1835 53.1069 31.8219 52.0629 30.906C51.0189 30.0199 49.5291 29.5742 47.5335 29.5742C46.5194 29.5742 45.6005 29.7346 44.7767 30.0172C43.953 30.3325 43.2895 30.7456 42.8138 31.2511C42.3054 31.7594 42.0526 32.3274 42.0526 32.9308C42.0526 33.3113 42.1477 33.5939 42.3679 33.8168C42.5908 34.0396 42.8763 34.132 43.2243 34.132C43.923 34.132 44.3009 33.689 44.3961 32.7704C44.4613 31.9143 44.6489 31.3136 44.9969 30.9005C45.3476 30.52 45.8207 30.3298 46.4542 30.3298C47.055 30.3298 47.5634 30.52 47.9114 30.9304C48.2594 31.3435 48.5449 32.0393 48.7678 32.9579C46.2965 34.5098 44.4913 36.0291 43.3521 37.4859C42.1804 38.9725 41.6094 40.4945 41.6094 42.1089C41.6094 43.0276 41.7997 43.8185 42.1803 44.4843C42.561 45.1801 43.0993 45.7182 43.7952 46.0987C44.4613 46.4792 45.2851 46.6695 46.2041 46.6695M46.2666 40.6223C46.2666 39.3259 46.4895 38.0892 46.9 36.8553C47.3133 35.6513 47.9766 34.5125 48.8629 33.4363C48.8956 33.5613 48.9255 33.689 48.9581 33.8467L50.4806 42.6824C50.5133 42.7775 50.5132 42.8428 50.5132 42.9352C50.2903 43.3157 49.9749 43.6336 49.6269 43.8538C49.2463 44.1066 48.8657 44.2343 48.4551 44.2343C46.9979 44.2343 46.2693 43.0303 46.2693 40.625" fill="#ffffff"/>
<path d="M56.2324 46.3597H62.8526V46.0743C62.5046 45.9792 62.2517 45.7264 62.094 45.3459C61.9336 44.998 61.8711 44.4273 61.8711 43.6663V32.996C62.094 32.7106 62.3469 32.4579 62.6949 32.2676C63.0429 32.11 63.3908 32.0148 63.7715 32.0148C65.2287 32.0148 65.9573 33.0286 65.9573 35.086V43.6663C65.9573 44.4273 65.8948 44.998 65.7344 45.3459C65.5767 45.7264 65.3238 45.9792 64.9758 46.0743V46.3597H71.596V46.0743C71.248 45.9792 70.9951 45.7264 70.8347 45.3459C70.677 44.998 70.6118 44.4273 70.6118 43.6663V34.8006C70.6118 33.121 70.2312 31.8246 69.4726 30.906C68.6815 30.0199 67.6049 29.5742 66.1803 29.5742C65.2315 29.5742 64.375 29.827 63.5839 30.3651C62.7927 30.9032 62.2218 31.6316 61.8411 32.5503L61.7134 29.7346L56.2324 30.4303V30.7157C56.5804 30.9386 56.8333 31.2538 56.9937 31.6642C57.1514 32.1073 57.2139 32.803 57.2139 33.7543V43.6635C57.2139 44.4245 57.1514 44.9953 56.9937 45.3432C56.8333 45.7237 56.5804 45.9764 56.2324 46.0716V46.3569V46.3597Z" fill="#ffffff"/>
<path d="M56.2324 46.3597H62.8526V46.0743C62.5046 45.9792 62.2517 45.7264 62.094 45.3459C61.9336 44.998 61.8711 44.4273 61.8711 43.6663V32.996C62.094 32.7106 62.3469 32.4579 62.6949 32.2676C63.0429 32.11 63.3908 32.0148 63.7715 32.0148C65.2287 32.0148 65.9573 33.0286 65.9573 35.086V43.6663C65.9573 44.4273 65.8948 44.998 65.7344 45.3459C65.5767 45.7264 65.3238 45.9792 64.9758 46.0743V46.3597H71.596V46.0743C71.248 45.9792 70.9951 45.7264 70.8347 45.3459C70.677 44.998 70.6118 44.4273 70.6118 43.6663V34.8006C70.6118 33.121 70.2312 31.8246 69.4726 30.906C68.6815 30.0199 67.6049 29.5742 66.1803 29.5742C65.2315 29.5742 64.375 29.827 63.5839 30.3651C62.7927 30.9032 62.2218 31.6316 61.8411 32.5503L61.7134 29.7346L56.2324 30.4303V30.7157C56.5804 30.9386 56.8333 31.2538 56.9937 31.6642C57.1514 32.1073 57.2139 32.803 57.2139 33.7543V43.6635C57.2139 44.4245 57.1514 44.9953 56.9937 45.3432C56.8333 45.7237 56.5804 45.9764 56.2324 46.0716V46.3569V46.3597Z" fill="#ffffff"/>
<path d="M78.7276 46.6749C79.932 46.6749 80.9135 46.2944 81.7046 45.5035C82.4659 44.7126 83.0368 43.5086 83.4147 41.8942L83.2244 41.7991C82.6535 42.4623 81.9575 42.7802 81.1337 42.7802C80.4051 42.7802 79.7417 42.5574 79.1055 42.147C78.472 41.7366 77.9338 41.1658 77.458 40.4048C76.9849 39.6765 76.6369 38.7904 76.3814 37.8093C76.0959 36.8254 75.9681 35.7519 75.9681 34.5778C75.9681 33.2161 76.191 32.1725 76.6016 31.3789C77.0121 30.6206 77.583 30.2401 78.3116 30.2401C79.0403 30.2401 79.7689 30.6831 80.4975 31.5718C81.2261 32.4579 81.9548 33.8195 82.7459 35.6867H83.0939L82.6181 29.7319H82.4278C82.2049 30.0172 81.9194 30.145 81.6041 30.145C81.4137 30.145 81.1609 30.0825 80.8754 29.9846C80.5573 29.8895 80.2093 29.7944 79.7988 29.6992C79.3855 29.6041 78.9424 29.5742 78.4666 29.5742C77.5803 29.5742 76.7566 29.7971 76.0279 30.2075C75.2694 30.6206 74.6033 31.2212 74.065 31.9795C73.5267 32.7704 73.0808 33.6591 72.798 34.7028C72.4827 35.7492 72.3223 36.8879 72.3223 38.1218C72.3223 39.8015 72.5752 41.2881 73.1135 42.5873C73.6518 43.8837 74.3804 44.8675 75.3619 45.5959C76.346 46.3243 77.4525 46.6722 78.7195 46.6722" fill="#ffffff"/>
<path d="M78.7276 46.6749C79.932 46.6749 80.9135 46.2944 81.7046 45.5035C82.4659 44.7126 83.0368 43.5086 83.4147 41.8942L83.2244 41.7991C82.6535 42.4623 81.9575 42.7802 81.1337 42.7802C80.4051 42.7802 79.7417 42.5574 79.1055 42.147C78.472 41.7366 77.9338 41.1658 77.458 40.4048C76.9849 39.6765 76.6369 38.7904 76.3814 37.8093C76.0959 36.8254 75.9681 35.7519 75.9681 34.5778C75.9681 33.2161 76.191 32.1725 76.6016 31.3789C77.0121 30.6206 77.583 30.2401 78.3116 30.2401C79.0403 30.2401 79.7689 30.6831 80.4975 31.5718C81.2261 32.4579 81.9548 33.8195 82.7459 35.6867H83.0939L82.6181 29.7319H82.4278C82.2049 30.0172 81.9194 30.145 81.6041 30.145C81.4137 30.145 81.1609 30.0825 80.8754 29.9846C80.5573 29.8895 80.2093 29.7944 79.7988 29.6992C79.3855 29.6041 78.9424 29.5742 78.4666 29.5742C77.5803 29.5742 76.7566 29.7971 76.0279 30.2075C75.2694 30.6206 74.6033 31.2212 74.065 31.9795C73.5267 32.7704 73.0808 33.6591 72.798 34.7028C72.4827 35.7492 72.3223 36.8879 72.3223 38.1218C72.3223 39.8015 72.5752 41.2881 73.1135 42.5873C73.6518 43.8837 74.3804 44.8675 75.3619 45.5959C76.346 46.3243 77.4525 46.6722 78.7195 46.6722" fill="#ffffff"/>
<path d="M90.9144 46.6764C92.2764 46.6764 93.3829 46.2333 94.272 45.3799C95.1284 44.5238 95.7618 43.3198 96.1724 41.7054L95.9495 41.6103C95.2861 42.4012 94.3345 42.7817 93.0975 42.7817C92.1161 42.7817 91.2297 42.4963 90.4359 41.9256C89.6447 41.3874 89.0411 40.5965 88.5653 39.5828C88.0923 38.6016 87.7742 37.4302 87.6464 36.0686H96.2621V35.6555C96.2621 34.4216 96.0391 33.3453 95.5661 32.4267C95.0903 31.508 94.4568 30.8123 93.6032 30.3068C92.7468 29.8311 91.7327 29.5784 90.5935 29.5784C89.612 29.5784 88.7258 29.7686 87.9319 30.179C87.1408 30.5921 86.4447 31.1928 85.8412 31.951C85.2403 32.712 84.7646 33.5981 84.4465 34.6444C84.1311 35.6881 83.9707 36.797 83.9707 38.0336C83.9707 39.7757 84.2561 41.295 84.8271 42.5941C85.398 43.8906 86.2218 44.8744 87.2658 45.6028C88.3098 46.3312 89.5142 46.6791 90.9089 46.6791M87.6138 34.995C87.6138 33.5383 87.8367 32.3995 88.3098 31.5434C88.7529 30.7199 89.3565 30.3095 90.1477 30.3095C90.7186 30.3095 91.1944 30.5296 91.5424 31.0052C91.8904 31.4809 92.0807 32.1141 92.0807 32.905C92.0807 33.7611 91.8278 34.3917 91.352 34.8048C90.8763 35.2179 90.0851 35.4054 89.0411 35.4054L87.6165 35.438V34.995H87.6138Z" fill="#ffffff"/>
<path d="M90.9144 46.6764C92.2764 46.6764 93.3829 46.2333 94.272 45.3799C95.1284 44.5238 95.7618 43.3198 96.1724 41.7054L95.9495 41.6103C95.2861 42.4012 94.3345 42.7817 93.0975 42.7817C92.1161 42.7817 91.2297 42.4963 90.4359 41.9256C89.6447 41.3874 89.0411 40.5965 88.5653 39.5828C88.0923 38.6016 87.7742 37.4302 87.6464 36.0686H96.2621V35.6555C96.2621 34.4216 96.0391 33.3453 95.5661 32.4267C95.0903 31.508 94.4568 30.8123 93.6032 30.3068C92.7468 29.8311 91.7327 29.5784 90.5935 29.5784C89.612 29.5784 88.7258 29.7686 87.9319 30.179C87.1408 30.5921 86.4447 31.1928 85.8412 31.951C85.2403 32.712 84.7646 33.5981 84.4465 34.6444C84.1311 35.6881 83.9707 36.797 83.9707 38.0336C83.9707 39.7757 84.2561 41.295 84.8271 42.5941C85.398 43.8906 86.2218 44.8744 87.2658 45.6028C88.3098 46.3312 89.5142 46.6791 90.9089 46.6791M87.6138 34.995C87.6138 33.5383 87.8367 32.3995 88.3098 31.5434C88.7529 30.7199 89.3565 30.3095 90.1477 30.3095C90.7186 30.3095 91.1944 30.5296 91.5424 31.0052C91.8904 31.4809 92.0807 32.1141 92.0807 32.905C92.0807 33.7611 91.8278 34.3917 91.352 34.8048C90.8763 35.2179 90.0851 35.4054 89.0411 35.4054L87.6165 35.438V34.995H87.6138Z" fill="#ffffff"/>
<path d="M18.4285 0.789062V1.10433C18.8091 1.23207 19.0919 1.48483 19.2523 1.86533C19.41 2.27573 19.5051 2.84647 19.5051 3.63737V19.1536C19.5051 19.9445 19.41 20.5152 19.2523 20.8957C19.0919 21.3061 18.8091 21.5589 18.4285 21.6866V22.0046H31.8917L32.5578 14.3729H32.1445C31.5437 16.8108 30.6873 18.5855 29.578 19.6591C28.4688 20.7353 27.0741 21.2735 25.364 21.2735H24.3499V10.9185H24.8584C25.8398 10.9185 26.631 11.2039 27.2345 11.7393C27.8354 12.2774 28.3111 13.196 28.6591 14.4626H29.0071V7.02109H28.6591C28.3111 8.19248 27.8353 9.01599 27.2644 9.49161C26.6636 9.96452 25.8697 10.22 24.8584 10.22H24.3499V1.52016H25.2689C26.2503 1.52016 27.0741 1.6778 27.8027 1.99307C28.4987 2.34095 29.0996 2.87909 29.608 3.64009C30.1164 4.40108 30.5595 5.41212 30.9401 6.71125H31.2881L31.0027 0.789062H18.4258H18.4285Z" fill="#ffffff"/>
<path d="M18.4285 0.789062V1.10433C18.8091 1.23207 19.0919 1.48483 19.2523 1.86533C19.41 2.27573 19.5051 2.84647 19.5051 3.63737V19.1536C19.5051 19.9445 19.41 20.5152 19.2523 20.8957C19.0919 21.3061 18.8091 21.5589 18.4285 21.6866V22.0046H31.8917L32.5578 14.3729H32.1445C31.5437 16.8108 30.6873 18.5855 29.578 19.6591C28.4688 20.7353 27.0741 21.2735 25.364 21.2735H24.3499V10.9185H24.8584C25.8398 10.9185 26.631 11.2039 27.2345 11.7393C27.8354 12.2774 28.3111 13.196 28.6591 14.4626H29.0071V7.02109H28.6591C28.3111 8.19248 27.8353 9.01599 27.2644 9.49161C26.6636 9.96452 25.8697 10.22 24.8584 10.22H24.3499V1.52016H25.2689C26.2503 1.52016 27.0741 1.6778 27.8027 1.99307C28.4987 2.34095 29.0996 2.87909 29.608 3.64009C30.1164 4.40108 30.5595 5.41212 30.9401 6.71125H31.2881L31.0027 0.789062H18.4258H18.4285Z" fill="#ffffff"/>
<path d="M37.6232 22.3234C38.6373 22.3234 39.5236 22.038 40.2522 21.4672C40.9808 20.8965 41.5491 20.073 42.0248 18.9994C42.3103 20.1056 42.7236 20.8992 43.3244 21.3422C43.9252 21.7852 44.7816 22.0054 45.9534 22.0054H47.6635V21.72C47.3481 21.6249 47.0926 21.3721 46.9022 20.9916C46.7119 20.641 46.5869 20.1029 46.4917 19.3772L45.3825 10.6692C45.1596 8.83196 44.5261 7.47032 43.4821 6.5544C42.4381 5.66838 40.9482 5.22266 38.9527 5.22266C37.9386 5.22266 37.0224 5.38301 36.1986 5.66567C35.3748 5.98094 34.7088 6.39405 34.2357 6.89957C33.7273 7.40781 33.4744 7.97584 33.4744 8.5792C33.4744 8.9597 33.5696 9.24235 33.7898 9.46522C34.0127 9.68808 34.2982 9.78049 34.6462 9.78049C35.3449 9.78049 35.7228 9.33748 35.818 8.41885C35.8832 7.56272 36.0709 6.96208 36.4188 6.55168C36.7696 6.17119 37.2426 5.98094 37.8761 5.98094C38.4769 5.98094 38.9853 6.17119 39.3333 6.58158C39.6813 6.99198 39.9668 7.69046 40.1897 8.60909C37.7184 10.161 35.9132 11.6803 34.774 13.137C33.6022 14.6237 33.0312 16.1457 33.0312 17.7601C33.0312 18.6787 33.2216 19.4696 33.6022 20.1355C33.9828 20.8313 34.5211 21.3694 35.2171 21.7499C35.8832 22.1304 36.707 22.3206 37.626 22.3206M37.6885 16.2734C37.6885 14.9743 37.9114 13.7404 38.322 12.5065C38.7352 11.3025 39.3986 10.1637 40.2849 9.08744C40.3175 9.21246 40.3474 9.3402 40.38 9.49783L41.9025 18.3336C41.9351 18.4287 41.9351 18.4939 41.9351 18.5863C41.7122 18.9668 41.3968 19.2848 41.0488 19.5049C40.6682 19.7577 40.2876 19.8854 39.8771 19.8854C38.4198 19.8854 37.6912 18.6814 37.6912 16.2761" fill="#ffffff"/>
<path d="M37.6232 22.3234C38.6373 22.3234 39.5236 22.038 40.2522 21.4672C40.9808 20.8965 41.5491 20.073 42.0248 18.9994C42.3103 20.1056 42.7236 20.8992 43.3244 21.3422C43.9252 21.7852 44.7816 22.0054 45.9534 22.0054H47.6635V21.72C47.3481 21.6249 47.0926 21.3721 46.9022 20.9916C46.7119 20.641 46.5869 20.1029 46.4917 19.3772L45.3825 10.6692C45.1596 8.83196 44.5261 7.47032 43.4821 6.5544C42.4381 5.66838 40.9482 5.22266 38.9527 5.22266C37.9386 5.22266 37.0224 5.38301 36.1986 5.66567C35.3748 5.98094 34.7088 6.39405 34.2357 6.89957C33.7273 7.40781 33.4744 7.97584 33.4744 8.5792C33.4744 8.9597 33.5696 9.24235 33.7898 9.46522C34.0127 9.68808 34.2982 9.78049 34.6462 9.78049C35.3449 9.78049 35.7228 9.33748 35.818 8.41885C35.8832 7.56272 36.0709 6.96208 36.4188 6.55168C36.7696 6.17119 37.2426 5.98094 37.8761 5.98094C38.4769 5.98094 38.9853 6.17119 39.3333 6.58158C39.6813 6.99198 39.9668 7.69046 40.1897 8.60909C37.7184 10.161 35.9132 11.6803 34.774 13.137C33.6022 14.6237 33.0312 16.1457 33.0312 17.7601C33.0312 18.6787 33.2216 19.4696 33.6022 20.1355C33.9828 20.8313 34.5211 21.3694 35.2171 21.7499C35.8832 22.1304 36.707 22.3206 37.626 22.3206M37.6885 16.2734C37.6885 14.9743 37.9114 13.7404 38.322 12.5065C38.7352 11.3025 39.3986 10.1637 40.2849 9.08744C40.3175 9.21246 40.3474 9.3402 40.38 9.49783L41.9025 18.3336C41.9351 18.4287 41.9351 18.4939 41.9351 18.5863C41.7122 18.9668 41.3968 19.2848 41.0488 19.5049C40.6682 19.7577 40.2876 19.8854 39.8771 19.8854C38.4198 19.8854 37.6912 18.6814 37.6912 16.2761" fill="#ffffff"/>
<path d="M47.6543 22.0079H55.2885V21.7225C54.7801 21.5622 54.3696 21.3746 54.0841 21.1219C53.8014 20.8691 53.5784 20.5212 53.4832 20.0755C53.3555 19.6651 53.2929 19.0944 53.2929 18.366V10.1635C53.7361 8.54911 54.3696 7.7256 55.1933 7.7256C55.4788 7.7256 55.7018 7.75821 55.8921 7.85062C56.0498 7.94574 56.3026 8.01097 56.6533 8.01097C57.0041 8.01097 57.2868 7.88323 57.507 7.66309C57.7272 7.44294 57.8251 7.12495 57.8251 6.74445C57.8251 6.33406 57.6973 5.98617 57.4445 5.7307C57.159 5.50783 56.811 5.38281 56.3679 5.38281C55.7045 5.38281 55.101 5.69808 54.5626 6.30144C54.0243 6.9347 53.5812 7.82072 53.2658 8.9296L53.138 5.38281L47.657 6.07858V6.36396C48.0376 6.58682 48.2905 6.87219 48.4482 7.28259C48.5733 7.6957 48.6385 8.32896 48.6385 9.24487V19.3172C48.6385 20.0755 48.576 20.6462 48.4183 20.9941C48.2579 21.3746 48.005 21.6274 47.657 21.7225V22.0079H47.6543Z" fill="#ffffff"/>
<path d="M47.6543 22.0079H55.2885V21.7225C54.7801 21.5622 54.3696 21.3746 54.0841 21.1219C53.8014 20.8691 53.5784 20.5212 53.4832 20.0755C53.3555 19.6651 53.2929 19.0944 53.2929 18.366V10.1635C53.7361 8.54911 54.3696 7.7256 55.1933 7.7256C55.4788 7.7256 55.7018 7.75821 55.8921 7.85062C56.0498 7.94574 56.3026 8.01097 56.6533 8.01097C57.0041 8.01097 57.2868 7.88323 57.507 7.66309C57.7272 7.44294 57.8251 7.12495 57.8251 6.74445C57.8251 6.33406 57.6973 5.98617 57.4445 5.7307C57.159 5.50783 56.811 5.38281 56.3679 5.38281C55.7045 5.38281 55.101 5.69808 54.5626 6.30144C54.0243 6.9347 53.5812 7.82072 53.2658 8.9296L53.138 5.38281L47.657 6.07858V6.36396C48.0376 6.58682 48.2905 6.87219 48.4482 7.28259C48.5733 7.6957 48.6385 8.32896 48.6385 9.24487V19.3172C48.6385 20.0755 48.576 20.6462 48.4183 20.9941C48.2579 21.3746 48.005 21.6274 47.657 21.7225V22.0079H47.6543Z" fill="#ffffff"/>
<path d="M58.2207 6.07756V6.36293C58.6013 6.5858 58.8541 6.90107 59.0118 7.34408C59.1369 7.8197 59.2021 8.48286 59.2021 9.40421V19.3135C59.2021 20.0745 59.1396 20.6452 58.982 20.9931C58.8216 21.3736 58.5687 21.6264 58.2207 21.7215V22.0069H65.9175V21.7215C65.3791 21.5611 64.9686 21.341 64.6831 21.0882C64.365 20.8355 64.1448 20.4876 64.0497 20.0419C63.9246 19.6315 63.8594 19.0607 63.8594 18.3323V7.0587H66.2029V6.07756H63.8594V1.35938H63.5739C63.0655 2.69112 62.3695 3.73477 61.5158 4.49305C60.6594 5.28395 59.5529 5.79219 58.2207 6.07756Z" fill="#ffffff"/>
<path d="M58.2207 6.07756V6.36293C58.6013 6.5858 58.8541 6.90107 59.0118 7.34408C59.1369 7.8197 59.2021 8.48286 59.2021 9.40421V19.3135C59.2021 20.0745 59.1396 20.6452 58.982 20.9931C58.8216 21.3736 58.5687 21.6264 58.2207 21.7215V22.0069H65.9175V21.7215C65.3791 21.5611 64.9686 21.341 64.6831 21.0882C64.365 20.8355 64.1448 20.4876 64.0497 20.0419C63.9246 19.6315 63.8594 19.0607 63.8594 18.3323V7.0587H66.2029V6.07756H63.8594V1.35938H63.5739C63.0655 2.69112 62.3695 3.73477 61.5158 4.49305C60.6594 5.28395 59.5529 5.79219 58.2207 6.07756Z" fill="#ffffff"/>
<path d="M75.048 22.0091H81.6681V21.7238C81.3201 21.6286 81.0971 21.3759 80.9394 20.9954C80.779 20.6475 80.6866 20.0767 80.6866 19.3185V10.4501C80.6866 8.77321 80.306 7.47408 79.5475 6.55545C78.7862 5.66943 77.7096 5.2237 76.285 5.2237C75.3362 5.2237 74.4798 5.47646 73.7185 6.0146C72.9274 6.55273 72.3564 7.28112 71.9758 8.19975V0L66.3398 0.157635V0.44301C66.7205 0.665873 66.9734 0.951247 67.131 1.36164C67.2588 1.77476 67.3213 2.40801 67.3213 3.32393V19.8213C67.3213 20.8975 67.0059 21.5308 66.3398 21.721V22.0064H72.96V21.721C72.2966 21.5308 71.9758 20.8975 71.9758 19.8213V8.70527C72.1987 8.41989 72.4516 8.16714 72.7996 7.97689C73.1476 7.81653 73.4983 7.72413 73.8762 7.72413C75.3334 7.72413 76.062 8.73788 76.062 10.7953V19.313C76.062 20.0713 75.9968 20.6421 75.8392 20.9899C75.6787 21.3704 75.396 21.6232 75.048 21.7183V22.0037V22.0091Z" fill="#ffffff"/>
<path d="M75.048 22.0091H81.6681V21.7238C81.3201 21.6286 81.0971 21.3759 80.9394 20.9954C80.779 20.6475 80.6866 20.0767 80.6866 19.3185V10.4501C80.6866 8.77321 80.306 7.47408 79.5475 6.55545C78.7862 5.66943 77.7096 5.2237 76.285 5.2237C75.3362 5.2237 74.4798 5.47646 73.7185 6.0146C72.9274 6.55273 72.3564 7.28112 71.9758 8.19975V0L66.3398 0.157635V0.44301C66.7205 0.665873 66.9734 0.951247 67.131 1.36164C67.2588 1.77476 67.3213 2.40801 67.3213 3.32393V19.8213C67.3213 20.8975 67.0059 21.5308 66.3398 21.721V22.0064H72.96V21.721C72.2966 21.5308 71.9758 20.8975 71.9758 19.8213V8.70527C72.1987 8.41989 72.4516 8.16714 72.7996 7.97689C73.1476 7.81653 73.4983 7.72413 73.8762 7.72413C75.3334 7.72413 76.062 8.73788 76.062 10.7953V19.313C76.062 20.0713 75.9968 20.6421 75.8392 20.9899C75.6787 21.3704 75.396 21.6232 75.048 21.7183V22.0037V22.0091Z" fill="#ffffff"/>
</svg>