<svg xmlns="http://www.w3.org/2000/svg" width="124" height="26" viewBox="0 0 124 26" fill="none">
<path d="M4.04297 17.3042V17.3076H4.04983L4.04297 17.3042Z" fill="#ffffff"/>
<path d="M26.823 0.91901C25.1891 0.91901 23.5687 1.64739 22.0625 2.9574C21.043 3.84613 20.105 4.97132 19.2269 6.15631C18.1476 4.79195 17.1443 3.74286 16.171 2.94924C14.3277 1.44356 12.5633 0.91901 10.7852 0.91901C10.7852 0.91901 10.7825 0.91901 10.7798 0.91901C7.71305 0.91901 5.04053 2.91391 3.18636 5.77037C1.09837 8.9883 0 13.1602 0 17.1582C0 19.3569 0.434998 21.2893 1.31859 22.7596L1.32402 22.7542C1.32402 22.7542 1.32402 22.7596 1.32674 22.7624C2.4088 24.567 4.16238 25.7656 6.92734 25.7656C9.26001 25.7656 11.0326 24.7192 13.107 21.9552C14.2897 20.3761 14.8905 19.4194 17.2585 15.223L18.4357 13.133C18.5363 12.9564 18.6233 12.8069 18.7212 12.6329C18.8191 12.7906 18.9088 12.9265 19.0067 13.0895L22.3616 18.6937C23.4899 20.5826 24.958 22.6808 26.2113 23.8604C27.8426 25.3987 29.3188 25.7601 30.9854 25.7601C33.6661 25.7601 35.2566 24.3469 36.0749 22.9309C36.9204 21.4687 37.4179 19.6151 37.4179 17.0956C37.4179 12.8558 36.3549 8.7437 34.1691 5.48228C32.1708 2.50352 29.5581 0.913574 26.8176 0.913574L26.823 0.91901ZM15.2249 12.1356C14.045 13.9484 12.2887 16.8402 10.8015 18.8976C8.94192 21.4687 7.97949 21.7296 6.92462 21.7296C6.109 21.7296 5.30697 21.3599 4.76866 20.4902C4.36085 19.8271 4.04548 18.7318 4.04548 17.3049C4.04548 13.8424 5.02966 10.2358 6.63371 7.81419C7.77014 6.09923 9.12679 4.97948 10.7227 4.97948H10.7173C10.7173 4.97948 10.72 4.97948 10.7227 4.97948C12.6965 4.97948 13.9335 6.21338 14.8932 7.23529C15.3717 7.74353 16.0433 8.59965 16.8154 9.69766L15.2276 12.1383L15.2249 12.1356ZM30.9936 21.7296C30.0882 21.7296 29.3922 21.3735 28.3972 20.1668C27.6251 19.2292 26.301 17.2397 23.982 13.3749L23.0195 11.7714C22.3371 10.6353 21.6901 9.61613 21.0702 8.69749C21.1762 8.53171 21.2877 8.3333 21.3937 8.17567C23.1419 5.5774 24.6943 4.12064 26.6273 4.12064C28.4135 4.12064 30.0366 5.30018 31.2899 7.23529C33.0571 9.96129 33.8591 13.7744 33.8591 17.2125C33.8591 19.626 33.2855 21.7323 30.9909 21.7323L30.9936 21.7296Z" fill="#ffffff"/>
<path d="M57.9043 16.0801L49.9548 1.70264H45.2812V25.3235H49.0956V7.21715L56.0665 19.7573H59.6443L66.6152 7.21715V25.3235H70.4295V1.70264H65.8566L57.9043 16.0801Z" fill="#ffffff"/>
<path d="M98.8578 2.56201H95.1767V7.72321H91.6641V10.846H95.1767V19.198C95.1767 23.5411 97.1641 25.7126 101.136 25.7126C102.194 25.7126 103.17 25.5822 104.192 25.2914V22.2039C103.371 22.3398 102.814 22.424 101.846 22.424C99.7197 22.424 98.8578 21.4646 98.8578 18.7631V10.8514H104.192V7.72864H98.8578V2.56745V2.56201Z" fill="#ffffff"/>
<path d="M119.751 7.72547V9.98672C118.465 8.27447 116.559 7.3042 114.131 7.3042C109.219 7.3042 105.945 11.294 105.945 16.5177C105.945 21.7414 109.145 25.7475 113.93 25.7475C116.905 25.7475 118.742 24.3125 119.754 22.8639V25.329H123.364V7.72818H119.751V7.72547ZM119.689 19.1649C118.982 20.9614 117.209 22.4073 114.727 22.4073C111.568 22.4073 109.711 20.1569 109.711 16.5177C109.711 12.8785 111.725 10.6472 114.874 10.6472C117.299 10.6472 118.944 12.0224 119.686 13.8868V19.1676L119.689 19.1649Z" fill="#ffffff"/>
<path d="M82.4469 7.3042C77.2894 7.3042 73.8203 11.2043 73.8203 16.5693C73.8203 21.6816 77.148 25.7502 82.7323 25.7502C85.8072 25.7502 88.235 24.7392 90.1436 22.9835L88.1154 20.5021C86.7126 21.8202 85.2336 22.5432 82.8655 22.5432C79.8967 22.5432 78.0561 20.6733 77.5994 17.9011H90.546V16.8547C90.546 11.1581 87.5989 7.3042 82.4414 7.3042H82.4469ZM77.6048 15.1153C77.9963 12.5687 79.6466 10.5085 82.3816 10.5085C85.1167 10.5085 86.6962 12.4899 86.8893 15.1153H77.6075H77.6048Z" fill="#ffffff"/>
</svg>