<svg xmlns="http://www.w3.org/2000/svg" width="121" height="32" viewBox="0 0 121 32" fill="none">
<path d="M54.5014 11.2791C54.5014 12.7793 54.4986 14.2796 54.5014 15.7798C54.5014 16.4593 54.7704 16.7746 55.4447 16.8724C56.002 16.9539 56.5649 16.9023 57.1249 16.8615C57.8535 16.8099 58.1852 16.4593 58.1852 15.7282C58.1852 14.2769 58.1933 12.8255 58.1798 11.3742C58.177 11.1051 58.2559 11.0616 58.5033 11.0616C62.6086 11.0698 66.7139 11.0671 70.8192 11.0671C72.2058 11.0671 73.5868 11.01 74.9516 10.7545C76.1261 10.5371 77.2708 10.2381 78.274 9.54236C79.2826 8.84388 79.8344 7.90893 79.8127 6.65872C79.7991 5.85696 79.8045 5.05247 79.8127 4.24799C79.8181 3.61201 79.5762 3.08204 79.1384 2.63631C78.6545 2.14438 78.0592 1.82639 77.4257 1.57907C75.6069 0.869712 73.6983 0.635969 71.768 0.611508C69.2885 0.581612 66.8117 0.603355 64.3322 0.603355V0.595202H62.8206C60.5069 0.595202 58.1934 0.592484 55.8771 0.595202C55.0288 0.595202 54.4769 0.815348 54.4905 1.95413C54.5258 5.06063 54.504 8.16713 54.504 11.2736L54.5014 11.2791ZM58.1825 3.275C58.1825 3.07932 58.2233 3.01409 58.4326 3.01409C63.0327 3.02497 67.6301 3.01952 72.2302 3.03311C73.1301 3.03311 74.0273 3.12552 74.8973 3.37556C75.0822 3.42992 75.2643 3.49787 75.4383 3.5794C75.8977 3.79683 76.156 4.1284 76.1288 4.67197C76.0989 5.2998 76.118 5.93034 76.1234 6.55816C76.1288 7.15337 75.8678 7.59639 75.3703 7.90622C74.7205 8.30846 73.9919 8.44707 73.2524 8.5422C72.4259 8.64819 71.594 8.65906 70.7593 8.65634C69.0357 8.65362 67.312 8.65634 65.5883 8.65634C63.2149 8.65634 60.8441 8.65363 58.4706 8.66178C58.2531 8.66178 58.177 8.62102 58.1798 8.38184C58.1906 6.67775 58.1879 4.97638 58.1798 3.27228L58.1825 3.275Z" fill="#ffffff"/>
<path d="M16.8669 17.0272C17.9217 17.0326 18.9766 17.0027 20.0233 16.8532C21.2358 16.6793 22.4131 16.3885 23.5006 15.8041C24.7947 15.1111 25.5178 14.0783 25.458 12.5536C25.4226 11.6839 25.4525 10.8114 25.4525 9.939C25.4525 8.97145 25.1535 8.65889 24.1829 8.61541C24.1149 8.61269 24.047 8.61541 23.979 8.61541C22.3233 8.66705 20.6676 8.65075 19.0119 8.65346C18.199 8.65346 17.3861 8.65075 16.5704 8.65346C16.0294 8.65618 15.5999 8.95514 15.4014 9.44979C15.0426 10.344 15.6651 11.2544 16.6438 11.2572C18.2615 11.2626 19.8792 11.2626 21.4968 11.2544C21.7034 11.2544 21.7579 11.3061 21.7497 11.5099C21.7334 11.8877 21.7144 12.2682 21.7497 12.6405C21.8177 13.2901 21.4941 13.657 20.9422 13.8935C19.8139 14.3773 18.6258 14.5729 17.4078 14.5784C14.7652 14.5865 12.1199 14.5784 9.4773 14.5811C8.61546 14.5811 7.75356 14.5648 6.89716 14.4642C6.15766 14.3772 5.42092 14.2631 4.76027 13.8799C4.33071 13.6298 4.12685 13.2711 4.12957 12.7601C4.14045 10.1564 4.14045 7.55273 4.12957 4.94903C4.12957 4.45167 4.34709 4.12552 4.75762 3.89451C5.17358 3.65805 5.62759 3.5276 6.09521 3.43519C7.81889 3.10089 9.56151 3.11449 11.3042 3.15797C11.799 3.17156 12.2912 3.19058 12.7833 3.14438C13.1803 3.10633 13.5091 2.94054 13.6886 2.56004C14.1127 1.65228 13.588 0.793442 12.593 0.760828C12.5359 0.760828 12.476 0.760825 12.4189 0.758108C11.3151 0.758108 10.2114 0.758108 9.10759 0.758108C7.82707 0.75539 6.55463 0.861388 5.29857 1.11687C4.15127 1.3506 3.02025 1.64413 2.00888 2.26923C1.04373 2.86716 0.43479 3.67979 0.437509 4.86749C0.442947 7.52827 0.442947 10.1918 0.437509 12.8525C0.437509 13.9125 0.883307 14.7306 1.72068 15.353C2.02518 15.5785 2.34873 15.7688 2.69401 15.921C4.23553 16.6086 5.87223 16.8668 7.54153 16.9674C9.41746 17.0815 11.2988 16.9918 12.8376 17.0217C14.4063 17.0217 15.6353 17.019 16.8669 17.0217V17.0272Z" fill="#ffffff"/>
<path d="M116.685 20.969C114.44 20.9771 112.191 20.9744 109.946 20.9744C107.7 20.9744 105.433 20.9744 103.176 20.9717C102.969 20.9717 102.877 20.9934 102.877 21.2435C102.888 24.6517 102.885 28.0571 102.877 31.4653C102.877 31.6882 102.939 31.7317 103.151 31.7317C107.665 31.7262 112.175 31.7235 116.688 31.7317C116.922 31.7317 116.971 31.6664 116.971 31.4436C116.963 28.0463 116.963 24.649 116.971 21.2516C116.971 21.0179 116.903 20.969 116.683 20.969H116.685Z" fill="#ffffff"/>
<path d="M65.4514 21.2734C65.4514 21.0369 65.4024 20.969 65.155 20.969C60.6609 20.9771 56.1696 20.9771 51.6755 20.969C51.439 20.969 51.3711 21.0179 51.3711 21.2652C51.3792 24.6517 51.3792 28.0408 51.3711 31.4273C51.3711 31.6637 51.42 31.7317 51.6674 31.7317C53.9131 31.7208 56.1615 31.7262 58.4071 31.7262C60.6528 31.7262 62.9012 31.7235 65.1469 31.7317C65.3807 31.7317 65.4542 31.6855 65.4514 31.4354C65.4433 28.049 65.4433 24.6598 65.4514 21.2734Z" fill="#ffffff"/>
<path d="M82.4288 21.2695C82.4288 21.0303 82.3744 20.9651 82.1297 20.9651C77.6357 20.9732 73.1443 20.9732 68.6502 20.9651C68.4137 20.9651 68.3457 21.014 68.3457 21.2613C68.3539 24.6478 68.3539 28.0369 68.3457 31.4261C68.3457 31.6625 68.3974 31.7305 68.6448 31.7305C69.7676 31.7251 70.8904 31.725 72.016 31.7223C73.1388 31.7223 74.2618 31.7223 75.3873 31.7223C76.5129 31.7223 77.633 31.7223 78.7585 31.7223C79.8841 31.7223 81.0042 31.7223 82.1297 31.7278C82.3636 31.7278 82.4369 31.6816 82.4369 31.4315C82.4288 28.0451 82.4288 24.6559 82.4369 21.2668L82.4288 21.2695Z" fill="#ffffff"/>
<path d="M99.5139 21.2708C99.5139 21.0262 99.4433 20.9664 99.2067 20.9691C96.9611 20.9772 94.7153 20.9745 92.4696 20.9745C90.224 20.9745 87.9974 20.9772 85.7599 20.9691C85.5152 20.9691 85.4336 21.0153 85.4336 21.2816C85.4445 24.6599 85.4445 28.0355 85.4336 31.4138C85.4336 31.6747 85.5043 31.7318 85.7571 31.7318C90.2403 31.7236 94.7235 31.7236 99.204 31.7318C99.435 31.7318 99.5167 31.6856 99.5167 31.4355C99.5086 28.0491 99.5086 24.6626 99.5167 21.2735L99.5139 21.2708Z" fill="#ffffff"/>
<path d="M117.58 8.33843C117.58 8.00957 117.564 7.68071 117.485 7.36C117.191 6.17502 116.37 5.47381 115.307 5.00362C114.057 4.4519 112.727 4.27796 111.382 4.19371C109.922 4.1013 108.459 4.15294 106.882 4.13935C105.294 4.17196 103.59 4.0714 101.89 4.24806C100.447 4.39754 99.0493 4.72097 97.7633 5.41674C96.6187 6.03641 95.8086 6.90068 95.8059 8.30037C95.8032 9.83868 95.8059 11.377 95.8059 12.918C95.8059 13.9209 96.2327 14.7009 97.0239 15.2988C97.4426 15.6168 97.902 15.8587 98.3913 16.0435C100.012 16.655 101.7 16.9187 103.418 16.9486C105.297 16.9839 107.176 16.9594 109.054 16.9649C110.188 16.9676 111.319 16.9486 112.444 16.7909C113.687 16.6143 114.889 16.2936 115.979 15.6522C117.047 15.0243 117.607 14.103 117.591 12.8365C117.569 11.3362 117.586 9.83596 117.586 8.33571L117.58 8.33843ZM114.038 12.7685C114.046 13.2795 113.826 13.611 113.41 13.8529C112.874 14.1628 112.284 14.3068 111.683 14.4101C110.938 14.5378 110.185 14.5868 109.429 14.5868C107.627 14.5813 105.827 14.5922 104.025 14.584C102.785 14.5786 101.548 14.5134 100.365 14.0731C100.137 13.9888 99.9248 13.8774 99.7317 13.7252C99.4571 13.5078 99.313 13.236 99.3157 12.8772C99.3238 11.396 99.3321 9.91477 99.313 8.43355C99.3049 7.90356 99.5306 7.54481 99.9629 7.29205C100.624 6.90068 101.36 6.74033 102.111 6.63433C103.644 6.41419 105.186 6.54465 106.722 6.51203C106.798 6.51203 106.877 6.51203 106.953 6.51203C108.413 6.54465 109.878 6.4468 111.338 6.57726C111.955 6.63433 112.564 6.72946 113.143 6.97135C113.733 7.21867 114.057 7.60732 114.04 8.30037C114.005 9.78975 114.016 11.2819 114.038 12.7712V12.7685Z" fill="#ffffff"/>
<path d="M50.8153 8.34369C50.8153 7.99581 50.7963 7.64793 50.7065 7.30819C50.3993 6.15311 49.5891 5.46549 48.5451 5.00618C47.2972 4.45445 45.965 4.28051 44.6192 4.19625C43.1484 4.10385 41.6776 4.1582 40.4161 4.14461C39.2389 4.14461 38.2683 4.14461 37.3004 4.14461C36.1667 4.14733 35.0385 4.20984 33.9211 4.42455C32.6977 4.66101 31.5204 5.02792 30.4818 5.73728C29.6336 6.31618 29.0572 7.08261 29.0491 8.15344C29.0355 9.81676 29.041 11.4828 29.0518 13.1461C29.0573 13.8338 29.3455 14.4181 29.8158 14.9127C30.2427 15.3612 30.7592 15.6846 31.322 15.9211C33.0212 16.6359 34.8155 16.9131 36.6425 16.9511C38.5402 16.9919 40.4379 16.962 42.3355 16.9674C43.4502 16.9701 44.5622 16.9484 45.666 16.7935C46.9003 16.6195 48.0911 16.3016 49.1759 15.671C50.2553 15.0459 50.8343 14.1218 50.8153 12.8417C50.7962 11.3415 50.8098 9.84123 50.8098 8.34097L50.8153 8.34369ZM46.6448 13.8528C46.101 14.168 45.5002 14.3094 44.8885 14.4154C44.1218 14.5458 43.3523 14.592 42.5748 14.5866C41.6069 14.5812 40.639 14.5866 39.4645 14.5866C38.4015 14.5676 37.1319 14.6328 35.8677 14.5322C35.0955 14.4697 34.3316 14.3556 33.6003 14.0756C33.3447 13.9778 33.1082 13.8528 32.9016 13.6707C32.6732 13.4668 32.5509 13.2195 32.5509 12.907C32.5536 11.3768 32.5563 9.84938 32.5509 8.31923C32.5509 7.86264 32.7874 7.55552 33.1517 7.32722C33.8124 6.91139 34.56 6.75647 35.3158 6.63689C35.9873 6.53089 36.6642 6.50643 37.3412 6.50915C39.3558 6.51458 41.3704 6.50914 43.3849 6.51458C44.2957 6.5173 45.2012 6.58525 46.082 6.85975C46.2941 6.92498 46.5007 7.01195 46.6883 7.12882C47.0689 7.36255 47.2728 7.68326 47.2674 8.15616C47.2538 9.69446 47.2483 11.2355 47.2674 12.7738C47.2755 13.2847 47.058 13.6163 46.6393 13.8582L46.6448 13.8528Z" fill="#ffffff"/>
<path d="M86.4987 16.0028C86.5096 15.8777 86.5124 15.7527 86.5124 15.625C86.5124 13.1844 86.5233 10.7464 86.507 8.30581C86.5015 7.6481 86.7897 7.22682 87.3688 6.96591C87.6515 6.83817 87.9478 6.7512 88.2496 6.68869C89.2936 6.4767 90.3485 6.49572 91.4033 6.51475C91.7812 6.52018 92.1591 6.54193 92.5316 6.44952C93.1514 6.2946 93.4343 5.88421 93.3609 5.25367C93.2739 4.50626 92.8687 4.1475 92.0667 4.14207C90.9629 4.13392 89.8591 4.16652 88.758 4.26437C87.54 4.37036 86.341 4.5579 85.2073 5.04711C83.7365 5.68309 82.9345 6.74033 82.9889 8.40093C82.9944 8.5477 82.9971 8.69446 82.9998 8.84122C82.9998 8.96896 83.0051 9.0967 83.0051 9.22444C83.0133 10.1213 82.997 11.0182 82.997 11.9151C82.997 13.2414 82.9943 14.5677 82.997 15.894C82.997 16.5056 83.2662 16.8399 83.8697 16.9295C84.4869 17.0219 85.1095 16.9866 85.7212 16.8861C86.1915 16.81 86.4553 16.4757 86.5015 16.0028H86.4987Z" fill="#ffffff"/>
<path d="M37.1999 23.5199C37.0232 23.4628 36.8464 23.4193 36.6616 23.4111C35.5958 23.3541 34.5301 23.3948 33.4671 23.3677C33.3094 23.3622 33.2985 23.4546 33.274 23.5579C32.8336 25.5582 32.3959 27.5586 31.9473 29.5562C31.9038 29.7492 31.9854 29.7383 32.1159 29.7383C32.4938 29.7383 32.8717 29.7274 33.2496 29.7492C33.4617 29.76 33.554 29.6948 33.5921 29.4855C33.6737 29.0398 33.777 28.5968 33.8749 28.1538C33.9292 27.9119 33.8912 27.5749 34.0733 27.458C34.2528 27.3439 34.5601 27.439 34.8102 27.4227C34.9734 27.4118 35.0467 27.4825 35.1174 27.6184C35.4382 28.2571 35.7808 28.8849 36.0526 29.5453C36.1043 29.6731 36.1641 29.7437 36.3245 29.741C36.8764 29.7301 37.4255 29.7356 38.0155 29.7356C37.5397 28.8903 37.0912 28.0831 36.6317 27.2786C36.5447 27.1264 36.5202 27.0395 36.716 26.9552C36.9552 26.8547 37.1782 26.7161 37.4066 26.591C37.8443 26.3491 38.1243 25.9904 38.2303 25.493C38.4451 24.482 38.0998 23.8052 37.2053 23.5171L37.1999 23.5199ZM35.5035 26.2649C35.1745 26.2785 34.8456 26.2622 34.5166 26.2703C34.3643 26.2758 34.3425 26.2323 34.3833 26.0882C34.4975 25.6697 34.6063 25.2484 34.6878 24.8244C34.7259 24.6315 34.8102 24.5934 34.9815 24.6097C35.1337 24.626 35.2914 24.6124 35.4464 24.6124C35.4464 24.6206 35.4464 24.6315 35.4464 24.6396C35.6394 24.6396 35.8351 24.626 36.0254 24.6423C36.3191 24.6668 36.4958 24.8652 36.5094 25.1587C36.5339 25.7132 36.0581 26.2431 35.5035 26.2649Z" fill="#ffffff"/>
<path d="M43.6036 23.383C43.5628 23.3721 43.5221 23.3613 43.4786 23.3504C43.1877 23.2852 42.894 23.2716 42.595 23.2797C41.7223 23.296 41.1078 23.4075 40.6348 23.6983C40.5668 23.739 40.5016 23.7852 40.4418 23.8342C39.338 24.7066 38.6418 25.8182 38.5603 27.2532C38.4842 28.604 39.1884 29.5743 40.42 29.8433C40.8577 29.9384 41.3062 29.9439 41.7494 29.9113C42.9918 29.8216 43.9516 29.2481 44.6123 28.1909C44.9847 27.5929 45.2103 26.9379 45.3164 26.2422C45.5148 24.9131 44.7999 23.72 43.6036 23.383ZM43.6308 26.3536C43.5357 26.9814 43.2801 27.5576 42.8967 28.0658C42.5324 28.5469 41.763 28.8133 41.2111 28.6611C40.7081 28.5224 40.3818 28.2316 40.322 27.6854C40.3003 27.4924 40.2785 27.3021 40.2758 27.1064C40.2867 26.2775 40.5939 25.56 41.1431 24.9539C41.7684 24.2636 42.8532 24.2744 43.3834 24.9621C43.7015 25.3779 43.7042 25.8698 43.6335 26.3509L43.6308 26.3536Z" fill="#ffffff"/>
<path d="M25.123 23.4009C24.9844 23.4009 24.9518 23.458 24.9246 23.583C24.7859 24.2461 24.6309 24.9039 24.495 25.5643C24.4624 25.7219 24.4053 25.7627 24.2503 25.7573C23.6033 25.7328 22.9536 25.7138 22.3038 25.7111C22.0754 25.7111 22.0564 25.6323 22.108 25.4366C22.263 24.8495 22.3962 24.2543 22.5539 23.6672C22.611 23.4525 22.6001 23.3628 22.3418 23.3764C21.9557 23.3955 21.5669 23.3873 21.1809 23.3683C21.0042 23.3601 20.9308 23.409 20.89 23.5884C20.4333 25.5752 19.9656 27.5565 19.498 29.5405C19.4599 29.7036 19.498 29.7416 19.6584 29.7389C20.0553 29.7335 20.4551 29.7226 20.8493 29.7498C21.0749 29.7661 21.1238 29.6628 21.1646 29.4862C21.3413 28.7143 21.5289 27.9451 21.7029 27.1733C21.7409 27.002 21.8089 26.945 21.9911 26.9477C22.63 26.964 23.2689 26.9694 23.9078 26.9586C24.1226 26.9558 24.1661 27.0102 24.1172 27.2168C23.935 27.9778 23.7801 28.7442 23.5843 29.5025C23.5218 29.7444 23.606 29.7525 23.7963 29.7471C24.1824 29.7335 24.5712 29.728 24.9572 29.7416C25.1476 29.7498 25.2019 29.6737 25.2372 29.5052C25.4139 28.6953 25.607 27.8853 25.7918 27.0754C26.0692 25.8633 26.3438 24.6511 26.6292 23.4036C26.1127 23.4036 25.6206 23.409 25.1258 23.4036L25.123 23.4009Z" fill="#ffffff"/>
<path d="M29.4634 24.6023C30.2872 24.6078 31.1083 24.5942 31.9321 24.5888C32.049 24.5888 32.1604 24.6051 32.1876 24.4366C32.2447 24.105 32.3154 23.7761 32.3861 23.4201C32.2909 23.4201 32.2149 23.4201 32.1388 23.4201C30.8691 23.4146 29.6022 23.4092 28.3325 23.4065C27.8133 23.4065 27.8077 23.4065 27.6963 23.9066C27.2613 25.8281 26.8263 27.7496 26.375 29.75C27.9029 29.75 29.401 29.75 30.899 29.75C30.9942 29.75 31.0295 29.7173 31.043 29.6195C31.0865 29.2607 31.141 28.902 31.1872 28.5677C30.2846 28.5677 29.4036 28.5595 28.5228 28.5731C28.3161 28.5758 28.2754 28.516 28.3189 28.3285C28.4059 27.9426 28.4875 27.5539 28.5554 27.1653C28.5853 26.9995 28.6506 26.9533 28.8192 26.956C29.6131 26.9669 30.4069 26.956 31.2008 26.9642C31.3639 26.9642 31.4373 26.9315 31.4645 26.7549C31.5162 26.4233 31.6004 26.0972 31.6765 25.7411C31.0458 25.7411 30.4368 25.7411 29.8278 25.7411C29.5369 25.7411 29.2487 25.7303 28.9578 25.7248C28.9496 25.4204 29.0938 25.1486 29.1264 24.8524C29.1509 24.6431 29.2595 24.6023 29.458 24.6023H29.4634Z" fill="#ffffff"/>
<path d="M6.44146 26.7093C6.85199 26.5272 6.99064 26.375 7.11026 25.9864C7.47729 24.8014 6.79489 23.8501 5.55243 23.8447C4.60359 23.8393 3.65748 23.8665 2.70865 23.8665C2.5428 23.8665 2.50195 23.9127 2.50195 24.0757C2.50739 25.894 2.50739 27.7122 2.50195 29.5305C2.50195 29.7017 2.55906 29.737 2.71674 29.737C3.82871 29.7316 4.94346 29.7424 6.05542 29.737C6.48227 29.737 6.85189 29.5984 7.0857 29.2043C7.61042 28.3129 7.3468 27.2447 6.44146 26.7093ZM3.82057 24.8612C4.32353 24.8721 4.82644 24.8666 5.32941 24.8775C5.75625 24.8884 6.0363 25.2172 6.02542 25.6765C6.01455 26.1087 5.79984 26.3207 5.34853 26.3315C5.10656 26.337 4.86461 26.3315 4.62265 26.3315C4.62265 26.3343 4.62265 26.337 4.62265 26.3424C4.35077 26.3424 4.08155 26.3343 3.80968 26.3451C3.66831 26.3506 3.62483 26.3016 3.62755 26.1658C3.6357 25.788 3.6357 25.4102 3.62755 25.0351C3.62483 24.8856 3.69013 24.8612 3.81791 24.8639L3.82057 24.8612ZM5.46535 28.8048C5.18532 28.8184 4.90533 28.8048 4.6253 28.8048C4.6253 28.8075 4.6253 28.8129 4.6253 28.8157C4.35343 28.8157 4.08434 28.8075 3.81247 28.8184C3.67381 28.8238 3.62483 28.7803 3.62755 28.6417C3.6357 28.2177 3.6357 27.791 3.62755 27.367C3.62483 27.223 3.67925 27.1904 3.81247 27.1931C4.3535 27.204 4.89445 27.1958 5.43548 27.2121C5.89766 27.2257 6.18864 27.5627 6.19136 28.0628C6.19136 28.5439 5.96831 28.7803 5.46535 28.8048Z" fill="#ffffff"/>
<path d="M17.063 26.1577C16.7775 25.8017 16.3969 25.6386 15.9483 25.6278C15.5024 25.6196 15.0566 25.6142 14.6135 25.6196C14.0561 25.6251 13.6102 26.0871 13.602 26.6442C13.602 26.7801 13.6156 26.859 13.7842 26.8454C14.0261 26.8291 14.2681 26.8372 14.51 26.8454C14.6297 26.8481 14.6868 26.8291 14.7194 26.685C14.7792 26.4105 14.9995 26.2855 15.4073 26.2801C15.7064 26.2773 16.0189 26.2801 16.1929 26.598C16.2201 26.6443 16.2256 26.7095 16.2256 26.7666C16.2283 27.0465 16.2256 27.3264 16.2256 27.6417C15.6112 27.2286 14.9723 27.1063 14.2872 27.34C13.6619 27.552 13.3873 27.9869 13.4253 28.6799C13.4552 29.2235 13.8006 29.6149 14.4041 29.7426C15.0593 29.8812 15.709 29.9193 16.299 29.3159C16.1685 29.7915 16.4023 29.7942 16.6687 29.7698C16.7747 29.7616 16.8836 29.7562 16.9869 29.7698C17.2044 29.7969 17.2805 29.7317 17.2778 29.4926C17.2642 28.5929 17.2669 27.6933 17.2832 26.7937C17.2886 26.5437 17.2099 26.3426 17.0603 26.1577H17.063ZM16.2528 28.5495C16.2202 28.8403 16.0842 29.036 15.7906 29.1066C15.7688 29.1121 15.7471 29.1175 15.7226 29.1229C15.5649 29.1583 15.4073 29.1827 15.2442 29.1746C15.0647 29.18 14.888 29.18 14.7303 29.0876C14.7085 29.074 14.6869 29.0604 14.6651 29.0414C14.4775 28.8946 14.4367 28.6908 14.4639 28.4679C14.4965 28.2179 14.6705 28.0684 14.888 28.0004C15.217 27.8972 15.5596 27.8945 15.8831 28.0222C16.1087 28.1119 16.2828 28.2614 16.2501 28.5467L16.2528 28.5495Z" fill="#ffffff"/>
<path d="M8.72623 27.8272C8.82683 27.8272 8.93017 27.8299 9.03077 27.8327C9.33526 27.8327 9.63979 27.8327 9.94701 27.8327C10.0394 27.8327 10.1319 27.8327 10.2243 27.8327C10.3168 27.8327 10.4091 27.8327 10.4989 27.8272C10.7762 27.8136 11.1568 27.9522 11.3009 27.7729C11.4396 27.6016 11.3471 27.2374 11.3417 26.9575C11.3281 26.2536 10.8442 25.7019 10.1455 25.6095C9.69416 25.5497 9.23463 25.5578 8.78332 25.6013C8.04926 25.672 7.54632 26.2183 7.51913 26.9521C7.50282 27.4549 7.5001 27.9604 7.51913 28.4632C7.54632 29.1807 8.08471 29.765 8.76168 29.8031C9.20483 29.8276 9.65333 29.8276 10.0965 29.8031C10.6892 29.7732 11.2112 29.2867 11.3254 28.6996C11.3607 28.5148 11.3553 28.3762 11.097 28.4116C10.9366 28.4333 10.768 28.4279 10.6049 28.4116C10.42 28.3925 10.333 28.436 10.3167 28.6453C10.295 28.9307 10.1183 29.0666 9.82196 29.0503C9.6099 29.0394 9.39509 29.0557 9.18303 29.0557C8.79697 29.0557 8.5876 28.8736 8.5441 28.4904C8.52507 28.3273 8.54416 28.1615 8.536 27.9984C8.53057 27.8598 8.58214 27.8191 8.72079 27.8218L8.72623 27.8272ZM8.54689 27.0988C8.54961 27.0689 8.54689 27.0418 8.54689 27.0119C8.58223 26.5362 8.95739 26.2971 9.60717 26.3351C10.0884 26.365 10.3521 26.6395 10.3439 27.088C10.3439 27.2076 10.3168 27.2619 10.1836 27.2565C9.93073 27.2483 9.68053 27.2565 9.42769 27.2565C9.42769 27.2565 9.42769 27.2619 9.42769 27.2646C9.18572 27.2646 8.94378 27.2592 8.70181 27.2646C8.57131 27.2701 8.52513 27.2211 8.54145 27.0988H8.54689Z" fill="#ffffff"/>
<path d="M46.5046 28.0666C46.276 28.0666 46.0909 28.0829 45.9113 28.0611C45.7345 28.0421 45.6801 28.1237 45.6475 28.276C45.5849 28.5671 45.5086 28.8554 45.4351 29.1465C45.2882 29.7205 45.2882 29.7259 45.876 29.7177C46.1835 29.715 46.5753 29.8456 46.7712 29.6661C46.9617 29.4892 46.9591 29.1003 47.0353 28.8037C47.0951 28.5725 47.2638 28.2488 47.1713 28.1237C47.0434 27.955 46.7086 28.0965 46.5072 28.0666H46.5046Z" fill="#ffffff"/>
<path d="M119.479 15.5198C118.655 15.5198 117.983 16.1911 117.98 17.0119C117.98 17.8327 118.644 18.5094 119.468 18.5203C120.291 18.5312 120.99 17.8354 120.985 17.0092C120.977 16.1857 120.302 15.5198 119.481 15.5198H119.479ZM119.479 18.2974C118.769 18.2974 118.198 17.7131 118.206 16.9956C118.214 16.2916 118.783 15.7426 119.495 15.7454C120.194 15.7508 120.767 16.3297 120.759 17.0255C120.754 17.7185 120.172 18.2974 119.479 18.2974Z" fill="#ffffff"/>
<path d="M120.096 16.5276C120.038 16.2583 119.831 16.2257 119.606 16.223C119.451 16.223 119.295 16.2311 119.14 16.2202C118.996 16.2094 118.961 16.2692 118.963 16.4025C118.972 16.7017 118.955 17.001 118.972 17.3002C118.977 17.4144 118.882 17.6293 119.061 17.6266C119.238 17.6266 119.119 17.409 119.154 17.2947C119.181 17.2022 119.083 17.0554 119.236 17.0254C119.372 16.9982 119.532 16.9873 119.636 17.1234C119.728 17.2458 119.815 17.3736 119.9 17.5042C119.968 17.613 120.038 17.6892 120.199 17.6103C120.082 17.3872 119.938 17.1886 119.766 16.9982C119.992 16.9139 120.15 16.7915 120.096 16.5276ZM119.173 16.7942C119.11 16.7425 119.124 16.5412 119.173 16.4379C119.227 16.3209 119.383 16.4079 119.489 16.3835C119.568 16.3862 119.646 16.3835 119.72 16.3971C119.834 16.4188 119.908 16.4868 119.908 16.6147C119.908 16.7425 119.831 16.8187 119.72 16.835C119.535 16.8568 119.323 16.9248 119.173 16.7969V16.7942Z" fill="#ffffff"/>
</svg>