<svg xmlns="http://www.w3.org/2000/svg" width="101" height="33" viewBox="0 0 101 33" fill="none">
<path d="M25.1778 11.5454H13.5553V14.9944H21.7985C21.3907 19.8213 17.3669 21.8923 13.5689 21.8923C8.56367 21.914 4.49102 17.878 4.46927 12.8745C4.46927 12.8201 4.46927 12.7658 4.46927 12.7141C4.46927 7.49584 8.51203 3.47615 13.5797 3.47615C17.4893 3.47615 19.7948 5.96841 19.7948 5.96841L22.209 3.46799C22.209 3.46799 19.1096 0.019043 13.4547 0.019043C6.25546 0.019043 0.6875 6.09343 0.6875 12.6543C0.6875 19.2152 5.9265 25.3521 13.6368 25.3521C20.4201 25.3521 25.3872 20.7073 25.3872 13.8366C25.3872 12.388 25.1751 11.5509 25.1751 11.5509H25.1778V11.5454Z" fill="#ffffff"/>
<path d="M34.7025 9.04639C29.9338 9.04639 26.5137 12.7753 26.5137 17.1211C26.5137 21.467 29.8278 25.329 34.7569 25.329C39.2183 25.329 42.8723 21.9208 42.8723 17.2162C42.8723 11.8349 38.6202 9.04639 34.6998 9.04639H34.7025ZM34.7487 12.2453C37.095 12.2453 39.3162 14.1424 39.3162 17.1945C39.3162 20.2466 37.1031 22.1328 34.7378 22.1328C32.1387 22.1328 30.097 20.051 30.097 17.17C30.097 14.2891 32.1197 12.2453 34.7569 12.2453H34.7487Z" fill="#ffffff"/>
<path d="M52.5072 9.04639C47.7385 9.04639 44.3184 12.7753 44.3184 17.1211C44.3184 21.467 47.6325 25.329 52.5616 25.329C57.023 25.329 60.677 21.9208 60.677 17.2162C60.677 11.8349 56.4249 9.04639 52.5045 9.04639H52.5072ZM52.5534 12.2453C54.8997 12.2453 57.1209 14.1424 57.1209 17.1945C57.1209 20.2466 54.9078 22.1328 52.5425 22.1328C49.9434 22.1328 47.9017 20.051 47.9017 17.17C47.9017 14.2891 49.9244 12.2453 52.5616 12.2453H52.5534Z" fill="#ffffff"/>
<path d="M69.9734 9.05811C65.5962 9.05811 62.1543 12.8903 62.1543 17.1926C62.1543 22.0929 66.1427 25.3435 69.8972 25.3435C72.219 25.3435 73.4534 24.4221 74.3533 23.3649V24.9711C74.3533 27.7814 72.6459 29.4637 70.0712 29.4637C67.4966 29.4637 66.3357 27.6129 65.8926 26.5665L62.7633 27.8656C63.8725 30.2138 66.1101 32.6599 70.0985 32.6599C74.462 32.6599 77.768 29.9203 77.768 24.1721V9.55004H74.3669V10.928C73.3174 9.79464 71.8819 9.06082 69.9761 9.06082L69.9734 9.05811ZM70.2888 12.2516C72.4338 12.2516 74.6387 14.0834 74.6387 17.2116C74.6387 20.3399 72.4393 22.1445 70.2425 22.1445C67.9099 22.1445 65.7376 20.2502 65.7376 17.2415C65.7376 14.2329 67.9942 12.2516 70.2915 12.2516H70.2888Z" fill="#ffffff"/>
<path d="M92.9711 9.03857C88.8414 9.03857 85.375 12.3245 85.375 17.1677C85.375 22.2962 89.2383 25.3375 93.3599 25.3375C96.8046 25.3375 98.9306 23.454 100.184 21.7635L97.3673 19.8909C96.636 21.0243 95.4153 22.1332 93.3762 22.1332C91.0871 22.1332 90.0349 20.8802 89.3824 19.6654L100.304 15.1374L99.7462 13.8111C98.6914 11.2129 96.2309 9.04129 92.9738 9.04129L92.9711 9.03857ZM93.1125 12.1695C94.5997 12.1695 95.6709 12.9604 96.1249 13.909L88.8305 16.9557C88.5151 14.5966 90.7527 12.1695 93.1017 12.1695H93.1098H93.1125Z" fill="#ffffff"/>
<path d="M80.1562 24.8548H83.7422V0.858887H80.1562V24.8548Z" fill="#ffffff"/>
</svg>