<svg xmlns="http://www.w3.org/2000/svg" width="132" height="34" viewBox="0 0 132 34" fill="none">
<path d="M60.3359 7.57072V0.922852H61.9536V7.57072H60.3359Z" fill="#fffeff"/>
<path d="M67.6144 7.57072L64.9365 3.22216H64.9092L64.9473 7.57072H63.3867V0.922852H65.2191L67.889 5.26326H67.9162L67.8781 0.922852H69.4386V7.57072H67.6144Z" fill="#fffeff"/>
<path d="M72.5545 2.29265V3.66245H75.1292V4.98604H72.5545V7.57072H70.9668V0.922852H75.3466V2.29537H72.5545V2.29265Z" fill="#fffeff"/>
<path d="M83.2388 4.21539C83.2388 4.74265 83.1463 5.22099 82.9669 5.65857C82.7875 6.0907 82.5346 6.46848 82.2111 6.7756C81.8876 7.08815 81.5069 7.32732 81.0611 7.49583C80.6125 7.66433 80.1313 7.74859 79.6147 7.74859C79.0982 7.74859 78.6142 7.66433 78.1711 7.49583C77.7306 7.32732 77.35 7.08815 77.0265 6.7756C76.703 6.46848 76.4528 6.09342 76.2707 5.65857C76.0858 5.22371 75.9961 4.74265 75.9961 4.21539C75.9961 3.68813 76.0885 3.20162 76.2707 2.7722C76.4528 2.3455 76.703 1.97859 77.0265 1.67963C77.35 1.37795 77.7306 1.14421 78.1711 0.981142C78.6142 0.818071 79.0927 0.739258 79.6147 0.739258C80.1367 0.739258 80.6152 0.820789 81.0611 0.981142C81.5069 1.14421 81.8876 1.37795 82.2111 1.67963C82.5346 1.98131 82.7875 2.3455 82.9669 2.7722C83.1463 3.20162 83.2388 3.68269 83.2388 4.21539ZM81.5206 4.21539C81.5206 3.9273 81.4744 3.65823 81.3792 3.40819C81.2868 3.15814 81.1562 2.94343 80.9904 2.76134C80.8245 2.58196 80.6234 2.44606 80.3895 2.34007C80.1557 2.23679 79.8948 2.18516 79.6147 2.18516C79.3347 2.18516 79.0764 2.23407 78.8426 2.34007C78.6115 2.44606 78.4103 2.58196 78.2418 2.76134C78.0732 2.94072 77.9427 3.15814 77.8529 3.40819C77.7632 3.65823 77.717 3.9273 77.717 4.21539C77.717 4.50348 77.7632 4.79429 77.8584 5.04705C77.9508 5.29981 78.0814 5.51996 78.2499 5.70205C78.4158 5.88415 78.6142 6.02547 78.8453 6.12875C79.0764 6.23203 79.3347 6.28639 79.6175 6.28639C79.9002 6.28639 80.1557 6.23203 80.3868 6.12875C80.6152 6.02819 80.8164 5.88415 80.9877 5.70205C81.1562 5.51996 81.2895 5.29981 81.3819 5.04705C81.4771 4.79429 81.5232 4.51707 81.5232 4.21539H81.5206Z" fill="#fffeff"/>
<path d="M89.0985 7.45352C88.6662 7.65193 88.166 7.74978 87.6059 7.74978C87.0894 7.74978 86.6163 7.66552 86.1813 7.49701C85.7463 7.3285 85.3684 7.08933 85.0476 6.77678C84.7268 6.46966 84.4767 6.09732 84.2945 5.66518C84.1151 5.23576 84.0254 4.75742 84.0254 4.23831C84.0254 3.7192 84.1178 3.22184 84.3 2.7897C84.4849 2.35757 84.7404 1.99065 85.0666 1.68625C85.3929 1.38185 85.7735 1.14812 86.2112 0.985048C86.6516 0.821977 87.1248 0.743164 87.6332 0.743164C88.1035 0.743164 88.5656 0.824695 89.017 0.993201C89.471 1.15899 89.8407 1.40088 90.1235 1.71887L89.0333 2.80872C88.8837 2.60217 88.6853 2.44997 88.4406 2.34669C88.1959 2.24885 87.9485 2.19721 87.6902 2.19721C87.4102 2.19721 87.1492 2.24885 86.9154 2.35213C86.6788 2.45812 86.4777 2.59674 86.3091 2.78155C86.1433 2.96365 86.0073 3.17835 85.9149 3.42296C85.8225 3.673 85.7735 3.94207 85.7735 4.23831C85.7735 4.53456 85.8197 4.8145 85.9149 5.06454C86.0101 5.3173 86.1378 5.52929 86.3064 5.71139C86.4722 5.88805 86.6707 6.02665 86.9018 6.12993C87.1356 6.23049 87.3884 6.27942 87.663 6.27942C87.9811 6.27942 88.2612 6.21419 88.4977 6.08917C88.7369 5.96415 88.9299 5.80379 89.0713 5.60267L90.1887 6.65448C89.8951 6.99421 89.5335 7.26056 89.1012 7.45896L89.0985 7.45352Z" fill="#fffeff"/>
<path d="M97.7349 4.21539C97.7349 4.74265 97.6451 5.22099 97.463 5.65857C97.2808 6.0907 97.028 6.46848 96.7072 6.7756C96.3836 7.08815 96.0003 7.32732 95.5544 7.49583C95.1086 7.66433 94.6273 7.74859 94.1081 7.74859C93.5888 7.74859 93.1049 7.66433 92.6645 7.49583C92.224 7.32732 91.8406 7.08815 91.5198 6.7756C91.199 6.46848 90.9462 6.09342 90.7641 5.65857C90.5819 5.22371 90.4922 4.74265 90.4922 4.21539C90.4922 3.68813 90.5819 3.20162 90.7641 2.7722C90.9489 2.3455 91.199 1.97859 91.5198 1.67963C91.8433 1.37795 92.224 1.14421 92.6645 0.981142C93.1049 0.818071 93.5888 0.739258 94.1081 0.739258C94.6273 0.739258 95.1086 0.820789 95.5544 0.981142C96.0003 1.14421 96.3809 1.37795 96.7072 1.67963C97.028 1.98131 97.2808 2.3455 97.463 2.7722C97.6451 3.20162 97.7349 3.68269 97.7349 4.21539ZM96.0139 4.21539C96.0139 3.9273 95.9677 3.65823 95.8725 3.40819C95.7774 3.15814 95.6496 2.94343 95.481 2.76134C95.3152 2.58196 95.1167 2.44606 94.8802 2.34007C94.6437 2.23679 94.3881 2.18516 94.1053 2.18516C93.8226 2.18516 93.5671 2.23407 93.3333 2.34007C93.1022 2.44606 92.9037 2.58196 92.7324 2.76134C92.5639 2.94072 92.436 3.15814 92.3409 3.40819C92.2512 3.65823 92.2049 3.9273 92.2049 4.21539C92.2049 4.50348 92.2512 4.79429 92.3463 5.04705C92.4415 5.29981 92.5692 5.51996 92.7378 5.70205C92.9036 5.88415 93.1022 6.02547 93.3333 6.12875C93.5671 6.23203 93.8226 6.28639 94.1053 6.28639C94.3881 6.28639 94.6409 6.23203 94.8748 6.12875C95.1058 6.02819 95.307 5.88415 95.4756 5.70205C95.6469 5.51996 95.7774 5.29981 95.8725 5.04705C95.9677 4.79429 96.0139 4.51707 96.0139 4.21539Z" fill="#fffeff"/>
<path d="M104.645 7.57072L104.68 2.8634H104.653L102.924 7.57072H101.793L100.113 2.8634H100.086L100.124 7.57072H98.6094V0.922852H100.896L102.413 5.18445H102.451L103.9 0.922852H106.225V7.57072H104.648H104.645Z" fill="#fffeff"/>
<path d="M113.707 7.57072L113.745 2.8634H113.718L111.986 7.57072H110.86L109.177 2.8634H109.15L109.188 7.57072H107.674V0.922852H109.96L111.475 5.18445H111.513L112.962 0.922852H115.286V7.57072H113.707Z" fill="#fffeff"/>
<path d="M66.3692 16.1801L66.4046 11.4755H66.3774L64.651 16.1801H63.5227L61.8425 11.4755H61.8153L61.8534 16.1801H60.3418V9.53223H62.6282L64.1426 13.7965H64.1807L65.6297 9.53223H67.9543V16.1801H66.3774H66.3692Z" fill="#fffeff"/>
<path d="M69.1445 16.1801V9.53223H73.6141V10.8857H70.6915V12.1441H73.4564V13.4323H70.6915V14.813H73.7854V16.1828H69.1445V16.1801Z" fill="#fffeff"/>
<path d="M80.9818 12.8371C80.9818 13.4188 80.8731 13.9215 80.6583 14.3428C80.4435 14.7641 80.1581 15.112 79.8046 15.3865C79.4485 15.6583 79.0488 15.8594 78.6056 15.9871C78.1625 16.1176 77.7112 16.1801 77.2517 16.1801H74.7695V9.53223H77.1783C77.6486 9.53223 78.1081 9.58658 78.5676 9.69529C79.0271 9.80672 79.4349 9.9861 79.7883 10.2416C80.1445 10.4943 80.4353 10.8341 80.6528 11.2581C80.8731 11.682 80.9818 12.212 80.9818 12.8371ZM79.3098 12.8371C79.3098 12.4621 79.25 12.1495 79.1277 11.9022C79.0053 11.6521 78.8422 11.4592 78.6383 11.3097C78.4371 11.1602 78.2033 11.0569 77.945 10.9971C77.6813 10.9319 77.4149 10.902 77.1403 10.902H76.341V14.7913H77.1022C77.3931 14.7913 77.6677 14.7586 77.9341 14.6934C78.2005 14.6282 78.4371 14.5168 78.6383 14.37C78.8422 14.2205 79.0053 14.0167 79.1277 13.7666C79.25 13.5166 79.3098 13.2068 79.3098 12.8371Z" fill="#fffeff"/>
<path d="M81.8438 16.1801V9.53223H83.4587V16.1801H81.8438Z" fill="#fffeff"/>
<path d="M89.5162 16.1801L88.9996 14.8755H86.425L85.9357 16.1801H84.1875L86.9796 9.53223H88.5402L91.3025 16.1801H89.5162ZM87.73 11.307L86.8845 13.59H88.5565L87.73 11.307Z" fill="#fffeff"/>
<path d="M66.5451 21.4465C66.5451 22.0281 66.4391 22.5336 66.2216 22.9549C66.0041 23.3762 65.7186 23.7241 65.3652 23.9986C65.009 24.2703 64.6094 24.4715 64.1662 24.5992C63.7231 24.7297 63.2691 24.7922 62.8123 24.7922H60.3301V18.1416H62.7362C63.2038 18.1416 63.6687 18.196 64.1254 18.3074C64.5822 18.4188 64.99 18.5982 65.3461 18.851C65.7023 19.1037 65.9905 19.4434 66.2107 19.8701C66.4282 20.2941 66.5397 20.8241 66.5397 21.4465H66.5451ZM64.8704 21.4465C64.8704 21.0714 64.8133 20.7616 64.6882 20.5143C64.5659 20.2697 64.4055 20.0686 64.1988 19.9218C63.9976 19.7723 63.7639 19.669 63.5029 19.6038C63.2446 19.544 62.9754 19.5114 62.7008 19.5114H61.9015V23.4006H62.6628C62.951 23.4006 63.2283 23.368 63.4947 23.3028C63.7612 23.2348 63.9949 23.1289 64.1988 22.9767C64.4027 22.8245 64.5659 22.6261 64.6882 22.3733C64.8106 22.1233 64.8704 21.8134 64.8704 21.4438V21.4465Z" fill="#fffeff"/>
<path d="M67.4805 24.7883V18.1377H71.9555V19.4912H69.0329V20.7496H71.7951V22.0378H69.0329V23.4185H72.1241V24.7883H67.4805Z" fill="#fffeff"/>
<path d="M76.845 24.7883H75.2383L72.7207 18.1377H74.5259L76.0675 22.8559H76.1055L77.6389 18.1377H79.4143L76.8477 24.7883H76.845Z" fill="#fffeff"/>
<path d="M80.2148 24.7883V18.1377H84.6871V19.4912H81.7645V20.7496H84.5267V22.0378H81.7645V23.4185H84.8557V24.7883H80.2148Z" fill="#fffeff"/>
<path d="M85.9062 24.7883V18.1377H87.5239V23.3913H90.0985V24.791H85.9062V24.7883Z" fill="#fffeff"/>
<path d="M97.8614 21.4341C97.8614 21.9614 97.769 22.4397 97.5868 22.8773C97.4074 23.3122 97.1545 23.6845 96.8337 23.9944C96.5102 24.3042 96.1241 24.5434 95.681 24.7146C95.2351 24.8831 94.7511 24.9673 94.2319 24.9673C93.7126 24.9673 93.2314 24.8831 92.791 24.7146C92.3478 24.5461 91.9672 24.3069 91.6437 23.9944C91.3202 23.6845 91.07 23.3122 90.8879 22.8773C90.7057 22.4397 90.6133 21.9614 90.6133 21.4341C90.6133 20.9069 90.7057 20.4231 90.8879 19.9937C91.07 19.5615 91.3202 19.2001 91.6437 18.8957C91.9672 18.594 92.3478 18.363 92.791 18.1999C93.2314 18.0368 93.7126 17.958 94.2319 17.958C94.7511 17.958 95.2351 18.0368 95.681 18.1999C96.1241 18.363 96.5102 18.594 96.8337 18.8957C97.1545 19.1974 97.4074 19.5615 97.5868 19.9937C97.769 20.4204 97.8614 20.9014 97.8614 21.4341ZM96.1404 21.4341C96.1404 21.146 96.0942 20.877 95.999 20.6242C95.9039 20.3769 95.7734 20.1595 95.6076 19.9828C95.4417 19.8061 95.2405 19.6621 95.004 19.5615C94.7702 19.4555 94.5092 19.4066 94.2292 19.4066C93.9492 19.4066 93.6909 19.4555 93.4598 19.5615C93.2287 19.6648 93.0248 19.8061 92.859 19.9828C92.6877 20.1622 92.5598 20.3769 92.4674 20.6242C92.375 20.877 92.3288 21.1433 92.3288 21.4341C92.3288 21.7249 92.3777 22.013 92.4701 22.2658C92.5653 22.5186 92.6958 22.736 92.8617 22.9181C93.0275 23.1029 93.226 23.2442 93.4571 23.3475C93.6882 23.4481 93.9437 23.5024 94.2265 23.5024C94.5092 23.5024 94.7648 23.4481 94.9958 23.3475C95.2269 23.2415 95.4281 23.1029 95.5967 22.9181C95.7652 22.736 95.8985 22.5213 95.9909 22.2658C96.0861 22.013 96.1323 21.7358 96.1323 21.4341H96.1404Z" fill="#fffeff"/>
<path d="M103.832 20.187C103.832 20.5756 103.762 20.9017 103.618 21.1681C103.473 21.4344 103.28 21.6519 103.036 21.8122C102.791 21.9753 102.508 22.0949 102.19 22.171C101.869 22.2416 101.538 22.2797 101.195 22.2797H100.396V24.7883H98.7891V18.1377H101.233C101.598 18.1377 101.937 18.173 102.253 18.2464C102.568 18.3198 102.843 18.4339 103.079 18.5943C103.316 18.7546 103.498 18.9639 103.634 19.2221C103.77 19.483 103.835 19.8037 103.835 20.1842L103.832 20.187ZM102.223 20.1978C102.223 20.0429 102.193 19.9152 102.13 19.8146C102.068 19.7113 101.984 19.6352 101.875 19.5782C101.769 19.5238 101.649 19.4858 101.513 19.4667C101.38 19.4477 101.239 19.4368 101.095 19.4368H100.388V21.005H101.062C101.214 21.005 101.358 20.9914 101.497 20.967C101.633 20.9425 101.755 20.8963 101.867 20.8338C101.975 20.7713 102.065 20.6898 102.128 20.5838C102.19 20.4805 102.22 20.3527 102.22 20.1951L102.223 20.1978Z" fill="#fffeff"/>
<path d="M110.566 24.7883L110.607 20.0837H110.577L108.851 24.7883H107.723L106.04 20.0837H106.013L106.051 24.7883H104.539V18.1377H106.825L108.34 22.402H108.378L109.827 18.1377H112.154V24.7883H110.572H110.566Z" fill="#fffeff"/>
<path d="M113.561 24.7883V18.1377H118.034V19.4912H115.111V20.7496H117.873V22.0378H115.111V23.4185H118.202V24.7883H113.559H113.561Z" fill="#fffeff"/>
<path d="M123.482 24.7883L120.804 20.4397H120.776L120.814 24.7883H119.254V18.1377H121.086L123.756 22.4781H123.783L123.745 18.1377H125.306V24.7883H123.484H123.482Z" fill="#fffeff"/>
<path d="M129.572 19.5102V24.7883H127.965V19.5102H126.084V18.1377H131.451V19.5102H129.572Z" fill="#fffeff"/>
<path d="M65.6705 33.4043L65.1539 32.0997H62.5793L62.0872 33.4043H60.3418L63.1312 26.751H64.6918L67.4567 33.4043H65.6705ZM63.8843 28.5285L63.0388 30.8114H64.7135L63.8843 28.5285Z" fill="#fffeff"/>
<path d="M73.2066 31.991C73.0707 32.3198 72.8776 32.6025 72.6248 32.8362C72.3746 33.0727 72.0729 33.2548 71.7195 33.388C71.3633 33.5211 70.9718 33.5864 70.5395 33.5864C70.1072 33.5864 69.7048 33.5211 69.3541 33.388C69.0034 33.2548 68.7071 33.0727 68.4624 32.8362C68.2177 32.6025 68.0301 32.3198 67.8996 31.991C67.7664 31.6594 67.7012 31.2979 67.7012 30.8957V26.751H69.297V30.7625C69.297 30.9446 69.3215 31.1158 69.3677 31.2789C69.4139 31.442 69.4874 31.5888 69.5852 31.7165C69.6831 31.8469 69.8109 31.9475 69.9713 32.0209C70.129 32.097 70.3247 32.135 70.5504 32.135C70.7761 32.135 70.9691 32.097 71.1267 32.0209C71.2871 31.9448 71.415 31.8442 71.5183 31.7165C71.6189 31.5888 71.6895 31.4447 71.7357 31.2789C71.7792 31.1158 71.801 30.9446 71.801 30.7625V26.751H73.4078V30.8957C73.4078 31.2952 73.3398 31.6594 73.2066 31.991Z" fill="#fffeff"/>
<path d="M77.6619 28.1235V33.4043H76.0524V28.1235H74.1738V26.751H79.5406V28.1235H77.6619Z" fill="#fffeff"/>
<path d="M84.4641 33.4043V30.6212H81.8704V33.4043H80.2637V26.751H81.8704V29.2704H84.4641V26.751H86.0709V33.4043H84.4641Z" fill="#fffeff"/>
<path d="M94.0892 30.0501C94.0892 30.5774 94.0022 31.0557 93.8173 31.4906C93.6379 31.9282 93.3823 32.3005 93.0615 32.6103C92.738 32.9202 92.3547 33.1593 91.9088 33.3306C91.4656 33.4964 90.9817 33.5833 90.4624 33.5833C89.9431 33.5833 89.4592 33.4936 89.0187 33.3306C88.5783 33.1593 88.195 32.9202 87.8714 32.6103C87.5479 32.3005 87.2951 31.9282 87.1156 31.4906C86.9335 31.0585 86.8438 30.5774 86.8438 30.0501C86.8438 29.5229 86.9335 29.0364 87.1156 28.607C87.2978 28.1775 87.5506 27.8133 87.8714 27.5117C88.195 27.21 88.5756 26.979 89.0187 26.8186C89.4592 26.6555 89.9404 26.5713 90.4624 26.5713C90.9844 26.5713 91.4656 26.6528 91.9088 26.8186C92.3519 26.9817 92.738 27.21 93.0615 27.5117C93.3823 27.8133 93.6379 28.1775 93.8173 28.607C94.0022 29.0337 94.0892 29.5174 94.0892 30.0501ZM92.371 30.0501C92.371 29.762 92.3247 29.493 92.2323 29.2402C92.1371 28.9902 92.0094 28.7755 91.8408 28.5961C91.675 28.4194 91.4738 28.2781 91.2373 28.1748C91.0035 28.0715 90.7452 28.0172 90.4651 28.0172C90.1851 28.0172 89.9241 28.0688 89.693 28.1748C89.4619 28.2781 89.2607 28.4167 89.0921 28.5961C88.9209 28.7755 88.7931 28.9902 88.7007 29.2402C88.6109 29.493 88.5647 29.762 88.5647 30.0501C88.5647 30.3382 88.6137 30.6263 88.7061 30.8791C88.7985 31.1345 88.929 31.352 89.0976 31.5314C89.2634 31.7135 89.4619 31.8575 89.693 31.9581C89.9241 32.0613 90.1824 32.1157 90.4651 32.1157C90.7479 32.1157 91.0035 32.0613 91.2345 31.9581C91.4684 31.8548 91.6668 31.7135 91.8381 31.5314C92.0067 31.352 92.1371 31.1345 92.2323 30.8791C92.3275 30.6263 92.371 30.3491 92.371 30.0501Z" fill="#fffeff"/>
<path d="M98.5193 33.4043L97.073 30.7652H96.5238V33.4043H94.9551V26.751H97.4917C97.8098 26.751 98.1224 26.7863 98.4269 26.8515C98.7314 26.9168 99.0033 27.0309 99.2425 27.1831C99.4845 27.3408 99.6775 27.5473 99.8216 27.8055C99.963 28.0637 100.036 28.379 100.036 28.7622C100.036 29.2134 99.9141 29.5911 99.6694 29.8982C99.4247 30.2054 99.0875 30.4255 98.6552 30.556L100.393 33.4043H98.5139H98.5193ZM98.4541 28.7921C98.4541 28.6344 98.4215 28.5067 98.3535 28.4116C98.2882 28.311 98.2013 28.2404 98.1007 28.186C97.9974 28.1316 97.8804 28.0963 97.7499 28.0746C97.6194 28.0583 97.4971 28.0474 97.3747 28.0474H96.5184V29.5993H97.2823C97.4155 29.5993 97.5515 29.5911 97.6929 29.5667C97.8288 29.5449 97.9538 29.5042 98.068 29.4498C98.1822 29.3927 98.2746 29.3139 98.3453 29.2079C98.4187 29.0992 98.4568 28.966 98.4568 28.7948L98.4541 28.7921Z" fill="#fffeff"/>
<path d="M101.188 33.4043V26.751H102.802V33.4043H101.188Z" fill="#fffeff"/>
<path d="M107.024 28.1235V33.4043H105.415V28.1235H103.533V26.751H108.9V28.1235H107.021H107.024Z" fill="#fffeff"/>
<path d="M113.523 30.5831V33.4043H111.918V30.5831L109.42 26.751H111.364L112.783 29.2134L114.199 26.751H116.081L113.523 30.5831Z" fill="#fffeff"/>
<path d="M16.248 29.6221V4.79188L23.4309 0.918945V33.4027L16.248 29.6221Z" fill="#fffeff"/>
<path d="M0.927734 33.4027V0.918945L8.11068 4.79188V29.6221L0.927734 33.4027Z" fill="#fffeff"/>
<path d="M39.8885 33.401H31.5664V12.5361L39.8885 33.401Z" fill="#fffeff"/>
<path d="M43.8418 33.401H52.1638V12.5361L43.8418 33.401Z" fill="#fffeff"/>
<path d="M34.6094 0.926758H49.1192L41.8629 17.1414L34.6094 0.926758Z" fill="#fffeff"/>
</svg>