<svg xmlns="http://www.w3.org/2000/svg" width="161" height="26" viewBox="0 0 161 26" fill="none">
<path d="M156.115 1.79503C154.878 1.15905 153.573 0.841064 152.266 0.841064C149.37 0.841064 146.546 2.39296 145.099 5.1108C145.099 5.14614 145.099 5.18147 145.135 5.18147L148.843 7.19268L144.678 8.46463L145.314 10.5818L151.14 8.81795L147.467 15.7023L149.408 16.7269L153.081 9.84258L154.846 15.6316L156.964 14.9956L155.691 10.8319L159.435 12.8077C159.47 12.8077 159.506 12.8078 159.506 12.7724C161.588 8.81795 160.071 3.8769 156.115 1.79503Z" fill="#fffeff"/>
<path d="M15.0332 25.6152H25.8429V22.5631H18.5458V19.337H25.174V16.505H18.5458V13.4093H25.8429V10.3137H15.0332V25.6152Z" fill="#fffeff"/>
<path d="M58.9357 16.2848L54.9772 10.3137H50.5293L57.0679 19.6006L53.8652 25.6152H57.8699L65.9636 10.3137H61.9616L58.9357 16.2848Z" fill="#fffeff"/>
<path d="M72.0584 13.1906C73.8827 13.1906 74.9485 13.8972 75.2611 15.3132L75.3046 15.4029L78.7302 15.0496L78.6867 14.9164C78.287 12.7041 76.8189 10.095 72.1917 10.095C70.6338 10.095 69.1222 10.4918 68.0538 11.2011C66.7651 12.041 66.0527 13.2803 66.0527 14.7398C66.0527 17.3924 67.6541 18.8519 71.3896 19.6482C73.7033 20.1782 74.5026 20.488 74.5026 21.5507C74.5026 22.7004 73.3906 22.877 72.7245 22.877C71.1232 22.877 70.1879 22.1242 70.0547 20.6647V20.5315H66.5394V20.6647C66.7161 23.85 69.0298 25.796 72.5451 25.796C76.0604 25.796 78.0614 24.2033 78.0614 21.5072C78.0614 18.6779 75.9707 17.6587 72.6348 16.9521C70.0547 16.4221 69.5218 15.7128 69.5218 14.786C69.6116 13.7695 70.8568 13.1933 72.0584 13.1933V13.1906Z" fill="#fffeff"/>
<path d="M89.2269 22.0331L85.3147 10.3137H80.5977V25.6152H83.9335V15.3553L87.5386 25.5282L87.5821 25.6152H90.8283L94.4768 15.2656V25.6152H97.7692V10.3137H93.0984L89.2269 22.0331Z" fill="#fffeff"/>
<path d="M108.711 10.3164H104.62L99.0137 25.6179H102.662L103.774 22.3456H109.513L110.625 25.6179H114.274L108.714 10.4034V10.3137L108.711 10.3164ZM104.796 19.5164L106.71 14.0317L108.578 19.5164H104.796Z" fill="#fffeff"/>
<path d="M142.915 10.3137H138.513L133.663 16.1951V10.3137H130.15V25.6152H133.663V20.8399L134.775 19.5571L139.179 25.5717L139.223 25.6152H143.317L136.999 17.035L142.915 10.3137Z" fill="#fffeff"/>
<path d="M31.4924 10.3137H27.9336V25.6152H38.8738V22.4761H31.4924V10.3137Z" fill="#fffeff"/>
<path d="M44.3889 10.3137H40.8301V25.6152H51.773V22.4761H44.3889V10.3137Z" fill="#fffeff"/>
<path d="M121.743 13.0581C123.521 13.0581 124.679 13.9414 125.079 15.7569L125.122 15.8466L128.681 15.4933L128.638 15.3601C128.015 12.0443 125.478 10.1418 121.699 10.1418C116.985 10.1418 114.049 13.1505 114.049 17.9258V18.0155C114.049 22.8369 116.985 25.7994 121.699 25.7994C125.481 25.7994 127.971 23.8969 128.638 20.5811L128.681 20.4479L125.122 20.0946L125.079 20.2278C124.633 21.9971 123.521 22.9266 121.743 22.9266C119.163 22.9266 117.651 21.1573 117.651 18.0182V17.9747C117.651 14.8791 119.163 13.0662 121.743 13.0662V13.0581Z" fill="#fffeff"/>
<path d="M9.20634 19.6441C9.20634 21.8102 8.40432 22.8294 6.62627 22.8294C4.84821 22.8294 4.00271 21.7232 4.00271 19.5136V19.0706L0.400391 18.7173V19.5136C0.400391 23.5823 2.62429 25.8381 6.62899 25.8381C10.6337 25.8381 12.7679 23.6257 12.7679 19.7338V10.3137H9.20906V19.6468L9.20634 19.6441Z" fill="#fffeff"/>
</svg>