<svg xmlns="http://www.w3.org/2000/svg" width="141" height="30" viewBox="0 0 141 30" fill="none">
<path d="M94.2691 11.1139C94.6498 10.6628 94.9923 10.2333 95.3647 9.83109C96.6154 8.47489 98.2058 8.02372 99.9975 8.07264C100.693 8.09167 100.984 8.39606 100.973 9.11358C100.944 11.171 100.963 13.2284 101.028 15.3157C102.007 12.2201 103.796 9.76042 106.857 8.57816C109.948 7.38231 112.917 7.71117 115.41 10.1491C115.453 10.1219 115.527 10.0974 115.53 10.0703C115.598 9.06284 116.138 8.55913 117.147 8.55913C119.222 8.55913 121.299 8.57816 123.373 8.54827C123.996 8.54011 124.259 8.66513 124.257 9.36633C124.23 15.7016 124.235 22.0397 124.251 28.375C124.251 28.9376 124.102 29.174 123.506 29.174C121.095 29.1686 118.683 29.193 116.275 29.2148C115.734 29.2202 115.524 28.9675 115.546 28.4402C115.557 28.1766 115.633 27.8885 115.429 27.5895C114.632 28.2037 113.912 28.8968 112.941 29.2447C108.58 30.7966 103.785 28.6549 101.805 24.2357C100.903 22.2163 100.427 20.1154 100.691 17.8922C100.753 17.3595 100.416 17.1638 100.019 17.1013C97.2815 16.6746 94.9651 17.3949 94.4404 20.7568C94.0652 23.1676 94.3426 25.6028 94.28 28.0271C94.2501 29.2039 94.2718 29.2175 93.1272 29.2121C90.8571 29.2039 88.5869 29.1631 86.3141 29.1767C85.7622 29.1795 85.5664 29.0082 85.5664 28.4647C85.5773 22.0451 85.5773 15.6255 85.5664 9.20598C85.5664 8.67872 85.7785 8.54555 86.2679 8.54827C88.7066 8.56457 91.148 8.56729 93.5867 8.54827C94.0924 8.54555 94.2991 8.7059 94.2746 9.21958C94.2447 9.85012 94.2664 10.4834 94.2664 11.1166L94.2691 11.1139ZM115.714 18.8543C115.72 17.0742 114.404 15.8185 112.536 15.8212C110.723 15.8212 109.412 17.0769 109.407 18.8163C109.399 20.5612 110.777 21.9418 112.539 21.9554C114.265 21.969 115.712 20.5584 115.714 18.8543Z" fill="#ffffff"/>
<path d="M47.1395 10.5218C48.6457 8.33934 50.1491 6.15419 51.6553 3.97175C52.3214 3.00692 53.0092 2.05295 53.6617 1.07725C53.9227 0.685876 54.2408 0.525526 54.7084 0.528244C57.6827 0.539115 60.6571 0.530962 63.6314 0.536397C63.8435 0.536397 64.1153 0.449419 64.2377 0.699461C64.3573 0.94135 64.1343 1.11258 64.0066 1.28652C61.0187 5.33339 58.0497 9.39386 55.0211 13.4081C54.4528 14.1637 54.4285 14.6447 55.0103 15.4166C58.2619 19.7217 61.4483 24.0757 64.6509 28.4161C64.7869 28.6009 65.0995 28.7667 64.9282 29.0466C64.7787 29.2912 64.4687 29.2015 64.224 29.2015C61.0811 29.207 57.9383 29.1961 54.7982 29.2179C54.1973 29.2233 53.8167 28.9977 53.4823 28.5139C51.4868 25.6113 49.4722 22.7249 47.463 19.8331C47.357 19.6809 47.3108 19.4689 47.0661 19.42C46.8812 19.6673 46.9764 19.9527 46.9764 20.2163C46.9682 22.926 46.9547 25.633 46.9846 28.3427C46.9928 28.9597 46.7997 29.1934 46.1825 29.1934C43.6568 29.1825 41.1339 29.1934 38.6082 29.207C38.0291 29.2097 37.798 28.9406 37.8198 28.3862C37.8333 28.0247 37.8198 27.6605 37.8198 27.2963C37.8198 18.7786 37.8198 10.2609 37.8198 1.74583C37.8198 0.53911 37.8306 0.530956 39.035 0.530956C41.3649 0.530956 43.6921 0.552705 46.0194 0.520091C46.7616 0.509219 46.99 0.77828 46.9818 1.49851C46.9519 4.48271 46.9683 7.46963 46.9683 10.4565C47.0254 10.4783 47.0824 10.5 47.1367 10.5218H47.1395Z" fill="#ffffff"/>
<path d="M75.8908 10.0772C76.0975 9.05896 76.7427 8.54982 77.8266 8.54982C79.8738 8.54982 81.9211 8.57156 83.9683 8.53623C84.6045 8.52536 84.7947 8.74551 84.7947 9.35159C84.7811 15.6597 84.7811 21.9706 84.7947 28.2787C84.7947 28.9609 84.5447 29.2245 83.8568 29.2163C81.641 29.1919 79.4252 29.2191 77.2095 29.1973C76.054 29.1864 76.054 29.1593 76.0024 27.9716C75.9969 27.8628 75.9752 27.7569 75.9453 27.5584C75.2058 28.0966 74.6104 28.7271 73.8084 29.0723C69.6705 30.8552 64.8121 29.1022 62.6099 24.827C60.1875 20.1197 60.492 15.4939 63.6838 11.2024C66.1034 7.94918 71.1169 6.98162 74.5044 9.02001C74.9938 9.31354 75.4178 9.71578 75.8882 10.08L75.8908 10.0772ZM76.1655 18.8804C76.1791 17.111 74.8497 15.8146 73.0145 15.8119C71.2202 15.8119 69.8689 17.0839 69.8553 18.7852C69.8417 20.5056 71.2337 21.9189 72.9655 21.9488C74.7191 21.9787 76.1519 20.6035 76.1655 18.8776V18.8804Z" fill="#ffffff"/>
<path d="M131.729 2.72024C132.907 2.72024 134.086 2.73926 135.264 2.71209C135.837 2.6985 136.055 2.8969 136.041 3.49211C136.011 4.91626 136.085 6.34042 136.036 7.76185C136.011 8.43588 136.283 8.57449 136.87 8.55818C137.852 8.52828 138.836 8.57177 139.815 8.54187C140.407 8.52285 140.696 8.7131 140.69 9.34364C140.671 11.1293 140.674 12.9176 140.69 14.706C140.696 15.312 140.459 15.5566 139.839 15.5376C138.831 15.505 137.819 15.5512 136.811 15.5213C136.251 15.505 135.995 15.649 136.019 16.2687C136.063 17.3287 135.992 18.3913 136.036 19.4513C136.112 21.3348 137.091 22.1664 138.898 21.9436C139.01 21.93 139.116 21.8892 139.228 21.8784C139.692 21.8403 140.16 21.256 140.535 21.574C140.908 21.8892 140.674 22.5279 140.679 23.0198C140.698 24.6125 140.688 26.2024 140.685 27.7951C140.685 28.2218 140.685 28.6594 140.182 28.8388C136.8 30.0428 133.439 30.4015 130.28 28.268C128.146 26.8248 127.45 24.588 127.344 22.161C127.26 20.2368 127.303 18.3071 127.336 16.3829C127.347 15.7197 127.118 15.5159 126.463 15.5186C124.492 15.5267 124.655 15.8339 124.65 13.665C124.644 12.268 124.671 10.8711 124.641 9.47681C124.625 8.8055 124.843 8.53643 125.555 8.53915C127.328 8.54187 127.328 8.51198 127.328 6.74266C127.328 5.70988 127.377 4.67166 127.311 3.64431C127.26 2.86701 127.578 2.68491 128.282 2.70937C129.432 2.75014 130.582 2.72024 131.732 2.72024H131.729Z" fill="#ffffff"/>
<path d="M29.1267 24.1215C29.1267 25.7115 29.1294 27.3041 29.1239 28.8941C29.1239 29.1061 29.2164 29.386 28.988 29.5083C28.7488 29.6333 28.583 29.3887 28.4144 29.261C24.0862 25.9887 19.7499 22.7246 15.4407 19.4305C14.9105 19.0256 14.5924 19.0663 14.0759 19.4604C9.78569 22.7354 5.46834 25.9724 1.15642 29.2175C0.968829 29.3588 0.79209 29.6741 0.522935 29.5083C0.291843 29.367 0.400539 29.0436 0.400539 28.8017C0.395102 25.649 0.405966 22.4935 0.389654 19.3408C0.386935 18.819 0.533731 18.4602 0.985041 18.1531C3.68746 16.3077 6.37641 14.4405 9.06252 12.5734C9.4948 12.2744 9.94875 12.1304 10.4762 12.1331C13.3363 12.144 16.1964 12.1412 19.0565 12.1331C19.5812 12.1331 20.0353 12.2717 20.4703 12.5734C23.1755 14.465 25.8833 16.3512 28.6048 18.2211C28.999 18.4901 29.143 18.8081 29.1403 19.2702C29.124 20.8873 29.1348 22.5071 29.1348 24.127L29.1267 24.1215Z" fill="#ffffff"/>
<path d="M14.8451 2.52569C19.2767 2.52569 23.7082 2.53928 28.1397 2.5121C28.8738 2.50667 29.1674 2.65615 29.1483 3.4715C29.0912 5.87136 29.1048 8.27394 29.1401 10.6738C29.151 11.4131 28.8847 11.6414 28.1669 11.6414C19.2196 11.625 10.2749 11.625 1.32751 11.6414C0.582578 11.6414 0.370522 11.356 0.381397 10.6439C0.41674 8.27123 0.419459 5.89855 0.381397 3.52586C0.367803 2.76487 0.609754 2.50939 1.38459 2.5121C5.87051 2.542 10.3592 2.52569 14.8451 2.52569Z" fill="#ffffff"/>
</svg>