<svg xmlns="http://www.w3.org/2000/svg" width="138" height="24" viewBox="0 0 138 24" fill="none">
<path d="M89.3767 2.01208C87.653 1.27826 85.8369 0.979293 83.9827 0.911347C82.0579 0.840683 80.1548 1.03909 78.3115 1.63429C75.6634 2.49042 73.521 4.01785 72.129 6.47206C71.0986 8.28759 70.7017 10.2689 70.6936 12.6416C70.68 12.9487 70.7316 13.5548 70.8077 14.1609C71.1204 16.645 72.11 18.8111 73.9343 20.5505C75.5003 22.0426 77.3952 22.9314 79.4968 23.3825C81.2232 23.7521 82.9687 23.8636 84.7386 23.7222C86.832 23.5537 88.8276 23.0781 90.6627 22.0345C92.6692 20.8957 94.1481 19.2758 95.0263 17.1396C96.0295 14.699 96.1899 12.1687 95.6597 9.60574C94.9121 5.97742 92.7806 3.46341 89.374 2.01208H89.3767ZM90.3282 15.1991C89.673 17.2483 88.2892 18.6181 86.2311 19.2541C84.2845 19.8547 82.3108 19.8466 80.3669 19.246C78.3686 18.629 76.9875 17.3108 76.3404 15.3241C75.6634 13.2422 75.6771 11.1359 76.4574 9.07848C77.1724 7.19501 78.5615 6.00731 80.4728 5.4121C81.3944 5.12673 82.3434 5.01258 83.7762 5.0153C84.358 5.02073 85.3938 5.14575 86.3888 5.48548C88.4714 6.19756 89.8253 7.63259 90.4098 9.74435C90.9128 11.5599 90.8992 13.3999 90.3256 15.2018L90.3282 15.1991Z" fill="#ffffff"/>
<path d="M120.241 2.22751C118.637 1.61599 116.957 1.46108 115.266 1.44749C111.993 1.42031 108.719 1.43934 105.446 1.43934C104.665 1.43934 104.66 1.44749 104.66 2.22479C104.66 5.60036 104.66 8.97593 104.66 12.3488C104.66 15.7053 104.66 19.0646 104.66 22.4211C104.66 22.5951 104.663 22.769 104.671 22.943C104.676 23.106 104.766 23.2011 104.924 23.2256C105.043 23.2446 105.166 23.2528 105.288 23.2528C106.506 23.2528 107.727 23.2582 108.945 23.2528C109.554 23.2528 109.597 23.2011 109.608 22.6005C109.608 22.4619 109.608 22.3233 109.608 22.182C109.608 20.3556 109.608 18.5292 109.608 16.7028C109.608 16.5642 109.603 16.4228 109.614 16.2842C109.638 15.9445 109.684 15.901 110.021 15.8793C110.16 15.8711 110.299 15.8793 110.44 15.8765C112.321 15.8738 114.203 15.8983 116.081 15.8575C117.55 15.8249 118.991 15.5803 120.366 15.0367C122.384 14.2404 123.702 12.8271 124.202 10.6882C124.355 10.0386 124.406 9.37817 124.412 8.72045C124.423 7.69039 124.3 6.67119 123.92 5.70092C123.24 3.96693 121.954 2.87436 120.244 2.22479L120.241 2.22751ZM119.352 9.49232C119.143 10.5577 118.496 11.2589 117.474 11.6068C116.878 11.8106 116.261 11.9411 115.633 11.9465C113.806 11.9628 111.976 11.9601 110.149 11.9601C109.657 11.9601 109.611 11.9139 109.608 11.4193C109.603 9.59288 109.603 7.76649 109.608 5.94009C109.608 5.46175 109.665 5.41283 110.163 5.41011C111.155 5.40467 112.148 5.41011 113.14 5.41011C113.14 5.41555 113.14 5.4237 113.14 5.42914C114.062 5.42914 114.986 5.41283 115.907 5.43457C116.574 5.44816 117.218 5.60036 117.832 5.86399C118.648 6.20916 119.135 6.82883 119.33 7.68223C119.469 8.28288 119.469 8.89439 119.349 9.49504L119.352 9.49232Z" fill="#ffffff"/>
<path d="M64.2597 1.43949C60.8803 1.43949 57.5009 1.43949 54.1216 1.43949C50.7775 1.43949 47.4336 1.43949 44.0868 1.43949C43.9128 1.43949 43.7387 1.43405 43.5647 1.44764C43.1814 1.47754 43.1134 1.53733 43.1107 1.93142C43.1025 3.0104 43.0998 4.08939 43.1107 5.16837C43.1134 5.55431 43.1868 5.60866 43.581 5.62769C43.7197 5.63584 43.8583 5.63041 43.9997 5.63041C46.2291 5.63041 48.4585 5.63041 50.6878 5.63041C51.6149 5.63041 51.5797 5.54887 51.5797 6.49468C51.5797 11.7673 51.5797 17.0427 51.5797 22.3153C51.5797 22.4729 51.5741 22.6278 51.585 22.7855C51.6094 23.1442 51.6693 23.2122 52.0145 23.2448C52.1532 23.2584 52.2919 23.2529 52.4332 23.2529C53.5316 23.2529 54.6274 23.2529 55.7257 23.2529C56.3184 23.2529 56.6146 22.9531 56.6146 22.3533C56.6146 17.01 56.6146 11.6667 56.6146 6.32346C56.6146 5.63041 56.6174 5.63041 57.3134 5.62769C57.3841 5.62769 57.4521 5.62769 57.5228 5.62769C59.8391 5.62769 62.1554 5.62769 64.4745 5.62769C65.0591 5.62769 65.0944 5.58964 65.0971 4.99987C65.1026 4.09482 65.0971 3.18978 65.0971 2.28474C65.0971 1.43949 65.0972 1.43677 64.2625 1.43677L64.2597 1.43949Z" fill="#ffffff"/>
<path d="M137.847 2.32126C137.847 2.14731 137.842 1.97337 137.839 1.79943C137.834 1.59016 137.72 1.47872 137.518 1.4597C137.363 1.44339 137.206 1.44067 137.051 1.44067C135.936 1.44067 134.824 1.44067 133.709 1.44067C133.118 1.44067 132.822 1.74054 132.82 2.34028C132.82 8.02602 132.82 13.7145 132.82 19.4002C132.82 20.4276 132.82 21.4522 132.82 22.4795C132.82 23.2378 132.842 23.2568 133.622 23.2568C134.772 23.2568 135.92 23.2568 137.07 23.2568C137.839 23.2568 137.85 23.2405 137.85 22.4605C137.85 19.0877 137.85 15.7121 137.85 12.3392C137.85 8.99901 137.85 5.66149 137.85 2.32126H137.847Z" fill="#ffffff"/>
<path d="M35.3168 1.81032C35.3168 1.60376 35.2162 1.48146 35.0068 1.46244C34.8518 1.44885 34.6942 1.43798 34.5393 1.43798C33.4056 1.43798 32.2745 1.43526 31.1435 1.43798C30.3469 1.43798 30.3442 1.44341 30.3442 2.2642C30.3442 5.63977 30.3442 9.01805 30.3442 12.3936C30.3442 15.7012 30.3442 19.0089 30.3442 22.3165C30.3442 22.4741 30.3388 22.629 30.3442 22.7867C30.3632 23.178 30.4095 23.2215 30.8119 23.2514C30.8989 23.2569 30.9859 23.2541 31.0729 23.2541C32.2392 23.2541 33.4082 23.2541 34.5746 23.2541C35.3195 23.2541 35.3222 23.2487 35.3222 22.4904C35.3222 15.7366 35.3222 8.98272 35.3222 2.22887C35.3222 2.09026 35.3168 1.95165 35.3168 1.81032Z" fill="#ffffff"/>
<path d="M24.1971 1.52423C24.1455 1.5188 24.0939 1.52423 24.0396 1.52423C21.0082 1.52423 17.9795 1.52695 14.9481 1.5188C14.6056 1.5188 14.3689 1.6248 14.1433 1.89114C12.6017 3.70939 11.0413 5.51132 9.4889 7.31869C9.21159 7.64211 9.20888 7.72636 9.49978 8.07968C11.1609 10.0936 12.822 12.1048 14.4831 14.1187C16.3427 16.3746 18.2051 18.6277 20.062 20.8862C20.1571 21.0003 20.2877 21.1036 20.2959 21.3537C18.6238 21.3537 16.9898 21.3537 15.3532 21.3537C15.1438 21.3537 14.9943 21.264 14.8638 21.1036C14.5349 20.6987 14.195 20.3018 13.8579 19.9023C13.363 19.318 12.8682 18.7336 12.3734 18.1493C12.2239 17.9727 12.0771 17.9183 11.9031 18.1276C11.6339 18.4483 11.3593 18.7608 11.0847 19.0761C10.9651 19.2147 10.9488 19.3533 11.0657 19.5001C11.1527 19.6088 11.2343 19.7229 11.324 19.8289C12.1424 20.8019 12.9798 21.7559 13.7709 22.7506C14.0645 23.1203 14.3772 23.2589 14.8366 23.2561C17.762 23.2426 20.6901 23.2507 23.6154 23.2453C23.8166 23.2453 24.0993 23.3404 24.1971 23.142C24.3113 22.911 24.0422 22.7506 23.9063 22.5876C22.0276 20.3018 20.1463 18.0216 18.2623 15.7386C16.8675 14.0481 15.4701 12.3576 14.0781 10.6644C13.3603 9.79193 12.6399 8.91678 11.9303 8.0362C11.6612 7.7019 11.672 7.69375 11.9358 7.37848C12.2375 7.01972 12.542 6.66097 12.8492 6.30493C13.586 5.44609 14.3255 4.58997 15.0569 3.72841C15.2254 3.53001 15.4102 3.41586 15.6821 3.41586C17.1638 3.42401 18.6428 3.41586 20.1245 3.42129C20.2387 3.42129 20.391 3.38868 20.4427 3.53544C20.4808 3.64416 20.3774 3.72297 20.3094 3.80179C19.1703 5.11723 18.0312 6.43267 16.892 7.74811C16.3673 8.35147 15.8371 8.95211 15.3178 9.56091C15.0188 9.9088 15.0242 9.96315 15.3096 10.3192C15.5271 10.591 15.7582 10.8519 15.9784 11.121C16.1334 11.3058 16.2857 11.3302 16.4515 11.1373C16.6663 10.8872 16.8839 10.6372 17.1014 10.3871C19.1866 7.98184 21.2718 5.57383 23.3571 3.16853C23.7105 2.76086 24.0585 2.35046 24.4065 1.93735C24.4799 1.84766 24.6051 1.76069 24.5317 1.62479C24.4637 1.49706 24.3168 1.54054 24.1999 1.52967L24.1971 1.52423Z" fill="#ffffff"/>
<path d="M13.1458 14.3394C12.931 14.0676 12.7053 13.8013 12.4797 13.5349C12.2024 13.2142 12.1562 13.2142 11.8843 13.5268C10.4406 15.1982 8.997 16.8752 7.55064 18.5439C7.35761 18.7668 7.25979 19.0087 7.26522 19.3022C7.27338 19.7887 7.27066 20.2779 7.26522 20.7644C7.25979 21.3216 7.23248 21.3514 6.6697 21.3542C5.53871 21.3569 4.40507 21.3542 3.27407 21.3542C2.75751 21.3542 2.49837 21.0914 2.49655 20.566C2.49655 16.9295 2.49655 13.2903 2.49655 9.65383C2.49655 7.75677 2.49655 5.85971 2.49655 3.96265C2.49655 3.468 2.54277 3.42452 3.03486 3.4218C3.92388 3.41637 4.81286 3.41908 5.69916 3.4218C6.24472 3.4218 6.51757 3.70265 6.51757 4.26433C6.51757 8.54495 6.51757 12.8283 6.51757 17.1089C6.51757 17.3073 6.47135 17.5193 6.58554 17.7068C6.81391 17.6905 6.8927 17.5193 7.00145 17.3943C7.34673 17.0029 7.67026 16.5898 8.02641 16.2093C8.25751 15.962 8.34727 15.6956 8.34727 15.3613C8.34184 10.9584 8.34455 6.55548 8.34183 2.14985C8.34183 1.56551 8.30104 1.52474 7.71923 1.52474C5.57687 1.52203 3.43447 1.52203 1.29211 1.52474C0.702141 1.52474 0.664062 1.56279 0.664062 2.14441C0.664062 8.96621 0.664062 15.7907 0.664062 22.6125C0.664062 23.2023 0.704913 23.2485 1.27857 23.2485C3.68193 23.2539 6.08523 23.2539 8.49131 23.2485C9.1139 23.2485 9.15739 23.1969 9.16011 22.5473C9.16282 21.6939 9.16554 20.8405 9.16011 19.9898C9.16011 19.7153 9.22268 19.487 9.413 19.2777C9.82081 18.8266 10.2123 18.3564 10.6092 17.8971C11.4493 16.9214 12.2894 15.9456 13.124 14.9645C13.3714 14.6737 13.3714 14.6302 13.143 14.3394H13.1458Z" fill="#ffffff"/>
</svg>