<svg xmlns="http://www.w3.org/2000/svg" width="131" height="28" viewBox="0 0 131 28" fill="none">
<path fill-rule="evenodd" clip-rule="evenodd" d="M8.79028 27.8454C4.2228 27.8454 0.449219 24.1274 0.449219 19.6076C0.449219 15.0879 4.22552 11.4541 8.79028 11.4541C13.9613 11.4541 23.8493 14.6476 23.8493 19.6511C23.8493 24.6547 13.9613 27.8482 8.79028 27.8482M8.79028 13.2669C5.22602 13.2669 2.26259 16.0908 2.26259 19.6104C2.26259 23.13 5.2233 26.0381 8.79028 26.0381C11.2915 26.0381 14.6464 25.2662 17.338 24.0731C20.3231 22.7495 22.0359 21.1378 22.0359 19.6539C22.0359 18.1699 20.3231 16.5582 17.338 15.2346C14.6464 14.0388 11.2915 13.2696 8.79028 13.2696" fill="#ffffff"/>
<path fill-rule="evenodd" clip-rule="evenodd" d="M15.7136 7.64723C14.9143 4.68477 13.2804 0.477539 10.1892 0.477539C6.62762 0.477539 3.74038 6.49757 2.08739 11.8327C1.29895 14.3766 0.776936 16.7575 0.570312 18.2332C0.915592 16.2193 2.00307 14.4554 3.54459 13.2242C3.9225 11.7729 4.70824 9.64484 5.07255 8.75067C6.7337 4.67933 8.68843 2.29035 10.2 2.29035C12.1331 2.29035 13.4571 6.2421 13.9628 8.11198C14.5582 7.9326 15.1454 7.77768 15.7136 7.64995V7.64723Z" fill="#ffffff"/>
<path fill-rule="evenodd" clip-rule="evenodd" d="M14.8333 12.4186C15.4722 12.6034 16.1139 12.8127 16.7392 13.0464C16.5896 11.8479 16.3912 10.614 16.1356 9.40723C15.5728 9.53497 14.9856 9.6926 14.3848 9.8747C14.5588 10.7091 14.7083 11.5652 14.8306 12.4186H14.8333Z" fill="#ffffff"/>
<path fill-rule="evenodd" clip-rule="evenodd" d="M16.9465 15.0585C16.3429 14.8057 15.7122 14.5747 15.0679 14.3682C15.3044 16.7055 15.3506 18.8472 15.231 20.2061C15.1032 21.6737 14.4589 22.9973 13.4883 24.0111C14.6002 22.9729 15.8889 21.3856 17.0824 19.6245C17.1287 18.4504 17.0933 16.8441 16.9438 15.0585H16.9465Z" fill="#ffffff"/>
<path fill-rule="evenodd" clip-rule="evenodd" d="M8.79028 11.449C4.2228 11.449 0.449219 15.0855 0.449219 19.6025C0.449219 24.1196 4.22552 27.8404 8.79028 27.8404C13.9613 27.8404 23.8493 24.6469 23.8493 19.6433C23.8493 14.6398 13.9613 11.4463 8.79028 11.4463V11.449ZM17.338 24.0653C14.6464 25.2611 11.2915 26.0303 8.79028 26.0303C5.22602 26.0303 2.26259 23.1249 2.26259 19.6025C2.26259 16.0802 5.2233 13.2591 8.79028 13.2591C11.2915 13.2591 14.6464 14.031 17.338 15.2241C20.3231 16.5477 22.0359 18.1594 22.0359 19.6433C22.0359 21.1273 20.3231 22.7389 17.338 24.0625V24.0653Z" fill="#ffffff"/>
<path fill-rule="evenodd" clip-rule="evenodd" d="M13.5842 23.9242C12.1922 25.2505 10.6208 26.0278 8.74219 26.0332C10.7812 26.0414 13.1791 25.5413 15.1475 24.9026C16.9772 23.0354 19.087 20.0974 20.6339 17.2274C20.2261 16.8686 19.7367 16.5153 19.1658 16.1729C17.6161 19.1163 15.3813 22.2119 13.5842 23.9269V23.9242Z" fill="#ffffff"/>
<path fill-rule="evenodd" clip-rule="evenodd" d="M22.0891 8.45804C21.2953 7.51495 20.0555 7.25132 18.8212 7.24316C16.0264 7.24316 11.8042 8.6347 8.31333 10.3306C6.75822 11.0835 5.22215 11.9532 3.84375 12.9914C5.21399 11.9967 6.96484 11.4477 8.79183 11.4477C9.19149 11.4477 9.62103 11.4694 10.0696 11.5075C13.1146 10.1377 16.5702 9.05325 18.8158 9.05325C19.4602 9.05869 20.3301 9.14294 20.7243 9.64846C21.0832 10.1078 21.0479 10.8987 20.9554 11.4776C20.8114 12.369 20.4552 13.4236 19.9577 14.5487C20.5205 14.8803 21.0697 15.2635 21.4639 15.5761C22.1055 14.1873 22.5704 12.8691 22.7498 11.7629C22.9782 10.3551 22.758 9.24078 22.0946 8.4526L22.0891 8.45804Z" fill="#ffffff"/>
<path fill-rule="evenodd" clip-rule="evenodd" d="M93.1234 11.0008C91.4948 10.6992 90.0077 11.4547 89.2492 12.7158V11.6422C89.2492 11.4004 89.0535 11.2047 88.8115 11.2047H87.4358C87.1938 11.2047 86.998 11.4004 86.998 11.6422V21.845C86.998 22.0869 87.1938 22.2826 87.4358 22.2826H88.8115C89.0535 22.2826 89.2492 22.0869 89.2492 21.845V16.7219C89.2492 15.5532 89.5129 14.6835 90.0322 14.1372C90.7907 13.3355 92.1827 13.1561 93.2185 13.2702C93.2675 13.2757 93.3137 13.2594 93.3518 13.2295C93.3898 13.1969 93.4116 13.1534 93.4116 13.1045L93.4795 11.4493C93.4877 11.2318 93.3354 11.0416 93.1234 11.0036V11.0008Z" fill="#ffffff"/>
<path d="M47.4045 11.2041H48.7802C49.0222 11.2041 49.2179 11.3998 49.2179 11.6417V21.8445C49.2179 22.0864 49.0222 22.2821 48.7802 22.2821H47.4045C47.1626 22.2821 46.9668 22.0864 46.9668 21.8445V11.6417C46.9668 11.3998 47.1626 11.2041 47.4045 11.2041Z" fill="#ffffff"/>
<path fill-rule="evenodd" clip-rule="evenodd" d="M48.0924 5.85645C47.2523 5.85645 46.5645 6.54677 46.5645 7.38115C46.5645 8.21553 47.2523 8.90587 48.0924 8.90587C48.9325 8.90587 49.623 8.22097 49.623 7.38115C49.623 6.54134 48.9379 5.85645 48.0924 5.85645Z" fill="#ffffff"/>
<path d="M95.8498 11.2041H97.2255C97.4675 11.2041 97.6632 11.3998 97.6632 11.6417V21.8445C97.6632 22.0864 97.4675 22.2821 97.2255 22.2821H95.8498C95.6078 22.2821 95.4121 22.0864 95.4121 21.8445V11.6417C95.4121 11.3998 95.6078 11.2041 95.8498 11.2041Z" fill="#ffffff"/>
<path fill-rule="evenodd" clip-rule="evenodd" d="M116.154 16.2633L121.034 11.526C121.086 11.4771 121.102 11.401 121.075 11.3358C121.047 11.2706 120.985 11.2271 120.912 11.2271H118.389C118.272 11.2271 118.16 11.2733 118.079 11.3548L113.628 15.8175V6.25887C113.628 6.01698 113.432 5.82129 113.19 5.82129H111.815C111.573 5.82129 111.377 6.01698 111.377 6.25887V21.843C111.377 22.0849 111.573 22.2806 111.815 22.2806H113.19C113.432 22.2806 113.628 22.0849 113.628 21.843V16.7633L118.443 22.1338C118.527 22.2262 118.644 22.2806 118.769 22.2806H121.366C121.436 22.2806 121.499 22.2398 121.526 22.1773C121.553 22.1148 121.54 22.0387 121.493 21.9898L116.154 16.2633Z" fill="#ffffff"/>
<path fill-rule="evenodd" clip-rule="evenodd" d="M71.8248 10.9281C70.4274 10.9281 68.9511 11.4962 68.2687 12.6947V6.25887C68.2687 6.01698 68.0729 5.82129 67.831 5.82129H66.4553C66.2134 5.82129 66.0176 6.01698 66.0176 6.25887V21.843C66.0176 22.0849 66.2134 22.2806 66.4553 22.2806H67.831C68.0729 22.2806 68.2687 22.0849 68.2687 21.843V16.5812C68.2687 14.5184 69.1822 13.0345 71.2239 13.0345C72.8389 13.0345 73.6273 14.1515 73.6273 15.7523V21.843C73.6273 22.0849 73.8231 22.2806 74.0651 22.2806H75.438C75.6799 22.2806 75.8757 22.0849 75.8757 21.843V15.1761C75.8757 12.4501 74.2336 10.9254 71.8221 10.9254L71.8248 10.9281Z" fill="#ffffff"/>
<path fill-rule="evenodd" clip-rule="evenodd" d="M44.825 20.0356H37.7699V6.25887C37.7699 6.01698 37.5741 5.82129 37.3321 5.82129H35.8205C35.5785 5.82129 35.3828 6.01698 35.3828 6.25887V21.843C35.3828 22.0849 35.5785 22.2806 35.8205 22.2806H44.8277C45.0697 22.2806 45.2654 22.0849 45.2654 21.843V20.4732C45.2654 20.2313 45.0697 20.0356 44.8277 20.0356H44.825Z" fill="#ffffff"/>
<path fill-rule="evenodd" clip-rule="evenodd" d="M105.385 13.0761C106.331 13.0761 107.217 13.4294 107.894 14.0028C108.063 14.1469 108.313 14.1387 108.476 13.992L109.46 13.0978C109.55 13.0135 109.601 12.8967 109.604 12.7744C109.604 12.6521 109.553 12.5352 109.46 12.4509C108.356 11.4372 106.975 10.9697 105.477 10.9697C101.954 10.9697 99.6699 13.4511 99.6699 16.8077C99.6699 20.33 102.149 22.5749 105.477 22.5749C107.038 22.5749 108.362 22.1401 109.436 21.1263C109.52 21.0448 109.569 20.9306 109.572 20.8138C109.572 20.6942 109.528 20.58 109.444 20.4985L108.506 19.5636C108.427 19.4847 108.318 19.4358 108.196 19.4358C108.041 19.4358 107.967 19.4983 107.875 19.5799C107.206 20.1778 106.366 20.4659 105.502 20.4659C103.392 20.4659 102.06 18.8189 102.06 16.8511C102.06 14.8834 103.202 13.0761 105.387 13.0761H105.385Z" fill="#ffffff"/>
<path fill-rule="evenodd" clip-rule="evenodd" d="M124.825 14.1664C124.825 13.5767 125.428 13.0358 126.567 13.0358C127.35 13.0358 128.082 13.3619 128.62 13.8376C128.775 13.9762 129.009 13.9843 129.175 13.8593L130.17 13.1092C130.265 13.0358 130.327 12.9271 130.341 12.8075C130.354 12.6879 130.316 12.5683 130.24 12.4759C129.411 11.4975 128.218 10.9268 126.684 10.9268C124.436 10.9268 122.438 12.1688 122.438 14.392C122.438 15.4384 122.932 16.6234 124.58 17.1914C126.26 17.773 128.419 17.773 128.419 19.1564C128.419 20.0397 127.323 20.4501 126.293 20.4501C125.485 20.4501 124.531 20.0886 123.868 19.4526C123.707 19.2977 123.457 19.2896 123.286 19.4309L122.342 20.2055C122.25 20.2816 122.193 20.3903 122.185 20.5099C122.177 20.6268 122.215 20.7463 122.293 20.8333C123.237 21.8987 124.618 22.5782 126.271 22.5782C128.647 22.5782 130.817 21.4258 130.817 19.0558C130.817 14.7317 124.827 16.5065 124.827 14.1664H124.825Z" fill="#ffffff"/>
<path fill-rule="evenodd" clip-rule="evenodd" d="M84.7211 20.2637C83.3183 20.7747 82.016 20.5192 81.9344 18.9537C81.9181 18.6602 81.9127 18.3558 81.9127 18.0487V13.1919H84.4493C84.6912 13.1919 84.8869 12.9962 84.8869 12.7543V11.659C84.8869 11.4171 84.6912 11.2214 84.4493 11.2214H81.9127V8.5987C81.9127 8.35681 81.717 8.16113 81.475 8.16113H80.0993C79.8573 8.16113 79.6615 8.35681 79.6615 8.5987V11.2214H77.7014C77.4594 11.2214 77.2637 11.4171 77.2637 11.659V12.7543C77.2637 12.9962 77.4594 13.1919 77.7014 13.1919H79.6615V18.7852C79.6615 20.1333 79.7078 21.2231 80.6376 21.9406C81.687 22.7505 83.6636 22.6907 84.6749 22.3021C84.8435 22.2369 84.9549 22.0738 84.9549 21.8944V20.4295C84.9549 20.3724 84.9278 20.3181 84.8816 20.2854C84.8354 20.2528 84.7755 20.2447 84.7211 20.2637Z" fill="#ffffff"/>
<path fill-rule="evenodd" clip-rule="evenodd" d="M62.7983 11.2052H61.4227C61.1807 11.2052 60.9849 11.4009 60.9849 11.6427V12.6511C60.1285 11.5313 58.6114 10.9307 57.2222 10.9307C53.7666 10.9307 51.5781 13.5017 51.5781 16.7441C51.5781 19.9865 53.9705 22.4217 57.2222 22.4217C58.6848 22.4217 60.153 21.8455 60.9849 20.5953C60.9849 22.1282 61.4145 25.6967 57.1298 25.6967C55.7704 25.7212 54.4735 25.2048 53.5057 24.2916C53.4159 24.2073 53.2963 24.1639 53.174 24.172C53.0516 24.1802 52.9375 24.24 52.8614 24.3351L51.9669 25.4467C51.8174 25.6315 51.8445 25.9006 52.0267 26.0528C53.3534 27.1725 54.8759 27.8031 57.176 27.8031C60.6858 27.8031 63.236 25.5608 63.236 22.1037V11.6427C63.236 11.4009 63.0402 11.2052 62.7983 11.2052ZM57.475 20.3127C55.2783 20.3127 53.9651 18.8804 53.9651 16.7414C53.9651 14.472 55.4197 13.0343 57.475 13.0343C59.5304 13.0343 60.9849 14.4856 60.9849 16.7414C60.9849 18.8776 59.6745 20.3127 57.475 20.3127Z" fill="#ffffff"/>
<path fill-rule="evenodd" clip-rule="evenodd" d="M96.5377 5.85669C95.6976 5.85669 95.0098 6.54702 95.0098 7.3814C95.0098 8.21578 95.6976 8.90612 96.5377 8.90612C97.3777 8.90612 98.0656 8.22121 98.0656 7.3814C98.0656 6.54158 97.3832 5.85669 96.5377 5.85669Z" fill="#ffffff"/>
</svg>