<svg xmlns="http://www.w3.org/2000/svg" width="119" height="30" viewBox="0 0 119 30" fill="none">
<path d="M111.641 0.848311C111.174 0.829286 110.709 0.837439 110.241 0.859182C109.496 0.891796 108.751 0.815697 108.004 0.859182C107.215 0.902668 106.424 0.810261 105.63 0.859182C104.896 0.902668 104.159 0.815697 103.42 0.859182C102.632 0.905386 101.84 0.810261 101.046 0.859182C100.304 0.902668 99.5566 0.815697 98.809 0.859182C98.0206 0.902668 97.2294 0.810261 96.4355 0.859182C95.7015 0.902668 94.9647 0.815697 94.2252 0.859182C93.4286 0.902668 92.6265 0.810261 91.8272 0.859182C91.1013 0.89995 90.3755 0.823851 89.6441 0.856465C88.7823 0.891797 87.9205 0.83744 87.0559 0.851029C85.9032 0.867336 85.0657 1.57941 84.9243 2.71819C84.8591 3.2373 84.8809 3.75369 84.8972 4.27552C84.9244 5.03651 84.8809 5.80023 84.889 6.56395C84.9026 8.09681 84.8646 9.6324 84.8972 11.1653C84.9136 11.9181 84.8809 12.6709 84.8864 13.4265C84.8972 14.9594 84.8618 16.495 84.8945 18.0278C84.9108 18.7888 84.8755 19.5525 84.8809 20.3163C84.8945 21.86 84.8619 23.401 84.8864 24.9448C84.8972 25.7438 84.8727 26.5401 84.8781 27.3392C84.889 28.6899 85.7537 29.4183 86.7433 29.5977C87.0586 29.6548 87.3713 29.5896 87.6839 29.5841C88.4289 29.5732 89.1738 29.6303 89.9215 29.5923C90.718 29.5515 91.5201 29.6385 92.3221 29.5923C93.048 29.5515 93.7766 29.6031 94.5052 29.5977C96.0685 29.5868 97.6317 29.6222 99.1977 29.5896C99.9345 29.5732 100.671 29.6086 101.408 29.6031C102.98 29.5923 104.554 29.6249 106.128 29.5977C106.846 29.5841 107.566 29.6113 108.284 29.6113C109.344 29.6113 110.41 29.5488 111.467 29.6276C112.631 29.7146 113.531 28.6954 113.697 27.823C113.757 27.5077 113.716 27.2006 113.71 26.8853C113.694 26.1134 113.762 25.3443 113.718 24.5697C113.675 23.8087 113.762 23.0477 113.718 22.2813C113.675 21.5203 113.732 20.7565 113.727 19.9955C113.719 18.9383 113.724 17.8783 113.727 16.8184C113.738 16.3428 113.743 15.8699 113.721 15.3942C113.686 14.6414 113.732 13.8885 113.727 13.133C113.716 11.6001 113.751 10.0645 113.718 8.53167C113.702 7.77067 113.738 7.00695 113.735 6.24324C113.735 5.186 113.702 4.12603 113.743 3.06607C113.792 1.82945 112.791 0.905386 111.636 0.856465L111.641 0.848311ZM93.4232 25.048C93.415 25.1866 93.3633 25.2546 93.2138 25.2682C92.9909 25.2872 92.7679 25.3171 92.5422 25.3035C91.5444 25.2383 90.5467 25.3144 89.549 25.2899C89.2689 25.2845 89.1955 25.1894 89.2091 24.923C89.2689 23.7407 89.2227 22.5558 89.2281 21.3708C89.2308 20.5989 89.2825 19.827 89.239 19.0579C89.1955 18.3023 89.2825 17.5495 89.239 16.7994C89.1955 16.0248 89.2825 15.2556 89.239 14.4865C89.1982 13.7228 89.2499 12.9618 89.2499 12.2008C89.2499 12.1654 89.2499 12.1301 89.2499 12.092C89.22 11.6354 89.2227 11.6219 89.693 11.611C90.0247 11.6028 90.3592 11.6246 90.805 11.6354C91.4983 11.6817 92.3058 11.5865 93.116 11.63C93.3552 11.6436 93.4205 11.7224 93.4151 11.9507C93.3879 12.9645 93.4014 13.9782 93.4068 14.9893C93.4123 15.7693 93.3552 16.552 93.3987 17.3293C93.4395 18.0767 93.3552 18.8187 93.3987 19.5607C93.4422 20.3434 93.3552 21.1235 93.3987 21.9008C93.4395 22.6563 93.3797 23.4064 93.3933 24.1593C93.3987 24.4555 93.4422 24.7491 93.4232 25.0453V25.048ZM92.8631 9.15677C92.3982 9.49922 91.9088 9.77372 91.3813 9.70034C89.9594 9.66501 88.9998 8.73822 88.9237 7.43366C88.8476 6.13181 89.6632 5.12077 90.941 4.87616C91.6723 4.73755 92.2704 4.94139 92.8195 5.37081C93.4041 5.82741 93.8037 6.41175 93.7765 7.1809C93.7494 7.9582 93.5292 8.66484 92.8604 9.15677H92.8631ZM109.404 23.5722C109.426 24.0587 109.409 24.5398 109.415 25.0236C109.415 25.1839 109.371 25.2845 109.192 25.2899C109.113 25.2899 109.031 25.3252 108.953 25.3198C107.811 25.26 106.669 25.3198 105.527 25.3008C105.293 25.2954 105.201 25.2084 105.187 24.9964C105.184 24.9339 105.171 24.8714 105.174 24.8089C105.239 23.6429 105.182 22.4769 105.198 21.311C105.212 20.3244 105.209 19.3378 105.209 18.3512C105.209 17.8349 105.163 17.313 105.089 16.7966C104.942 15.7584 104.206 15.1224 103.279 15.011C102.101 14.8697 100.878 15.3779 100.562 16.7233C100.369 17.5386 100.296 18.3866 100.35 19.2345C100.356 19.3242 100.378 19.4139 100.372 19.5009C100.304 20.8191 100.375 22.1399 100.342 23.4581C100.329 23.9582 100.356 24.461 100.35 24.9638C100.35 25.1649 100.299 25.2573 100.068 25.2845C99.6327 25.3361 99.2059 25.2763 98.7682 25.2981C98.0124 25.2301 97.2484 25.3361 96.4817 25.2981C96.2452 25.2872 96.1636 25.1839 96.1473 24.9801C96.1446 24.9366 96.1418 24.8904 96.1445 24.8442C96.2125 23.5614 96.1582 22.2785 96.1691 20.993C96.1773 20.1314 96.2153 19.2699 96.1772 18.411C96.1473 17.737 96.2099 17.0657 96.18 16.3944C96.1419 15.541 96.2153 14.6876 96.18 13.8396C96.1555 13.2363 96.18 12.6383 96.1854 12.0377C96.1854 11.6572 96.2343 11.6137 96.6286 11.6191C96.9439 11.6191 97.2593 11.6246 97.5747 11.6436C98.3386 11.6871 99.1026 11.5974 99.8666 11.6382C100.092 11.649 100.182 11.7034 100.182 11.948C100.182 12.3964 100.225 12.8422 100.198 13.2933C100.193 13.3613 100.177 13.4564 100.258 13.4836C100.356 13.5162 100.391 13.4102 100.435 13.3504C100.712 12.9536 100.995 12.5622 101.384 12.2578C101.906 11.8529 102.507 11.6354 103.135 11.4479C103.931 11.2087 104.719 11.3474 105.516 11.4072C106.19 11.4588 106.786 11.7007 107.354 12.0431C108.126 12.5079 108.569 13.2118 108.885 14.0299C109.211 14.8806 109.292 15.7639 109.374 16.6608C109.442 17.4353 109.369 18.2045 109.412 18.9736C109.453 19.7102 109.369 20.4467 109.412 21.1805C109.458 21.9796 109.374 22.7786 109.412 23.575L109.404 23.5722Z" fill="#ffffff"/>
<path d="M80.7133 5.3508C80.6916 5.15783 80.61 5.05183 80.387 5.04912C80.0363 5.04368 79.6857 5.08173 79.3377 5.07901C78.4486 5.07358 77.5596 5.03009 76.6679 5.06814C76.4586 5.07629 76.377 5.1388 76.3797 5.34808C76.3879 5.80468 76.3797 6.26128 76.3906 6.71787C76.4123 7.62292 76.3525 8.52796 76.3906 9.43572C76.4151 10.0527 76.3471 10.6696 76.3906 11.292C76.4287 11.8138 76.3742 12.3411 76.3606 12.9173C76.0942 12.6373 75.9094 12.3628 75.6375 12.1862C74.8708 11.6861 74.0633 11.3328 73.1308 11.2078C72.0324 11.061 70.9722 11.1126 69.939 11.4741C68.8108 11.8709 67.8972 12.583 67.1957 13.5587C66.7281 14.211 66.3339 14.8877 66.0838 15.665C65.5781 17.2251 65.4912 18.7851 65.8283 20.3859C66.1736 22.0166 66.9593 23.3593 68.3024 24.3594C68.8869 24.7943 69.5122 25.1449 70.2353 25.3379C71.1679 25.5852 72.0922 25.7265 73.0574 25.6124C74.0035 25.5009 74.8409 25.1612 75.5913 24.5796C75.9746 24.2833 76.3226 23.9518 76.7087 23.5359C76.6978 23.9844 76.6787 24.3567 76.6814 24.7291C76.6842 25.3107 76.6923 25.2971 77.2496 25.3215C78.2936 25.3705 79.3377 25.3107 80.379 25.3433C80.5992 25.3487 80.6889 25.2726 80.6835 25.0498C80.6726 24.5116 80.6834 23.9735 80.6807 23.4354C80.6807 21.84 80.7052 20.2419 80.6753 18.6465C80.6617 17.9372 80.7134 17.2305 80.6835 16.5212C80.6481 15.6623 80.7215 14.8008 80.6835 13.9392C80.6563 13.276 80.7133 12.6156 80.6861 11.9497C80.6481 11.0909 80.6862 10.2266 80.6944 9.36778C80.708 8.08495 80.6535 6.79941 80.7188 5.5193C80.7215 5.46495 80.7188 5.41059 80.7133 5.35895V5.3508ZM76.2274 20.3316C75.8686 21.0138 75.2841 21.4731 74.5201 21.6796C73.2695 22.0194 72.0868 21.8835 71.0346 21.1062C70.5045 20.7148 70.2544 20.1141 70.0859 19.4836C69.8031 18.4209 69.9282 17.3963 70.4148 16.426C70.6541 15.9504 71.0618 15.6052 71.5376 15.3715C72.1058 15.0943 72.704 14.904 73.4163 14.9231C74.077 14.9665 74.7865 15.1133 75.3955 15.5183C76.1078 15.9939 76.4368 16.7277 76.6217 17.5403C76.8474 18.5242 76.6842 19.4591 76.2274 20.3289V20.3316Z" fill="#ffffff"/>
<path d="M49.1695 22.6821C48.6638 22.0516 48.2152 21.3776 47.7367 20.7253C47.0924 19.8501 46.4453 18.9777 45.7983 18.1053C45.7222 18.002 45.6569 17.9177 45.7765 17.7791C46.4807 16.9774 47.1549 16.1484 47.8781 15.3602C48.8623 14.2867 49.8112 13.186 50.7763 12.0961C50.8823 11.9765 50.9965 11.8624 51.0889 11.7265C51.2086 11.5498 51.1378 11.5091 50.9665 11.5145C50.6539 11.5254 50.3385 11.5553 50.0259 11.5417C48.7589 11.4873 47.4894 11.5743 46.2224 11.5063C46.2034 11.5063 46.187 11.5063 46.168 11.5063C46.0293 11.4982 45.9396 11.5607 45.8499 11.6667C44.9038 12.7593 43.944 13.841 43.0088 14.9417C42.5847 15.4391 42.1334 15.9174 41.7365 16.4365C41.5979 16.6186 41.4592 16.8197 41.1982 16.9611C41.239 16.5507 41.1683 16.1973 41.171 15.8386C41.171 15.1483 41.1873 14.4579 41.1845 13.7676C41.1764 12.1532 41.1737 10.5388 41.19 8.92438C41.2009 7.72309 41.1466 6.51909 41.2145 5.3178C41.2254 5.10309 41.1547 4.99709 40.9263 5.01068C40.6681 5.02699 40.4043 5.05688 40.146 5.0433C39.1401 4.98894 38.1315 5.06504 37.1255 5.02427C36.908 5.01612 36.8428 5.10852 36.8373 5.30964C36.8292 5.61404 36.8673 5.92116 36.8646 6.22284C36.8428 7.77473 36.8319 9.32662 36.8646 10.8785C36.8809 11.6314 36.8454 12.3842 36.8509 13.1398C36.8645 14.6835 36.8265 16.2245 36.8591 17.7683C36.8754 18.5048 36.84 19.2386 36.8454 19.9752C36.8509 21.0161 36.8672 22.057 36.8346 23.098C36.8155 23.7448 36.8645 24.3889 36.8454 25.0358C36.84 25.2478 36.9379 25.3184 37.1391 25.3212C37.4708 25.3266 37.8052 25.2994 38.1342 25.2967C39.0151 25.2913 39.8959 25.3429 40.7767 25.3021C41.1329 25.2858 41.1492 25.2858 41.1656 24.9244C41.2226 23.6334 41.1357 22.3397 41.2037 21.046C41.2064 20.9753 41.19 20.9047 41.1845 20.8313C41.141 20.1056 41.2063 19.3854 41.2362 18.6597C42.06 19.717 42.7207 20.8585 43.471 21.9456C44.1888 22.9865 44.8874 24.0465 45.5807 25.1037C45.6813 25.2587 45.801 25.3184 45.9804 25.3184C46.429 25.3184 46.8804 25.2994 47.3262 25.3076C48.4409 25.332 49.5555 25.2858 50.6729 25.3184C50.7844 25.3212 50.9395 25.381 51.002 25.2695C51.0727 25.1445 50.9286 25.0439 50.8606 24.9488C50.3141 24.1824 49.7649 23.416 49.1749 22.6794L49.1695 22.6821Z" fill="#ffffff"/>
<path d="M63.4006 14.0681C62.9928 13.4131 62.5578 12.7771 61.9162 12.3423C61.0543 11.7606 60.1245 11.3149 59.0615 11.2198C58.6591 11.1845 58.2514 11.073 57.8572 11.1111C56.7969 11.2116 55.723 11.2633 54.7306 11.7389C54.2521 11.9672 53.7708 12.171 53.3195 12.4646C52.1287 13.2392 51.2995 14.3073 50.7857 15.5955C50.4078 16.5413 50.1875 17.5388 50.2718 18.5879C50.3371 19.4223 50.4242 20.2268 50.726 21.0285C51.4029 22.8332 52.6344 24.0616 54.3499 24.8797C55.3613 25.3608 56.4217 25.5945 57.5228 25.6489C58.893 25.7168 60.1953 25.4668 61.4268 24.8254C62.2697 24.3878 63.0064 23.8361 63.6426 23.1403C63.7976 22.9718 63.7785 22.8902 63.599 22.7489C62.7454 22.0749 61.8564 21.4525 60.9701 20.822C60.8314 20.7241 60.7281 20.7051 60.6411 20.8627C60.3312 21.428 59.8092 21.7895 59.2627 22.026C58.091 22.5315 56.8975 22.5587 55.8127 21.7487C55.2282 21.3139 54.8149 20.7431 54.6518 20.0175C54.6246 19.8979 54.5702 19.762 54.7932 19.762C55.1792 19.762 55.5652 19.743 55.9513 19.7375C56.5902 19.7294 57.2237 19.7702 57.8653 19.743C58.6891 19.7076 59.5183 19.7593 60.3448 19.7457C61.6308 19.7239 62.9167 19.762 64.2027 19.7756C64.238 19.7756 64.2733 19.7756 64.3114 19.7756C64.4229 19.7756 64.4556 19.7267 64.4556 19.6071C64.4501 19.2837 64.4664 18.9602 64.4745 18.6368C64.4609 18.1449 64.4664 17.6584 64.4011 17.1637C64.2543 16.0657 63.9961 15.0221 63.4034 14.0681H63.4006ZM59.8745 16.8023C59.8745 16.8023 59.8554 16.8023 59.8472 16.8023C59.6406 16.7968 59.4341 16.7914 59.2274 16.786C58.2378 16.8457 57.2482 16.7588 56.2613 16.7805C55.7746 16.7914 55.2906 16.7832 54.8067 16.7887C54.6246 16.7887 54.5674 16.7234 54.6109 16.5441C54.8366 15.6309 55.3205 14.9324 56.1959 14.5247C57.1557 14.0763 58.091 14.1823 58.9909 14.6497C59.3932 14.859 59.6787 15.2286 59.8581 15.6526C59.9696 15.9162 60.0702 16.188 60.1463 16.4625C60.2197 16.7316 60.1463 16.8023 59.8717 16.8023H59.8745Z" fill="#ffffff"/>
<path d="M34.7336 21.2453C34.6929 20.5115 34.7609 19.7776 34.7364 19.0384C34.7038 18.079 34.7745 17.1223 34.6902 16.1602C34.5951 15.0649 34.3803 14.0131 33.7903 13.0673C33.3961 12.4313 32.8796 11.9203 32.17 11.6567C31.2809 11.3279 30.3701 11.1566 29.4022 11.1892C28.0646 11.2354 26.9608 11.7138 26.0745 12.7031C25.914 12.8825 25.7672 13.0727 25.615 13.2602C25.5987 12.8036 25.5171 12.3688 25.5307 11.9285C25.5416 11.4991 25.5416 11.4991 25.1039 11.5344C25.0332 11.5398 24.9598 11.5398 24.8891 11.5344C23.837 11.4719 22.7849 11.5453 21.7327 11.5099C21.4962 11.5018 21.4119 11.586 21.4173 11.8198C21.4336 12.5101 21.3765 13.1977 21.4118 13.8908C21.4499 14.7224 21.3738 15.5568 21.4118 16.3912C21.4445 17.0897 21.3765 17.7882 21.4064 18.4894C21.4445 19.3401 21.4065 20.1935 21.3983 21.0442C21.3847 22.3351 21.4391 23.6288 21.3711 24.9198C21.3711 24.9388 21.3711 24.9551 21.3711 24.9742C21.382 25.2541 21.4636 25.3248 21.7381 25.3003C21.8822 25.2867 22.0264 25.2623 22.1677 25.2704C23.2389 25.3302 24.3074 25.2514 25.3786 25.2949C25.6287 25.3057 25.7048 25.2052 25.713 24.966C25.732 24.4551 25.6994 23.9441 25.6912 23.4331C25.6803 22.77 25.7048 22.1068 25.7021 21.4437C25.6966 20.3946 25.7021 19.3455 25.7075 18.2937C25.7102 17.8887 25.7809 17.4892 25.8271 17.0897C25.9196 16.2961 26.2757 15.6601 26.9798 15.2497C27.5263 14.9317 28.1244 14.9969 28.7171 15.0459C29.0325 15.073 29.3071 15.1709 29.5491 15.3829C29.9813 15.7607 30.2477 16.2281 30.3103 16.7962C30.3701 17.3397 30.4517 17.886 30.4381 18.4296C30.4028 19.6227 30.4435 20.8159 30.4218 22.009C30.4055 22.9684 30.4408 23.9278 30.4 24.8872C30.4 24.9307 30.4 24.9769 30.4054 25.0204C30.4245 25.2188 30.5197 25.3329 30.7372 25.3139C31.0417 25.2867 31.3461 25.2595 31.6533 25.2813C32.5885 25.3465 33.5239 25.2568 34.4591 25.2976C34.6521 25.3057 34.7392 25.2351 34.7364 25.034C34.7337 24.5692 34.7446 24.1045 34.7255 23.637C34.6902 22.8407 34.7718 22.0416 34.7255 21.2426L34.7336 21.2453Z" fill="#ffffff"/>
<path d="M12.6058 21.1415C12.0294 21.1279 11.4558 21.136 10.8822 21.1524C10.2079 21.1741 9.53377 21.1496 8.86224 21.1442C7.54909 21.1333 6.23588 21.1795 4.92273 21.1225C4.70251 21.1143 4.62099 21.0382 4.62643 20.8153C4.66721 19.2716 4.66715 17.7306 4.63453 16.1868C4.61822 15.4422 4.65364 14.6975 4.6482 13.9528C4.63733 12.3465 4.6372 10.743 4.65351 9.13674C4.66439 7.85392 4.61283 6.56838 4.68351 5.28827C4.68351 5.28012 4.68351 5.26924 4.68351 5.26109C4.70254 5.06812 4.62099 4.99202 4.42253 4.97843C4.10443 4.95669 3.79451 5.03007 3.48185 5.01105C2.46505 4.95397 1.45097 5.02464 0.434165 4.98931C0.222104 4.98115 0.143239 5.06269 0.14052 5.26653C0.137802 5.67149 0.159567 6.07373 0.156849 6.47597C0.145974 8.01971 0.129598 9.56073 0.159504 11.1045C0.175816 11.841 0.143181 12.5748 0.148618 13.3114C0.159493 14.8633 0.124224 16.4151 0.156849 17.967C0.173161 18.7199 0.137738 19.4727 0.143175 20.2283C0.151332 21.2855 0.143181 22.3455 0.148618 23.3565C0.0969622 23.9354 0.137743 24.4627 0.148618 24.9927C0.154056 25.1992 0.230196 25.2726 0.43682 25.2862C0.817443 25.3134 1.18995 25.2536 1.56786 25.2536C2.26113 25.2536 2.9516 25.2699 3.64487 25.2672C5.23533 25.259 6.82587 25.278 8.41633 25.2672C9.73763 25.2563 11.0589 25.2889 12.3829 25.3025C12.4183 25.3025 12.4536 25.3025 12.4916 25.3025C12.7363 25.2971 12.8505 25.2047 12.8641 24.9302C12.9158 23.7642 12.8288 22.5955 12.8886 21.4296C12.8994 21.223 12.8206 21.1442 12.6113 21.1388L12.6058 21.1415Z" fill="#ffffff"/>
<path d="M19.0872 21.961C19.0355 21.2462 19.0981 20.526 19.0926 19.8084C19.0845 18.7322 19.098 17.6559 19.0898 16.6802C19.1279 16.0741 19.079 15.5713 19.0926 15.0712C19.128 13.9841 19.0655 12.8997 19.109 11.8125C19.1171 11.5842 19.0382 11.4891 18.8016 11.4864C18.3802 11.481 17.9589 11.5489 17.5348 11.5163C16.7001 11.4483 15.8627 11.5435 15.0281 11.5054C14.816 11.4973 14.7263 11.587 14.7372 11.7881C14.7481 11.9946 14.7725 12.1985 14.7725 12.405C14.778 13.1307 14.7562 13.8564 14.7616 14.5847C14.7725 16.1366 14.7372 17.6885 14.7699 19.2404C14.7862 19.9933 14.7535 20.7461 14.7535 21.5017C14.7535 22.5589 14.7753 23.6189 14.7481 24.6788C14.7318 25.255 14.7344 25.2414 15.2999 25.2713C16.4608 25.3284 17.6218 25.2414 18.78 25.3012C19.0301 25.3148 19.1279 25.2142 19.1116 24.9751C19.1062 24.9126 19.1198 24.8473 19.1116 24.7875C19.0083 23.8472 19.1524 22.9068 19.0844 21.9637L19.0872 21.961Z" fill="#ffffff"/>
<path d="M17.3851 4.7667C16.4879 4.64711 15.6996 4.78028 15.0933 5.544C14.5903 6.17998 14.3102 6.83498 14.4788 7.67751C14.6664 8.61517 15.6126 9.73764 16.7653 9.67241C17.9425 9.72133 18.7038 9.26473 19.1823 8.21565C19.5113 7.49813 19.552 6.79421 19.1387 6.07942C18.7364 5.38093 18.2198 4.87541 17.3825 4.76398L17.3851 4.7667Z" fill="#ffffff"/>
<path d="M117.849 26.0327C116.533 25.3641 115.117 26.3616 115.003 27.5928C114.897 28.7343 115.772 29.7508 116.922 29.835C117.094 29.8676 117.257 29.7671 117.431 29.7263C118.282 29.5306 118.798 28.9653 118.929 28.1065C119.067 27.1905 118.679 26.454 117.852 26.0327H117.849ZM118.659 27.8347C118.605 28.8376 117.887 29.5333 116.911 29.5225C116.041 29.5143 115.188 28.6826 115.305 27.7015C115.223 26.897 116.115 26.0518 117.009 26.1088C117.877 26.1659 118.717 26.8155 118.659 27.8347Z" fill="#ffffff"/>
<path d="M117.481 28.2739C117.366 28.1215 117.331 28.0154 117.551 27.9039C117.791 27.7788 117.843 27.5285 117.815 27.2728C117.788 27.028 117.628 26.9001 117.407 26.824C117.225 26.7614 117.034 26.7668 116.847 26.7614C116.73 26.7614 116.613 26.7614 116.496 26.7532C116.316 26.7396 116.237 26.8158 116.229 27.0008C116.205 27.5748 116.292 28.146 116.248 28.72C116.237 28.8533 116.308 28.9185 116.441 28.9185C116.569 28.9185 116.615 28.8451 116.624 28.7336C116.632 28.5812 116.632 28.4289 116.64 28.2766C116.645 28.1814 116.624 28.0644 116.751 28.029C116.882 27.9937 116.975 28.0481 117.043 28.1623C117.146 28.3391 117.252 28.5187 117.366 28.69C117.429 28.788 117.505 28.8832 117.636 28.8913C117.698 28.8968 117.772 28.9131 117.813 28.8587C117.862 28.7989 117.813 28.739 117.777 28.6873C117.682 28.5459 117.584 28.4071 117.481 28.2711V28.2739ZM116.89 27.7298C116.643 27.7325 116.585 27.6237 116.602 27.4034C116.621 27.1014 116.637 27.0797 117.018 27.0906C117.198 27.1042 117.443 27.077 117.456 27.3898C117.467 27.6237 117.268 27.7244 116.89 27.7298Z" fill="#ffffff"/>
</svg>