<svg xmlns="http://www.w3.org/2000/svg" width="88" height="26" viewBox="0 0 88 26" fill="none">
<path d="M56.1316 0.792269C52.3009 0.792269 48.4702 0.792269 44.6395 0.792269C40.7952 0.792269 36.9482 0.792269 33.1039 0.792269C32.5248 0.792269 32.4922 0.827601 32.4922 1.40107C32.4922 2.92578 32.4922 4.45321 32.4922 5.97793C32.4922 6.58129 32.5058 6.59488 33.1366 6.59488C35.2463 6.59488 37.3561 6.59488 39.4658 6.59488C40.0767 6.59488 40.382 6.89384 40.382 7.49177C40.382 13.1911 40.382 18.8904 40.382 24.5898C40.382 25.2583 40.3901 25.2638 41.0616 25.2665C42.856 25.2665 44.6531 25.2665 46.4475 25.2665C47.0728 25.2665 47.3855 24.9603 47.3855 24.3479C47.3855 18.7681 47.3855 13.1884 47.3855 7.60863C47.3855 6.41822 47.3964 6.60575 48.4159 6.60031C50.3462 6.58944 52.2764 6.58944 54.2067 6.60575C54.5982 6.60847 54.794 6.47801 54.9217 6.10023C55.4601 4.52931 56.0256 2.96927 56.583 1.4065C56.795 0.808576 56.7868 0.789551 56.1316 0.789551V0.792269Z" fill="#ffffff"/>
<path d="M87.0243 24.7912C84.1425 16.9448 81.2607 9.09835 78.3843 1.24921C78.2619 0.912195 78.077 0.79261 77.7236 0.79261C74.4475 0.800763 71.1686 0.800763 67.8926 0.781738C67.4766 0.781738 67.2836 0.93122 67.1449 1.31444C66.3701 3.46697 65.5735 5.61136 64.7824 7.76117C62.708 13.4034 60.6309 19.0457 58.5565 24.6907C58.3499 25.2505 58.3634 25.2668 58.9534 25.2668C60.9734 25.2668 62.9934 25.2587 65.0135 25.275C65.4186 25.2777 65.6361 25.1636 65.7585 24.7559C66.1717 23.3643 66.6312 21.9891 67.0499 20.6003C67.1613 20.2279 67.3407 20.0676 67.7431 20.0676C71.0953 20.0785 74.4476 20.0785 77.7998 20.0676C78.1913 20.0676 78.387 20.2008 78.5039 20.584C78.9253 21.9864 79.3901 23.3779 79.8142 24.7803C79.9257 25.1473 80.1052 25.275 80.4858 25.2668C81.5026 25.2451 82.5194 25.2587 83.539 25.2587C84.5857 25.2587 85.6351 25.2587 86.6818 25.2587C87.1848 25.2587 87.1929 25.2451 87.0243 24.7885V24.7912ZM76.1984 14.8792C75.062 14.8765 73.9254 14.8792 72.7863 14.8792C71.6635 14.8792 70.5434 14.8847 69.4205 14.8792C68.9312 14.8765 68.885 14.8113 69.029 14.3492C69.8583 11.7102 70.6957 9.07389 71.5194 6.43215C71.62 6.11144 71.7886 5.96468 72.1312 5.97827C72.5933 5.99729 73.0582 5.98914 73.5231 5.9837C73.7841 5.98098 73.9336 6.09241 74.0152 6.34517C74.8607 9.04128 75.709 11.7374 76.5654 14.4281C76.6823 14.795 76.5165 14.8819 76.1984 14.8792Z" fill="#ffffff"/>
<path d="M25.0049 1.45202C25.0049 0.821483 24.9886 0.805176 24.3415 0.805176C22.4846 0.805176 20.6304 0.805176 18.7735 0.805176C18.2878 0.805176 18.045 1.04163 18.045 1.51453C18.045 4.14813 18.045 6.78172 18.045 9.4126C18.045 11.4918 18.0613 13.5709 18.0341 15.6501C18.0042 18.0554 16.8351 19.523 14.603 19.985C13.192 20.2786 11.7756 20.2623 10.3755 19.9171C8.73607 19.5121 7.72729 18.4793 7.39017 16.8106C7.26238 16.1773 7.21347 15.5386 7.21347 14.8945C7.21619 10.4073 7.21347 5.91745 7.21347 1.43028C7.21347 0.816047 7.20264 0.805176 6.57733 0.805176C4.69053 0.805176 2.80643 0.805176 0.919631 0.805176C0.267135 0.805176 0.261719 0.810612 0.261719 1.45202C0.261719 5.8794 0.261719 10.3095 0.261719 14.7369C0.261719 15.7696 0.348655 16.797 0.536247 17.8135C1.23768 21.5886 3.37743 24.089 7.09665 25.1843C8.4098 25.5702 9.7528 25.7577 11.1149 25.842C13.4448 25.986 15.7557 25.8719 18.0096 25.2413C20.9703 24.4151 23.1453 22.673 24.2247 19.7187C24.695 18.4304 24.9532 17.0905 24.975 15.7234C25.013 13.3616 24.9859 10.9971 24.9859 8.63258C24.9913 8.63258 24.994 8.63258 24.9994 8.63258C24.9994 6.23815 24.9994 3.84645 24.9994 1.45202H25.0049Z" fill="#ffffff"/>
</svg>