<svg xmlns="http://www.w3.org/2000/svg" width="66" height="66" viewBox="0 0 66 66" fill="none">
<path d="M64.3762 1.84787V64.478H1.72568V1.84787H64.3762ZM65.5453 0.679199H0.556641V65.6466H65.5453V0.679199Z" fill="#ffffff"/>
<path d="M33.3575 5.31083C33.3575 5.31083 32.8084 5.50651 32.8084 6.27294C32.8084 6.27294 32.8192 6.34089 32.9252 6.78389C33.0476 7.29757 32.5066 7.48238 32.4685 8.06672C32.4685 8.06672 32.4712 8.46352 32.6262 8.78695C32.8165 9.17832 32.6534 9.61046 32.2673 9.61318C31.9275 9.61861 31.7752 9.2816 31.9193 9.02069C32.0335 8.81685 32.2374 8.79511 32.2374 8.5804C32.2374 8.3222 31.8214 7.88734 32.2184 7.31931C32.0281 7.43346 31.6556 7.61827 31.6583 8.22707C31.661 8.84946 31.0684 8.91741 31.0684 9.68927C31.0684 10.4611 31.7154 11.5782 33.0503 11.5782C34.3852 11.5782 35.0214 10.5128 35.0214 9.64036C35.0214 8.83859 34.5266 8.88751 34.494 8.38471C34.4695 8.00149 34.4967 7.6672 33.9285 7.33291C33.9285 7.33291 34.1106 7.51228 34.1025 7.94713C34.1025 8.14282 33.8904 8.40917 33.8904 8.53963C33.8904 8.76521 34.0562 8.82772 34.1867 8.99623C34.3444 9.22181 34.2601 9.6159 33.8387 9.61862C33.4935 9.61862 33.3874 9.27617 33.4989 8.81142C33.6185 8.31677 34.0073 7.98247 33.6185 7.19973C33.3059 6.54744 32.6344 6.38709 33.3494 5.30811" fill="#ffffff"/>
<path d="M36.2075 15.5299C36.2075 17.2721 34.7937 18.6854 33.051 18.6854C31.3083 18.6854 29.8945 17.2721 29.8945 15.5299C29.8945 13.7878 31.3083 12.3745 33.051 12.3745C34.7937 12.3745 36.2075 13.7878 36.2075 15.5299Z" fill="#ffffff"/>
<path d="M33.0508 19.4748C29.8943 19.4748 28.709 16.7026 28.709 16.7026C28.709 19.4748 30.6828 21.0539 33.0508 21.0539C35.4188 21.0539 37.3926 19.4748 37.3926 16.7026C37.3926 16.7026 36.21 19.4748 33.0508 19.4748Z" fill="#ffffff"/>
<path d="M29.1035 21.8433H36.9987L33.0511 24.2105L29.1035 21.8433Z" fill="#ffffff"/>
<path d="M36.996 24.9995H29.1035V26.5786H36.996V24.9995Z" fill="#ffffff"/>
<path d="M36.996 36.0425H29.1035V37.6215H36.996V36.0425Z" fill="#ffffff"/>
<path d="M41.7347 21.8433H37.7871V40.7812H41.7347V21.8433Z" fill="#ffffff"/>
<path d="M28.3148 21.8435H24.3672V40.7815H28.3148V21.8435Z" fill="#ffffff"/>
<path d="M34.9142 29.2965C34.9142 27.3179 33.0492 27.3668 33.0492 27.3668C30.8687 27.3668 29.1016 29.1334 29.1016 31.3131C29.1016 32.8677 30.0015 34.2131 31.3092 34.8545L31.1787 34.7322C30.7301 34.2402 30.7518 33.2999 30.7518 33.2999C30.7518 32.7509 31.2385 31.112 33.0464 31.112C33.9137 31.112 34.3079 30.7369 34.5852 30.3537C34.955 29.8455 34.9088 29.2965 34.9088 29.2965M33.0437 30.0847C32.6087 30.0847 32.2553 29.7313 32.2553 29.2965C32.2553 28.8616 32.6087 28.5083 33.0437 28.5083C33.4787 28.5083 33.8322 28.8616 33.8322 29.2965C33.8322 29.7313 33.4787 30.0847 33.0437 30.0847Z" fill="#ffffff"/>
<path d="M34.7932 27.7679L34.9781 28.0097C35.3859 28.5968 35.3478 29.3496 35.3478 29.3496C35.3478 29.8959 34.9617 31.5294 33.0559 31.5294C32.3028 31.5294 31.7428 31.9506 31.4845 32.3447C31.1746 32.8231 31.1936 33.3367 31.1936 33.3367C31.1936 35.3099 33.0559 35.2582 33.0559 35.2582C35.2336 35.2582 36.9981 33.4998 36.9981 31.3282C36.9981 29.7791 36.0982 28.4065 34.7932 27.7651M33.0043 34.1575C32.5693 34.1575 32.2158 33.8042 32.2158 33.3693C32.2158 32.9345 32.5693 32.5812 33.0043 32.5812C33.4393 32.5812 33.7927 32.9345 33.7927 33.3693C33.7927 33.8042 33.4393 34.1575 33.0043 34.1575Z" fill="#ffffff"/>
<path d="M29.5527 38.3589H36.4556L33.0055 40.4299L29.5527 38.3589Z" fill="#ffffff"/>
<path d="M7.47397 49.26H8.52884V49.8389C8.39018 49.9477 8.22435 50.0373 8.0286 50.1134C7.83557 50.1895 7.63982 50.2276 7.44678 50.2276C7.05529 50.2276 6.73992 50.0917 6.50067 49.8226C6.2587 49.5508 6.13906 49.1459 6.13906 48.605C6.13906 48.1022 6.2587 47.7244 6.49523 47.469C6.73176 47.2135 7.05258 47.0857 7.45495 47.0857C7.72139 47.0857 7.94159 47.151 8.1183 47.2814C8.29502 47.4119 8.41739 47.5886 8.47992 47.8114L9.39613 47.6402C9.30369 47.2216 9.09979 46.8928 8.78169 46.6563C8.4636 46.4199 8.02045 46.3003 7.45495 46.3003C7.01995 46.3003 6.65564 46.3764 6.36201 46.5286C5.97867 46.727 5.68777 47.0097 5.48659 47.3793C5.28812 47.7489 5.1875 48.1702 5.1875 48.6458C5.1875 49.0834 5.27725 49.4883 5.45396 49.8607C5.6334 50.233 5.89982 50.5184 6.25326 50.7195C6.60941 50.9206 7.02537 51.0185 7.50115 51.0185C7.87633 51.0185 8.24882 50.9478 8.61313 50.8065C8.98016 50.6652 9.26018 50.4994 9.45321 50.3146V48.4963H7.4658V49.2655L7.47397 49.26Z" fill="#ffffff"/>
<path d="M12.3326 46.2952C11.9601 46.2952 11.6339 46.355 11.3484 46.4746C11.1337 46.5643 10.9379 46.7002 10.7585 46.885C10.579 47.0698 10.4377 47.2791 10.3343 47.5101C10.1957 47.8253 10.125 48.2167 10.125 48.6815C10.125 49.4071 10.3262 49.9779 10.7258 50.391C11.1255 50.8041 11.6665 51.0107 12.3435 51.0107C13.0205 51.0107 13.5506 50.8014 13.9503 50.3856C14.3499 49.9697 14.5511 49.3935 14.5511 48.657C14.5511 47.9205 14.3499 47.3334 13.9448 46.9176C13.5425 46.5018 13.0041 46.2925 12.3299 46.2925L12.3326 46.2952ZM13.2461 49.8284C13.0096 50.092 12.7078 50.2252 12.3408 50.2252C11.9737 50.2252 11.6693 50.092 11.4327 49.8257C11.1935 49.5593 11.0738 49.168 11.0738 48.6516C11.0738 48.1352 11.1907 47.7329 11.4218 47.4747C11.6529 47.2138 11.9602 47.0834 12.3408 47.0834C12.7214 47.0834 13.0259 47.2111 13.2543 47.4693C13.4826 47.7275 13.5996 48.1162 13.5996 48.6407C13.5996 49.1652 13.4826 49.5675 13.2461 49.8311V49.8284Z" fill="#ffffff"/>
<path d="M17.4182 50.9351L19.0521 46.3745H18.0734L16.956 49.7501L15.8005 46.3745H14.8027L16.434 50.9351H17.4182Z" fill="#ffffff"/>
<path d="M22.9925 50.1686H20.4451V48.9266H22.7342V48.1574H20.4451V47.1464H22.9055V46.3745H19.5234V50.9351H22.9925V50.1686Z" fill="#ffffff"/>
<path d="M27.8811 50.9339L27.3238 50.0451C27.1036 49.6891 26.9295 49.4445 26.799 49.3032C26.6685 49.1646 26.5054 49.0368 26.307 48.92C26.7066 48.8629 27.0084 48.7215 27.2096 48.4987C27.4108 48.2758 27.5114 47.9932 27.5114 47.6507C27.5114 47.3816 27.4461 47.1425 27.3129 46.9305C27.1797 46.7212 27.003 46.5744 26.7827 46.4929C26.5625 46.4114 26.2064 46.3706 25.7197 46.3706H23.7812V50.9339H24.7029V49.0287H24.8905C25.1026 49.0287 25.2575 49.045 25.3554 49.0803C25.4533 49.1156 25.5457 49.1781 25.6327 49.2706C25.7197 49.363 25.8828 49.5858 26.1194 49.9419L26.7855 50.9339H27.8865H27.8811ZM25.3826 48.3003H24.7002V47.1425H25.4207C25.7931 47.1425 26.0188 47.1479 26.0922 47.1588C26.2417 47.1832 26.3586 47.243 26.4402 47.3382C26.5217 47.4333 26.5625 47.5556 26.5625 47.7105C26.5625 47.8464 26.5326 47.9605 26.4701 48.053C26.4076 48.1454 26.3206 48.2079 26.2118 48.2459C26.1031 48.284 25.8257 48.303 25.3826 48.303V48.3003Z" fill="#ffffff"/>
<path d="M29.245 47.9617L31.0829 50.9351H32.0073V46.3745H31.1509V49.4212L29.2831 46.3745H28.3887V50.9351H29.245V47.9617Z" fill="#ffffff"/>
<path d="M36.5241 50.9351H37.3805V46.3745H35.9967L35.1783 49.4864L34.3491 46.3745H32.9707V50.9351H33.8271V47.3448L34.7297 50.9351H35.616L36.5241 47.3448V50.9351Z" fill="#ffffff"/>
<path d="M41.7668 50.1686H39.2166V48.9266H41.5085V48.1574H39.2166V47.1464H41.6798V46.3745H38.2949V50.9351H41.7668V50.1686Z" fill="#ffffff"/>
<path d="M43.413 47.9617L45.2509 50.9351H46.1753V46.3745H45.3189V49.4212L43.4511 46.3745H42.5566V50.9351H43.413V47.9617Z" fill="#ffffff"/>
<path d="M48.1781 50.9351H49.0998V47.1464H50.4483V46.3745H46.8242V47.1464H48.1781V50.9351Z" fill="#ffffff"/>
<path d="M54.8365 46.2952C54.4641 46.2952 54.1378 46.355 53.8523 46.4746C53.6376 46.5643 53.4418 46.7002 53.2624 46.885C53.083 47.0698 52.9416 47.2791 52.8383 47.5101C52.6996 47.8253 52.6289 48.2167 52.6289 48.6815C52.6289 49.4071 52.8301 49.9779 53.2298 50.391C53.6294 50.8041 54.1704 51.0107 54.8474 51.0107C55.5244 51.0107 56.0545 50.8014 56.4542 50.3856C56.8538 49.9697 57.055 49.3935 57.055 48.657C57.055 47.9205 56.8538 47.3334 56.4487 46.9176C56.0464 46.5018 55.5081 46.2925 54.8338 46.2925L54.8365 46.2952ZM55.75 49.8284C55.5135 50.092 55.2117 50.2252 54.8447 50.2252C54.4777 50.2252 54.1732 50.092 53.9366 49.8257C53.6974 49.5593 53.5777 49.168 53.5777 48.6516C53.5777 48.1352 53.6947 47.7329 53.9257 47.4747C54.1568 47.2138 54.4641 47.0834 54.8447 47.0834C55.2253 47.0834 55.5298 47.2111 55.7582 47.4693C55.9865 47.7275 56.1035 48.1162 56.1035 48.6407C56.1035 49.1652 55.9866 49.5675 55.75 49.8311V49.8284Z" fill="#ffffff"/>
<path d="M60.9105 47.1464V46.3745H57.7812V50.9351H58.7029V48.9972H60.6087V48.2254H58.7029V47.1464H60.9105Z" fill="#ffffff"/>
<path d="M17.9654 57.1349L17.139 54.0229H15.7578V58.5835H16.6142V54.9932L17.5169 58.5835H18.4059L19.3112 54.9932V58.5835H20.1676V54.0229H18.7838L17.9654 57.1349Z" fill="#ffffff"/>
<path d="M23.1002 53.9436C22.7277 53.9436 22.4015 54.0034 22.116 54.123C21.9012 54.2127 21.7055 54.3486 21.5261 54.5334C21.3466 54.7182 21.2052 54.9275 21.1019 55.1585C20.9633 55.4738 20.8926 55.8651 20.8926 56.3299C20.8926 57.0556 21.0938 57.6263 21.4934 58.0394C21.8931 58.4526 22.4341 58.6591 23.1111 58.6591C23.788 58.6591 24.3182 58.4498 24.7179 58.034C25.1175 57.6182 25.3187 57.042 25.3187 56.3054C25.3187 55.5689 25.1175 54.9819 24.7124 54.566C24.31 54.1502 23.7717 53.9409 23.0975 53.9409L23.1002 53.9436ZM24.0137 57.4768C23.7771 57.7405 23.4754 57.8736 23.1084 57.8736C22.7413 57.8736 22.4368 57.7405 22.2003 57.4741C21.9611 57.2078 21.8414 56.8164 21.8414 56.3C21.8414 55.7836 21.9583 55.3814 22.1894 55.1232C22.4205 54.8623 22.7277 54.7318 23.1084 54.7318C23.489 54.7318 23.7935 54.8596 24.0218 55.1178C24.2502 55.3759 24.3671 55.7646 24.3671 56.2891C24.3671 56.8137 24.2502 57.2159 24.0137 57.4796V57.4768Z" fill="#ffffff"/>
<path d="M28.8157 57.0697L26.948 54.0229H26.0508V58.5835H26.9072V55.6102L28.7451 58.5835H29.6694V54.0229H28.8157V57.0697Z" fill="#ffffff"/>
<path d="M32.7689 56.9045H33.8238V57.4835C33.6851 57.5922 33.5192 57.6819 33.3235 57.758C33.1305 57.8341 32.9347 57.8721 32.7417 57.8721C32.3502 57.8721 32.0348 57.7362 31.7956 57.4671C31.5536 57.1954 31.434 56.7904 31.434 56.2496C31.434 55.7468 31.5536 55.369 31.7901 55.1135C32.0267 54.858 32.3475 54.7303 32.7498 54.7303C33.0163 54.7303 33.2365 54.7955 33.4132 54.926C33.5899 55.0564 33.7123 55.2331 33.7748 55.4559L34.691 55.2847C34.5986 54.8662 34.3947 54.5373 34.0766 54.3009C33.7585 54.0644 33.3153 53.9448 32.7498 53.9448C32.3148 53.9448 31.9506 54.0209 31.6569 54.1731C31.2736 54.3715 30.9827 54.6542 30.7815 55.0238C30.583 55.3934 30.4824 55.8147 30.4824 56.2903C30.4824 56.7279 30.5721 57.1329 30.7489 57.5052C30.9283 57.8775 31.1947 58.1629 31.5482 58.364C31.9043 58.5652 32.3203 58.663 32.7961 58.663C33.1713 58.663 33.5437 58.5923 33.908 58.451C34.2751 58.3097 34.5551 58.1439 34.7481 57.9591V56.1408H32.7607V56.91L32.7689 56.9045Z" fill="#ffffff"/>
<path d="M37.6256 53.9436C37.2531 53.9436 36.9269 54.0034 36.6414 54.123C36.4266 54.2127 36.2309 54.3486 36.0514 54.5334C35.872 54.7182 35.7306 54.9275 35.6273 55.1585C35.4887 55.4738 35.418 55.8651 35.418 56.3299C35.418 57.0556 35.6191 57.6263 36.0188 58.0394C36.4185 58.4526 36.9595 58.6591 37.6365 58.6591C38.3134 58.6591 38.8436 58.4498 39.2432 58.034C39.6429 57.6182 39.8441 57.042 39.8441 56.3054C39.8441 55.5689 39.6429 54.9819 39.2378 54.566C38.8354 54.1502 38.2971 53.9409 37.6229 53.9409L37.6256 53.9436ZM38.5391 57.4768C38.3025 57.7405 38.0008 57.8736 37.6337 57.8736C37.2667 57.8736 36.9622 57.7405 36.7257 57.4741C36.4864 57.2078 36.3668 56.8164 36.3668 56.3C36.3668 55.7836 36.4837 55.3814 36.7148 55.1232C36.9459 54.8623 37.2531 54.7318 37.6337 54.7318C38.0144 54.7318 38.3189 54.8596 38.5472 55.1178C38.7756 55.3759 38.8925 55.7646 38.8925 56.2891C38.8925 56.8137 38.7756 57.2159 38.5391 57.4796V57.4768Z" fill="#ffffff"/>
<path d="M41.5095 54.062H40.5879V58.5845H43.8014V57.8181H41.5095V54.062Z" fill="#ffffff"/>
<path d="M45.3513 54.0229H44.4297V58.5862H45.3513V54.0229Z" fill="#ffffff"/>
<path d="M47.5417 54.0229L45.7637 58.5862H46.7424L47.1203 57.5507H48.9446L49.3443 58.5862H50.3475L48.5205 54.0229H47.5472H47.5417ZM47.4004 56.7789L48.0175 55.0856L48.6456 56.7789H47.4004Z" fill="#ffffff"/>
</svg>