<svg xmlns="http://www.w3.org/2000/svg" width="140" height="29" viewBox="0 0 140 29" fill="none">
<path d="M38.1539 14.2793C36.6395 12.828 34.5679 12.0996 31.9416 12.0996C29.3153 12.0996 27.3197 12.8307 25.8108 14.2902C24.3047 15.7497 23.5488 17.6984 23.5488 20.139C23.5488 22.5796 24.3047 24.5283 25.8108 25.9878C27.3197 27.4473 29.3615 28.1784 31.9416 28.1784C34.5216 28.1784 36.6395 27.4527 38.1539 26.0014C39.6682 24.5474 40.4268 22.5959 40.4268 20.1417C40.4268 17.6875 39.6682 15.7334 38.1539 14.282M35.6146 23.7755C34.8914 24.474 33.668 24.8246 31.9443 24.8246C30.2206 24.8246 29.0081 24.474 28.3093 23.7755C27.6106 23.077 27.2626 21.8648 27.2626 20.1417C27.2626 18.4186 27.6106 17.2064 28.3093 16.508C29.0081 15.8095 30.2206 15.4616 31.9443 15.4616C33.668 15.4616 34.8941 15.8095 35.6146 16.508C36.3378 17.2064 36.6966 18.4186 36.6966 20.1417C36.6966 21.8648 36.335 23.077 35.6146 23.7755Z" fill="#ffffff"/>
<path d="M94.7691 14.2793C93.2548 12.828 91.1831 12.0996 88.5568 12.0996C85.9305 12.0996 83.935 12.8307 82.4261 14.2902C80.9199 15.7497 80.1641 17.6984 80.1641 20.139C80.1641 22.5796 80.9199 24.5283 82.4261 25.9878C83.935 27.4473 85.9767 28.1784 88.5568 28.1784C91.1369 28.1784 93.2548 27.4527 94.7691 26.0014C96.2835 24.5474 97.042 22.5959 97.042 20.1417C97.042 17.6875 96.2835 15.7334 94.7691 14.282M92.2298 23.7755C91.5066 24.474 90.2832 24.8246 88.5595 24.8246C86.8358 24.8246 85.6233 24.474 84.9246 23.7755C84.2259 23.077 83.8779 21.8648 83.8779 20.1417C83.8779 18.4186 84.2259 17.2064 84.9246 16.508C85.6233 15.8095 86.8386 15.4616 88.5595 15.4616C90.2805 15.4616 91.5093 15.8095 92.2298 16.508C92.953 17.2064 93.3146 18.4186 93.3146 20.1417C93.3146 21.8648 92.953 23.077 92.2298 23.7755Z" fill="#ffffff"/>
<path d="M58.1393 15.3904V24.8865C58.1393 26.3433 58.3595 27.3163 58.6531 27.9441H54.4092L48.6536 20.4891L46.6717 17.5538H46.4406L46.5793 20.4184V24.8947C46.5793 26.3515 46.7967 27.319 47.0931 27.9441H42.5664C42.8627 27.3163 43.0802 26.3433 43.0802 24.8757V15.3985C43.0802 13.9336 42.8627 12.9579 42.5664 12.3301H46.8103L52.4055 19.7172L54.5479 23.0031H54.8034L54.6403 19.8558V15.3958C54.6403 13.9309 54.4228 12.9579 54.1264 12.3301H58.6504C58.3568 12.9552 58.1366 13.9282 58.1366 15.3877" fill="#ffffff"/>
<path d="M77.4872 24.8883C77.4872 26.3532 77.5524 27.1169 78.0173 27.9486H74.2464V24.592H74.0589C73.4336 26.9837 71.5902 28.1796 68.5099 28.1796C66.1337 28.1796 64.2578 27.4539 62.8713 26.0026C61.4874 24.5458 60.7969 22.5917 60.7969 20.1429C60.7969 17.6941 61.5772 15.7346 63.1268 14.2805C64.682 12.8292 66.7917 12.1035 69.4696 12.1035C71.9219 12.1035 73.8713 12.6417 75.3068 13.7206C76.6145 14.7018 77.324 16.0063 77.4382 17.6316L73.5695 18.148V18.1344C73.5695 17.2212 73.2378 16.5445 72.5799 16.1096C71.9192 15.6748 70.848 15.4546 69.3745 15.4546C67.5856 15.4546 66.3268 15.8025 65.5954 16.5037C64.8641 17.2022 64.4998 18.4171 64.4998 20.1429C64.4998 21.8687 64.8532 23.0782 65.5628 23.7767C66.2643 24.4752 67.485 24.823 69.2114 24.823C70.9378 24.823 72.2455 24.6491 72.9143 24.2985C73.5804 23.9506 73.9392 23.2766 73.9882 22.2819H71.7561C70.2934 22.2819 69.5539 22.3851 68.9748 22.8118L69.2005 19.7515H77.6694C77.479 20.8523 77.4845 21.4719 77.4845 22.926V24.8856L77.4872 24.8883Z" fill="#ffffff"/>
<path d="M118.684 15.397V24.885C118.684 26.3526 118.901 27.3202 119.198 27.948H114.674C114.97 27.3229 115.188 26.3472 115.188 24.885V15.397C115.188 13.9348 114.97 12.9618 114.674 12.334H119.198C118.901 12.9618 118.684 13.9321 118.684 15.397Z" fill="#ffffff"/>
<path d="M109.427 24.798C110.892 24.798 111.917 24.355 112.532 23.7544L112.181 27.9426H99.1855C99.4819 27.3175 99.6966 26.3499 99.6994 24.8986V15.397C99.6994 13.9348 99.4819 12.9618 99.1855 12.334H103.712C103.416 12.9618 103.198 13.9348 103.198 15.4024V24.8008H109.43L109.427 24.798Z" fill="#ffffff"/>
<path d="M20.8946 15.4024V24.8796C20.8946 26.3445 21.1121 27.3202 21.4085 27.948H16.8845C17.1809 27.3229 17.3956 26.3499 17.3984 24.8932V20.0255L17.5153 17.5794H17.3494L16.3489 20.0255L13.0864 27.0158H8.8425L5.58002 20.0255L4.56594 17.5794H4.41368L4.55506 20.0255V24.8904C4.55506 26.3499 4.77256 27.3229 5.0689 27.948H0.544922C0.841264 27.3202 1.05877 26.3472 1.05877 24.8796V15.4024C1.05877 13.9375 0.841264 12.9618 0.544922 12.334H5.84918L10.9767 23.681H11.0909L16.0553 12.334H21.4085C21.1121 12.9618 20.8946 13.9375 20.8946 15.4024Z" fill="#ffffff"/>
<path d="M139.926 27.9441C138.986 27.2076 138.428 26.0172 137.912 24.8865L132.382 12.3301H127.393L121.904 24.8811C121.388 26.0117 120.83 27.2049 119.887 27.9441H124.93C124.859 27.1559 125.123 26.4982 125.444 25.7155L125.971 24.4952H133.779L134.304 25.7236C134.622 26.5064 134.883 27.1587 134.813 27.9441H139.926ZM127.322 21.3506L128.791 17.9479L129.821 15.5263H129.924L130.96 17.9479L132.428 21.3506H127.325H127.322Z" fill="#ffffff"/>
<path d="M83.1883 3.11086L81.9757 7.66054C81.9757 7.66054 81.6794 7.64151 81.0785 7.64151C80.4777 7.64151 80.1433 7.66054 80.1433 7.66054L78.9634 2.70046C78.8954 2.39606 78.8682 2.16776 78.8682 2.11884C78.86 2.15689 78.8301 2.36617 78.7622 2.70046L77.6557 7.66054C77.6557 7.66054 77.3294 7.64151 76.7286 7.64151C76.1277 7.64151 75.7743 7.66054 75.7743 7.66054L74.5808 3.11086C74.2382 1.76553 74.037 1.19478 73.6836 0.849609C73.6836 0.849609 74.0642 0.868636 74.7901 0.868636C75.5921 0.868636 75.9945 0.849609 75.9945 0.849609C75.8695 0.933863 75.6873 1.09693 75.6873 1.45025C75.6873 1.78455 75.8314 2.32812 75.9945 3.04292L76.7775 6.42935C76.8237 6.66852 76.8536 6.90769 76.8618 6.94574C76.8618 6.91856 76.9107 6.68755 76.9678 6.42935L78.1967 0.849609C78.1967 0.849609 78.5202 0.868636 79.0069 0.868636C79.4935 0.868636 79.8062 0.849609 79.8062 0.849609L81.1139 6.38043C81.171 6.62776 81.2281 6.9702 81.2281 6.9702C81.2281 6.9702 81.2661 6.65765 81.3341 6.38043L82.0981 3.04292C82.2585 2.32812 82.3917 1.78455 82.3917 1.45025C82.3917 1.09693 82.2123 0.933863 82.0872 0.849609C82.0872 0.849609 82.4597 0.868636 83.1176 0.868636C83.7755 0.868636 84.08 0.849609 84.08 0.849609C83.7266 1.19206 83.5363 1.76553 83.1828 3.11086" fill="#ffffff"/>
<path d="M85.8123 5.08414C85.8123 6.03811 86.2228 6.8888 87.3783 6.8888C88.6968 6.8888 89.0204 6.26913 89.0204 6.26913C89.0204 6.96762 88.4957 7.76666 86.9487 7.76666C85.6981 7.76666 84.4121 7.10079 84.4121 4.96184C84.4121 3.02674 85.4235 2.0918 86.8916 2.0918C89.0938 2.0918 89.2188 3.91275 89.2188 4.99174V5.08686H85.8123V5.08414ZM86.8807 2.80658C86.2799 2.80658 85.8204 3.13273 85.8123 4.49437L87.854 4.30412C87.854 3.59748 87.797 2.80658 86.8807 2.80658Z" fill="#ffffff"/>
<path d="M91.3247 7.64231C90.6097 7.64231 90.3242 7.66133 90.3242 7.66133L90.4085 7.49826C90.5798 7.18571 90.6478 7.02264 90.6478 5.0685V2.86704C90.6478 1.16024 90.5798 0.883016 90.4085 0.548721L90.3242 0.385648L92.0316 0.146484C92.0316 0.146484 92.0017 1.14665 92.0017 2.07072V5.06578C92.0017 6.98187 92.0588 7.16396 92.2409 7.49554L92.3252 7.65861C92.3252 7.65861 92.0397 7.63958 91.3247 7.63958" fill="#ffffff"/>
<path d="M95.8755 7.76632C94.2524 7.76632 93.4531 6.66831 93.4531 5.04847C93.4531 3.714 93.9969 2.09961 96.0767 2.09961C97.2105 2.09961 97.6508 2.47195 97.6508 2.47195C97.6508 2.47195 97.6319 2.68123 97.6319 3.11065C97.6319 3.54007 97.6508 3.95862 97.6508 3.95862C97.1343 3.09162 96.7917 2.9204 96.2398 2.9204C95.3997 2.9204 94.8859 3.53191 94.8859 4.92345C94.8859 5.96439 95.2203 6.86943 96.3459 6.86943C97.3953 6.86943 97.7487 6.24976 97.7487 6.24976C97.7487 6.93466 97.2539 7.76632 95.8782 7.76632" fill="#ffffff"/>
<path d="M101.247 7.77481C99.5207 7.77481 98.6426 6.66865 98.6426 5.00804C98.6426 3.58933 99.3114 2.0918 101.342 2.0918C103.069 2.0918 103.947 3.18709 103.947 4.84769C103.947 6.26913 103.278 7.77481 101.247 7.77481ZM101.285 2.90986C100.426 2.90986 100.092 3.57846 100.092 4.95097C100.092 6.32348 100.407 6.94587 101.304 6.94587C102.201 6.94587 102.495 6.27999 102.495 4.90476C102.495 3.52953 102.18 2.90986 101.282 2.90986" fill="#ffffff"/>
<path d="M112.664 7.64351C111.949 7.64351 111.664 7.66254 111.664 7.66254L111.748 7.49947C111.9 7.22225 111.987 7.15702 111.987 5.07786C111.987 3.99073 111.96 3.58848 111.808 3.35203C111.702 3.17265 111.504 2.96881 111.006 2.96881C110.291 2.96881 110.068 3.36018 110.014 3.50423C110.052 3.80047 110.068 4.18913 110.068 4.76259V5.06699C110.068 7.14614 110.155 7.22225 110.307 7.49675L110.392 7.65982C110.392 7.65982 110.098 7.64079 109.391 7.64079C108.684 7.64079 108.388 7.65982 108.388 7.65982L108.475 7.49675C108.627 7.21953 108.714 7.1543 108.714 5.07514C108.714 3.988 108.684 3.58577 108.543 3.34932C108.426 3.16994 108.236 2.9661 107.76 2.9661C106.931 2.9661 106.797 3.48249 106.797 3.48249V5.06699C106.797 7.13799 106.884 7.22225 107.037 7.49675L107.121 7.65982C107.121 7.65982 106.835 7.64079 106.129 7.64079C105.422 7.64079 105.117 7.65982 105.117 7.65982L105.204 7.49675C105.356 7.21953 105.443 7.14614 105.443 5.06699V4.72455C105.443 3.07481 105.356 2.80846 105.204 2.53124L105.117 2.36817L106.787 2.13172L106.74 3.39824C106.958 2.37904 107.627 2.09095 108.372 2.09095C109.22 2.09095 109.793 2.4334 109.973 3.25419C110.231 2.33828 110.889 2.08008 111.615 2.08008C112.341 2.08008 112.836 2.3274 113.083 2.77585C113.301 3.17809 113.339 3.63469 113.339 4.75173V5.06428C113.339 7.14343 113.426 7.21953 113.578 7.49404L113.662 7.6571C113.662 7.6571 113.377 7.63808 112.662 7.63808" fill="#ffffff"/>
<path d="M116.195 5.08414C116.195 6.03811 116.605 6.8888 117.758 6.8888C119.077 6.8888 119.4 6.26913 119.4 6.26913C119.4 6.96762 118.875 7.76666 117.328 7.76666C116.078 7.76666 114.789 7.10079 114.789 4.96184C114.789 3.02674 115.8 2.0918 117.269 2.0918C119.471 2.0918 119.596 3.91275 119.596 4.99174V5.08686H116.189L116.195 5.08414ZM117.263 2.80658C116.662 2.80658 116.206 3.13273 116.195 4.49437L118.236 4.30412C118.236 3.59748 118.179 2.80658 117.263 2.80658Z" fill="#ffffff"/>
<path d="M124.911 7.7468C124.242 7.7468 123.88 7.50762 123.682 7.21409C123.5 6.94774 123.434 6.5455 123.434 5.84974C123.434 3.83853 123.462 3.01773 123.462 3.01773H122.842C122.861 3.00686 123.184 2.71062 123.595 2.12085C123.995 1.53923 124.234 1.05273 124.234 1.05273H124.807V2.235H125.378C126.161 2.235 126.314 2.13172 126.314 2.13172C126.314 2.13172 126.303 2.27304 126.303 2.62636C126.303 2.97968 126.314 3.11286 126.314 3.11286C126.314 3.11286 126.169 3.01773 125.378 3.01773H124.807V5.85789C124.807 6.27916 124.835 6.45038 124.922 6.6216C125.028 6.83088 125.218 6.9559 125.58 6.9559C126.115 6.9559 126.363 6.67868 126.363 6.67868C126.363 7.01297 126.123 7.7468 124.911 7.7468Z" fill="#ffffff"/>
<path d="M129.681 7.77481C127.954 7.77481 127.076 6.66865 127.076 5.00804C127.076 3.58933 127.742 2.0918 129.776 2.0918C131.502 2.0918 132.38 3.18709 132.38 4.84769C132.38 6.26913 131.712 7.77481 129.681 7.77481ZM129.719 2.90986C128.86 2.90986 128.525 3.57846 128.525 4.95097C128.525 6.32348 128.841 6.94587 129.738 6.94587C130.635 6.94587 130.929 6.27999 130.929 4.90476C130.929 3.52953 130.613 2.90986 129.719 2.90986Z" fill="#ffffff"/>
</svg>