<svg xmlns="http://www.w3.org/2000/svg" width="126" height="27" viewBox="0 0 126 27" fill="none">
<path d="M75.3279 24.5318C75.1621 23.6648 75.1023 22.7842 75.0996 21.9063C75.0833 18.3541 75.0887 14.7992 75.0942 11.2469C75.0942 10.8909 75.0643 10.5376 75.0425 10.1843C75.0289 9.98313 75.0262 9.7793 74.9691 9.57818C74.8522 9.18409 74.6619 8.8199 74.4417 8.48017C73.7457 7.41205 72.7778 6.6891 71.5761 6.27055C70.3473 5.84385 69.0667 5.76232 67.7862 5.72427C66.7613 5.69437 65.7417 5.80037 64.7331 6.02595C63.2922 6.34665 62.0061 6.93915 60.9975 8.04803C60.7691 8.30079 60.5543 8.56442 60.3178 8.84164C60.2689 8.74924 60.2879 8.67585 60.2879 8.60518C60.2879 7.7708 60.2879 6.93371 60.2879 6.09933C60.2879 5.82754 60.2743 5.80852 59.9997 5.74601C59.5511 5.64273 59.0998 5.64273 58.6485 5.72698C57.0798 6.02051 55.8128 6.81141 54.8422 8.07249C54.4589 8.56985 54.1463 9.10799 53.9316 9.7032C53.8962 9.80104 53.8418 9.87986 53.714 9.86084C53.5726 9.83909 53.6134 9.72494 53.6134 9.6434C53.597 8.39319 53.5808 7.1457 53.5672 5.89549C53.5672 5.87646 53.5672 5.85472 53.5672 5.8357C53.5889 5.64545 53.5047 5.58838 53.3171 5.58838C52.061 5.59653 50.8022 5.59109 49.5461 5.59109C49.2879 5.59109 49.2852 5.59109 49.2852 5.85744C49.2852 12.3042 49.2852 18.7536 49.2852 25.2004C49.2852 25.4613 49.2906 25.464 49.5516 25.4667C50.8756 25.4667 52.1969 25.4667 53.521 25.4667C53.8119 25.4667 53.8091 25.4667 53.8118 25.1678C53.8309 22.227 53.7766 19.2863 53.8418 16.3456C53.8663 15.3047 54.0593 14.2964 54.3937 13.3152C54.6057 12.6983 54.9809 12.1656 55.4431 11.709C55.995 11.1681 56.6802 10.8474 57.4224 10.649C58.0939 10.4669 58.7763 10.4887 59.4614 10.5186C59.63 10.5267 59.6789 10.5947 59.6381 10.7686C59.562 11.0866 59.5077 11.4127 59.4479 11.7362C59.4017 11.9971 59.4397 12.0433 59.698 12.0433C61.0465 12.0433 62.3976 12.0433 63.7461 12.046C63.9147 12.046 63.98 12.0052 64.0018 11.8204C64.1785 10.3827 64.9288 9.56187 66.3317 9.21127C67.0766 9.02374 67.8351 9.07809 68.5855 9.18681C69.1836 9.27378 69.6621 9.58362 70.0318 10.0647C70.3526 10.4805 70.5158 10.9507 70.5294 11.4725C70.5403 11.8666 70.5702 12.2607 70.4152 12.6412C70.195 13.1875 69.7329 13.462 69.2353 13.6848C68.6372 13.9539 67.9928 14.0681 67.3484 14.1632C66.25 14.3263 65.1436 14.4241 64.0534 14.6388C63.0774 14.8318 62.1068 15.022 61.2395 15.5547C60.1792 16.207 59.4425 17.1039 59.108 18.3079C58.8933 19.0798 58.8877 19.8734 58.9095 20.6724C58.9339 21.5938 59.1569 22.4499 59.5919 23.2571C60.1656 24.3225 61.022 25.0645 62.1503 25.4857C63.091 25.8363 64.0697 25.9532 65.0729 25.9179C65.701 25.8961 66.3154 25.8092 66.9244 25.6706C68.3082 25.3607 69.5261 24.7574 70.4695 23.6702C70.5728 23.5506 70.6762 23.4283 70.7958 23.2897C70.8257 23.518 70.7958 23.7083 70.8311 23.8985C70.9181 24.3307 71.0106 24.7601 71.0731 25.1949C71.0976 25.358 71.1547 25.4015 71.3069 25.4015C72.6771 25.3988 74.0448 25.4015 75.415 25.3988C75.6244 25.3988 75.6515 25.3607 75.5509 25.1678C75.4449 24.9666 75.3687 24.7601 75.3279 24.5399V24.5318ZM70.532 15.976C70.532 16.8457 70.543 17.7127 70.5267 18.5824C70.5131 19.3162 70.3852 20.031 70.0671 20.7051C69.6322 21.6346 68.9064 22.2243 67.933 22.4961C66.8374 22.8032 65.739 22.7543 64.6815 22.3412C64.0072 22.0776 63.602 21.5421 63.4851 20.8165C63.4226 20.4305 63.4118 20.0419 63.458 19.656C63.5912 18.5579 64.2382 17.8595 65.2279 17.4545C65.9809 17.1474 66.7748 16.9952 67.5741 16.8593C68.1042 16.7696 68.6344 16.6609 69.1591 16.5413C69.6349 16.4326 70.0536 16.2043 70.4098 15.8646C70.437 15.8401 70.456 15.7993 70.5076 15.8075C70.5511 15.8564 70.5294 15.9189 70.5294 15.976H70.532Z" fill="#ffffff"/>
<path d="M20.1377 16.4885C20.3144 16.2901 20.3579 16.0972 20.3579 15.8525C20.3525 11.3246 20.3553 6.7994 20.3553 2.27146C20.3553 1.69256 20.3553 1.11366 20.3553 0.534759C20.3553 0.26841 20.3552 0.268407 20.0969 0.268407C19.6701 0.268407 19.2405 0.268407 18.8136 0.268407C17.8539 0.268407 16.8916 0.273846 15.9319 0.262974C15.728 0.262974 15.6545 0.3282 15.679 0.523886C15.6872 0.58096 15.679 0.643469 15.679 0.700544C15.679 6.00307 15.679 11.3083 15.679 16.6108C15.679 16.6842 15.679 16.7549 15.679 16.8283C15.679 16.9288 15.63 16.9587 15.5322 16.9696C15.3364 16.9886 15.2712 16.8446 15.1923 16.7168C13.9526 14.6757 12.7155 12.6346 11.4785 10.5935C9.43673 7.22338 7.39502 3.85597 5.35869 0.483119C5.26082 0.320049 5.1548 0.260254 4.96721 0.260254C3.46647 0.26569 1.96571 0.262974 0.464972 0.262974C0.256535 0.262974 0.152344 0.367157 0.152344 0.575525C0.152344 4.68219 0.152344 8.78887 0.152344 12.8928C0.152344 16.9968 0.152344 21.1306 0.152344 25.2509C0.152344 25.5145 0.152333 25.5145 0.413332 25.5145C1.80804 25.5145 3.20544 25.5145 4.60016 25.5172C4.77144 25.5172 4.84759 25.4656 4.83127 25.2916C4.82584 25.221 4.83127 25.1476 4.83127 25.0742C4.83127 19.3287 4.83127 13.5859 4.83127 7.84034C4.83127 7.76696 4.83127 7.69629 4.83127 7.6229C4.83127 7.55768 4.8313 7.48429 4.92101 7.47071C4.99442 7.45983 5.06782 7.4544 5.11948 7.52235C5.14666 7.55768 5.16563 7.60116 5.1901 7.64193C5.71753 8.59046 6.24771 9.53627 6.77514 10.4848C7.57173 11.9144 8.37106 13.344 9.17036 14.7736C9.91258 16.1053 10.6521 17.4398 11.397 18.7715C12.2697 20.3397 13.1451 21.9079 14.0205 23.4734C14.3549 24.0713 14.6866 24.6693 15.0183 25.2672C15.0808 25.3813 15.1542 25.4656 15.3065 25.4656C16.8861 25.4629 18.4657 25.4629 20.0453 25.4656C20.1948 25.4656 20.241 25.4031 20.2383 25.2617C20.2329 25.0253 20.2111 24.7834 20.2492 24.5524C20.2737 24.392 20.2193 24.2969 20.1377 24.1855C19.6809 23.5522 19.295 22.8782 19.121 22.109C18.8736 21.011 18.8681 19.9049 19.0774 18.8014C19.2405 17.9426 19.5532 17.1408 20.1459 16.4831L20.1377 16.4885Z" fill="#ffffff"/>
<path d="M36.7749 24.5432C36.5601 23.649 36.522 22.7331 36.5165 21.8226C36.4921 18.4009 36.5084 14.9791 36.5057 11.56C36.5057 11.2121 36.4921 10.8643 36.4758 10.5164C36.4187 9.31509 35.8913 8.34753 35.043 7.53761C34.3932 6.91522 33.5993 6.53472 32.7511 6.26566C31.9681 6.01833 31.1606 5.93408 30.3477 5.8607C29.3554 5.76829 28.363 5.77101 27.3761 5.88788C26.3158 6.01562 25.2828 6.26294 24.3068 6.71954C23.502 7.09732 22.8087 7.61643 22.246 8.30676C21.4113 9.32867 21.036 10.5354 20.8512 11.8155C20.8294 11.9677 20.8729 12.0492 21.0496 12.0465C22.4307 12.0438 23.8146 12.0438 25.1957 12.0465C25.3452 12.0465 25.3915 11.9949 25.4133 11.8427C25.6009 10.4647 26.2425 9.63851 27.6345 9.2417C28.3767 9.02971 29.1324 9.07319 29.8855 9.17104C30.7283 9.28247 31.3455 9.72004 31.718 10.4946C31.9953 11.0735 31.979 11.685 31.9273 12.2938C31.9002 12.6254 31.7534 12.938 31.4951 13.1581C31.1689 13.4381 30.799 13.6528 30.3885 13.7887C29.5647 14.0604 28.7111 14.1664 27.8601 14.2833C27.088 14.3893 26.305 14.4464 25.5438 14.6393C24.633 14.8704 23.714 15.0742 22.8821 15.539C21.8218 16.1314 21.066 16.9876 20.6718 18.1345C20.3891 18.958 20.3728 19.8196 20.3999 20.6866C20.4271 21.472 20.5712 22.2194 20.8947 22.9397C21.2672 23.7713 21.8001 24.4698 22.5477 24.9835C23.5319 25.6575 24.652 25.9184 25.8265 25.9809C26.9602 26.0407 28.064 25.8559 29.1515 25.5298C30.1874 25.2199 31.0655 24.6736 31.8077 23.8963C31.9654 23.7305 32.1068 23.5512 32.289 23.3392C32.3026 23.5648 32.3052 23.7414 32.3243 23.9154C32.3732 24.3665 32.5091 24.8041 32.5689 25.2525C32.5907 25.4102 32.6396 25.4645 32.8001 25.4645C34.1757 25.4591 35.5515 25.4591 36.9271 25.4645C37.1147 25.4645 37.1229 25.3912 37.0631 25.2498C36.9625 25.0134 36.8401 24.7878 36.7803 24.5378L36.7749 24.5432ZM31.9382 18.8547C31.9165 19.6049 31.7289 20.3224 31.3483 20.9801C30.8372 21.8607 30.0595 22.358 29.0808 22.5727C28.2081 22.7657 27.3436 22.6978 26.4844 22.4912C25.6253 22.2847 24.9429 21.5508 24.8831 20.6376C24.8423 20.0125 24.845 19.4119 25.1251 18.8276C25.3752 18.3057 25.7559 17.9307 26.2561 17.6589C26.9113 17.3028 27.6209 17.1235 28.3468 16.9848C29.0428 16.8544 29.7415 16.7239 30.4375 16.5826C31.003 16.4685 31.5005 16.2157 31.9409 15.77C31.9463 15.8542 31.9546 15.8923 31.9546 15.9303C31.9546 16.9033 31.9709 17.879 31.9437 18.852L31.9382 18.8547Z" fill="#ffffff"/>
<path d="M125.187 17.6822C124.061 17.954 122.936 18.2231 121.81 18.4894C121.696 18.5166 121.653 18.5683 121.639 18.6878C121.525 19.6663 121.027 20.4544 120.312 21.0823C119.393 21.8867 118.27 22.1993 117.061 22.1803C115.878 22.1612 114.913 21.6883 114.181 20.7534C113.6 20.006 113.235 19.1499 112.925 18.2638C112.874 18.1198 112.898 18.0763 113.045 18.0383C116.454 17.1522 119.864 16.2608 123.273 15.3693C123.819 15.2253 124.369 15.0867 124.915 14.9399C124.999 14.9182 125.089 14.9155 125.056 14.766C124.768 13.4206 124.287 12.1487 123.651 10.9284C122.737 9.17808 121.503 7.74034 119.757 6.77278C118.781 6.23193 117.751 5.88405 116.631 5.84056C115.603 5.7998 114.6 5.96558 113.621 6.28085C112.469 6.6532 111.419 7.20764 110.527 8.04202C109.758 8.76225 109.168 9.60206 108.717 10.5533C108.078 11.8959 107.773 13.3065 107.733 14.7823C107.73 15.4101 107.776 16.0325 107.868 16.6495C108.121 18.3236 108.657 19.9 109.464 21.3894C110.283 22.9005 111.411 24.1208 112.89 24.9878C114.323 25.8276 115.892 26.1837 117.55 26.0315C118.923 25.9037 120.239 25.545 121.446 24.8492C122.957 23.9795 124.11 22.7863 124.738 21.1312C125.135 20.0821 125.315 18.9895 125.374 17.8752C125.383 17.7447 125.38 17.6387 125.19 17.685L125.187 17.6822ZM112.289 14.9753C111.996 15.0514 111.99 15.0432 111.938 14.747C111.835 14.13 111.773 13.5103 111.865 12.8852C111.963 12.2384 112.221 11.6595 112.602 11.1241C113.301 10.1375 114.279 9.69175 115.443 9.56673C115.671 9.54227 115.9 9.51238 116.093 9.52325C117.235 9.49607 118.072 10.007 118.738 10.8387C119.2 11.4149 119.562 12.059 119.866 12.7303C119.959 12.9369 119.951 12.9505 119.733 13.0102C117.251 13.668 114.769 14.323 112.286 14.9807L112.289 14.9753Z" fill="#ffffff"/>
<path d="M107.596 9.98041C108.045 9.15962 108.599 8.42309 109.293 7.79255C109.388 7.70558 109.499 7.62405 109.524 7.48272C109.619 6.92012 109.711 6.35481 109.812 5.79222C109.839 5.63458 109.79 5.58838 109.63 5.58838C108.281 5.59381 106.93 5.59381 105.582 5.58838C105.416 5.58838 105.356 5.6536 105.318 5.8058C105.149 6.4608 104.964 7.11309 104.79 7.76809C103.754 11.641 102.721 15.514 101.688 19.3896C101.661 19.4902 101.664 19.6179 101.495 19.6152C101.335 19.6152 101.318 19.4983 101.291 19.395C101.199 19.0526 101.112 18.7074 101.022 18.365C100.19 15.234 99.3556 12.1031 98.5263 8.97209C98.2572 7.95562 97.9853 6.93915 97.7271 5.91996C97.6754 5.71612 97.5966 5.61283 97.3682 5.63458C97.1534 5.65632 96.9331 5.64002 96.7156 5.64002C95.5167 5.64002 94.3205 5.64002 93.1215 5.64002C92.8959 5.64002 92.8931 5.64545 92.9529 5.86016C93.0128 6.06944 93.0725 6.27599 93.1351 6.48527C93.7332 8.48017 94.334 10.4751 94.9321 12.4727C95.6091 14.7394 96.2861 17.0061 96.9631 19.2727C97.5666 21.2867 98.1702 23.3006 98.771 25.3172C98.8172 25.4694 98.8825 25.5265 99.0457 25.5265C99.8341 25.5184 100.625 25.5238 101.416 25.5238C102.207 25.5238 102.982 25.5184 103.765 25.5265C103.937 25.5265 104.01 25.4694 104.054 25.3091C104.176 24.8742 104.314 24.4394 104.448 24.0072C105.136 21.784 105.823 19.5608 106.509 17.3404C106.549 17.2099 106.593 17.0767 106.566 16.9354C106.503 16.612 106.465 16.2885 106.441 15.9597C106.373 15.0655 106.4 14.1713 106.509 13.2826C106.653 12.1139 107.033 11.0186 107.599 9.98858L107.596 9.98041Z" fill="#ffffff"/>
<path d="M85.8546 21.6735C85.213 21.755 84.5713 21.7577 83.9297 21.6626C83.3071 21.5729 82.8966 21.2386 82.7362 20.6189C82.6492 20.2792 82.5921 19.9395 82.5921 19.5889C82.5921 16.3247 82.5921 13.0633 82.5867 9.79919C82.5867 9.61709 82.6411 9.56274 82.8232 9.56274C83.8373 9.57089 84.8513 9.56274 85.8627 9.57089C86.0666 9.57089 86.1183 9.50566 86.1156 9.30998C86.1074 8.15218 86.1074 6.99437 86.1156 5.83656C86.1156 5.64903 86.0612 5.58653 85.8709 5.58924C84.865 5.5974 83.8563 5.59196 82.8503 5.59196C82.5893 5.59196 82.5893 5.59196 82.5893 5.32833C82.5893 3.79546 82.5893 2.2626 82.5893 0.729731C82.5893 0.468818 82.584 0.463379 82.3257 0.463379C81.037 0.463379 79.7456 0.463379 78.4569 0.463379C78.1633 0.463379 78.1605 0.463384 78.1605 0.756911C78.1605 2.27075 78.1605 3.78459 78.1605 5.29571C78.1605 5.52039 78.0446 5.63272 77.8126 5.63272C77.035 5.63272 76.2602 5.63816 75.4827 5.63001C75.2923 5.63001 75.2324 5.6898 75.2324 5.88005C75.2379 7.02426 75.2406 8.16848 75.2324 9.31541C75.2324 9.52197 75.3058 9.57089 75.4989 9.56817C76.2954 9.56002 77.092 9.56545 77.8886 9.56545C78.1605 9.56545 78.1605 9.56545 78.1605 9.83723C78.1605 11.7125 78.1605 13.5879 78.1605 15.4632C78.1605 17.2053 78.1605 18.9502 78.1605 20.6923C78.1605 21.2712 78.185 21.8474 78.272 22.4209C78.4705 23.739 79.1692 24.6876 80.379 25.2447C81.075 25.5654 81.8199 25.6959 82.5839 25.7068C83.7094 25.7258 84.8323 25.7176 85.9524 25.598C86.14 25.579 86.1972 25.5301 86.1944 25.3426C86.1863 24.2119 86.1917 23.0786 86.1917 21.948C86.1917 21.6544 86.1591 21.63 85.8546 21.668V21.6735Z" fill="#ffffff"/>
<path d="M48.4901 5.83603C47.8349 5.69742 47.185 5.7246 46.5407 5.91213C45.0943 6.32796 43.9444 7.15419 43.0771 8.38265C42.7672 8.82023 42.5225 9.29314 42.3403 9.79594C42.305 9.89378 42.2533 9.95357 42.1391 9.93998C42.0086 9.92368 42.0332 9.82312 42.0332 9.7443C42.0277 9.47523 42.0086 9.20616 42.0032 8.9371C41.9896 7.93149 41.9951 6.92589 41.9597 5.92028C41.9489 5.64578 41.957 5.64307 41.6851 5.64307C40.4616 5.64307 39.2356 5.64307 38.0121 5.64307C37.7892 5.64307 37.6777 5.75449 37.6777 5.97736C37.6777 9.17626 37.6777 12.3725 37.6777 15.5714C37.6777 18.7703 37.6777 21.98 37.6777 25.1844C37.6777 25.4109 37.7874 25.5241 38.0067 25.5241C39.3035 25.5241 40.6004 25.5241 41.8972 25.5241C42.122 25.5241 42.2343 25.4145 42.2343 25.1953C42.2343 22.597 42.2425 19.996 42.2316 17.3978C42.2262 16.3079 42.2941 15.2343 42.5469 14.1717C42.7671 13.2394 43.1722 12.4159 43.8437 11.7338C44.238 11.3342 44.722 11.0706 45.2331 10.8477C45.9373 10.5379 46.6821 10.4781 47.4352 10.4944C47.7805 10.5026 48.1285 10.5325 48.4738 10.5923C48.762 10.6439 48.7891 10.6031 48.7891 10.3096C48.7891 8.93981 48.7891 7.57274 48.7891 6.20294C48.7891 5.91757 48.7729 5.90126 48.4901 5.84146V5.83603Z" fill="#ffffff"/>
<path d="M91.7141 5.63797C90.3982 5.63797 89.0824 5.63797 87.7638 5.63797C87.5463 5.63797 87.4375 5.74487 87.4375 5.95868C87.4375 9.15759 87.4375 12.3538 87.4375 15.5527C87.4375 18.7516 87.4375 22.0021 87.4375 25.2255C87.4375 25.5136 87.4376 25.5136 87.7176 25.5136C89.0471 25.5136 90.3765 25.5136 91.706 25.5136C91.9914 25.5136 91.9942 25.5136 91.9942 25.2309C91.9942 18.7896 91.9942 12.3483 91.9942 5.90432C91.9942 5.63525 91.9941 5.63525 91.7141 5.63525V5.63797Z" fill="#ffffff"/>
<path d="M87.8915 4.39506C88.5087 4.3869 89.1286 4.39234 89.7458 4.39234C90.3629 4.39234 90.9827 4.3869 91.5999 4.39506C91.7902 4.39777 91.8473 4.33799 91.8473 4.14774C91.8392 3.04973 91.8392 1.95171 91.8473 0.853701C91.8473 0.658016 91.7821 0.611816 91.5972 0.611816C90.3602 0.617252 89.1259 0.617252 87.8889 0.611816C87.7013 0.611816 87.636 0.666172 87.6388 0.856421C87.6469 1.95443 87.6469 3.05244 87.6388 4.15045C87.6388 4.34614 87.7094 4.39506 87.8943 4.39234L87.8915 4.39506Z" fill="#ffffff"/>
</svg>