<svg xmlns="http://www.w3.org/2000/svg" width="162" height="32" viewBox="0 0 162 32" fill="none">
<path d="M16.1275 0.814743C7.32429 0.828332 0.94075 7.87027 0.957062 15.9831C0.973375 24.4138 7.62328 31.1649 16.1927 31.1514C25.2162 31.1378 31.4776 23.6963 31.3389 16.0456C31.4558 7.78602 24.8628 0.801153 16.1302 0.812024L16.1275 0.814743ZM16.0515 27.5964C9.73042 27.5801 4.55667 22.3428 4.56483 15.964C4.57298 9.51457 9.79292 4.35338 16.2907 4.36697C22.6281 4.38056 27.8372 9.65318 27.8344 16.0428C27.829 22.4461 22.5629 27.61 16.0515 27.5937V27.5964Z" fill="#ffffff"/>
<path d="M46.2686 5.98707C43.8027 5.76149 41.3259 5.91912 38.8546 5.88379C37.9955 5.87292 37.9492 5.92999 37.9492 6.78068C37.9492 9.95241 37.9492 13.1241 37.9492 16.2959C37.9492 19.4676 37.9492 22.6393 37.9492 25.8111C37.9492 26.7514 37.952 26.7514 38.9171 26.7541C39.5343 26.7541 40.1568 26.7215 40.7712 26.7623C41.3775 26.8031 41.6004 26.5938 41.5869 25.9714C41.5515 24.3325 41.576 22.6937 41.576 21.0548C41.576 20.1063 41.576 20.1009 42.5112 20.1063C44.3436 20.1172 46.1734 20.1443 47.9569 19.5845C53.6608 17.7988 54.0957 11.1673 51.4939 8.37062C50.0829 6.85134 48.2804 6.1746 46.2686 5.98979V5.98707ZM47.0596 16.4236C46.2821 16.7606 45.4665 16.8748 44.6264 16.8639C43.8163 16.8557 43.0061 16.8449 42.1959 16.8693C41.7229 16.8829 41.5569 16.6927 41.5651 16.2279C41.5868 15.1435 41.5733 14.0564 41.5733 12.9719C41.5733 11.8875 41.5787 10.8004 41.5705 9.71596C41.5678 9.34633 41.6331 9.09629 42.0898 9.1126C43.4302 9.1588 44.7732 9.03106 46.1109 9.2349C47.8318 9.49853 49.1124 10.6509 49.3163 12.1647C49.5909 14.2167 48.8214 15.6626 47.0624 16.4236H47.0596Z" fill="#ffffff"/>
<path d="M69.0943 16.4868C69.0943 15.2747 69.0726 14.0598 69.1025 12.8476C69.1161 12.285 68.9013 12.0866 68.3521 12.1138C67.6941 12.1464 67.0308 12.141 66.3701 12.1138C65.8644 12.0948 65.6742 12.3122 65.7095 12.7987C65.7313 13.1058 65.715 13.4157 65.715 13.8206C65.5518 13.6929 65.4811 13.6494 65.424 13.5923C63.7112 11.9127 61.6369 11.5431 59.3885 12.0595C54.8754 13.0922 52.3306 18.2235 54.0869 22.6563C55.1717 25.3987 57.5097 27.0212 60.3834 27.0294C62.398 27.0348 64.2006 26.4885 65.7122 24.8524C65.7122 25.3959 65.7231 25.7927 65.7095 26.1896C65.6932 26.6027 65.8781 26.7603 66.2831 26.7494C66.9438 26.7331 67.6072 26.7087 68.2651 26.7576C68.9122 26.8065 69.1134 26.5728 69.1079 25.9286C69.0808 22.7787 69.0971 19.6314 69.0971 16.4814L69.0943 16.4868ZM61.2073 23.9799C58.7822 23.9718 57.0558 22.1182 57.0394 19.5172C57.0259 16.9516 58.9398 14.9784 61.4655 14.9621C63.9368 14.9458 65.6987 16.7912 65.7095 19.4031C65.7204 21.9742 63.7357 23.9908 61.2073 23.9799Z" fill="#ffffff"/>
<path d="M138.915 13.1879C136.194 15.1121 135.283 17.8137 135.818 21.0235C136.164 23.0863 137.151 24.8094 138.988 25.902C141.596 27.4566 144.301 27.3859 147.006 26.152C147.949 25.7226 148.727 25.0676 149.358 24.2305C149.706 23.7712 149.722 23.4695 149.146 23.2113C148.681 23.0021 148.229 22.7493 147.803 22.4721C147.34 22.1731 147.049 22.1813 146.633 22.6379C144.469 25.0078 140.378 24.2169 139.399 21.2762C139.157 20.5451 139.22 20.4418 139.97 20.4418C142.335 20.4364 144.701 20.4418 147.066 20.4418C147.066 20.4174 147.066 20.3929 147.066 20.3657C147.941 20.3657 148.814 20.3576 149.689 20.3685C150.059 20.3739 150.247 20.219 150.255 19.8466C150.274 18.8465 150.312 17.8517 150.043 16.8679C148.773 12.2611 142.974 10.3233 138.915 13.1879ZM146.071 17.743C145.068 17.7485 144.067 17.743 143.064 17.743C142.02 17.743 140.973 17.7349 139.929 17.7457C139.538 17.7512 139.38 17.6533 139.521 17.2266C139.967 15.8731 141.321 14.8866 142.841 14.8431C144.665 14.7914 146 15.5633 146.555 16.9875C146.807 17.6397 146.75 17.7349 146.071 17.7376V17.743Z" fill="#ffffff"/>
<path d="M127.104 11.8727C123.98 11.6852 121.093 13.4192 119.785 16.2675C118.507 19.0533 119.094 22.7985 121.193 24.8994C123.308 27.0193 125.91 27.3862 128.713 26.7883C130.369 26.4349 131.753 25.5951 132.808 24.2444C133.15 23.8068 133.221 23.4942 132.617 23.2224C132.114 22.9969 131.63 22.7169 131.165 22.418C130.749 22.1516 130.508 22.2114 130.154 22.5865C128.901 23.9101 127.318 24.2498 125.578 23.8448C124.116 23.5024 123.257 22.5049 122.797 21.1134C122.637 20.6269 122.729 20.4231 123.3 20.4285C125.687 20.453 128.074 20.4394 130.461 20.4394C130.461 20.4149 130.461 20.3904 130.461 20.366C131.337 20.366 132.209 20.3524 133.085 20.3714C133.509 20.3796 133.694 20.2247 133.743 19.7952C134.224 15.5962 131.323 12.1255 127.104 11.87V11.8727ZM129.55 17.7514C128.55 17.7215 127.547 17.7433 126.544 17.7433C125.5 17.7433 124.456 17.7433 123.409 17.7405C123.129 17.7405 122.83 17.7732 122.96 17.2975C123.333 15.9359 124.727 14.8922 126.288 14.846C128.161 14.789 129.561 15.6396 130.056 17.0964C130.238 17.6318 130.075 17.7677 129.548 17.7514H129.55Z" fill="#ffffff"/>
<path d="M93.5489 11.8592C89.3485 11.8238 85.882 15.1722 85.8711 19.3849C85.8575 24.239 89.411 27.1009 93.4483 27.0112C97.7113 27.0383 101.077 23.728 101.093 19.4963C101.107 15.232 97.8118 11.8945 93.5516 11.8592H93.5489ZM93.519 23.747C91.0994 23.7633 89.3186 21.9614 89.3159 19.4936C89.3132 17.0285 91.0803 15.1151 93.3559 15.1233C95.8789 15.1342 97.6134 16.8328 97.6216 19.3033C97.6324 21.8473 95.8925 23.7307 93.519 23.747Z" fill="#ffffff"/>
<path d="M116.975 17.3598C116.769 13.639 113.884 11.3397 110.211 11.9594C108.849 12.1877 107.672 12.7612 106.688 13.7885C106.552 13.4162 106.601 13.0955 106.617 12.7884C106.642 12.2828 106.424 12.098 105.935 12.1225C105.424 12.1442 104.913 12.1279 104.399 12.1279C103.552 12.1279 103.129 12.541 103.129 13.3673C103.129 16.3678 103.129 19.371 103.129 22.3715C103.129 23.5211 103.129 24.6708 103.129 25.8204C103.129 26.4437 103.432 26.7563 104.037 26.7581C104.613 26.7581 105.19 26.7581 105.763 26.7581C106.601 26.7554 106.606 26.7527 106.606 25.8911C106.609 23.5076 106.584 21.124 106.617 18.7404C106.639 17.2185 107.283 15.9954 108.7 15.3404C110.567 14.4761 113.139 14.8893 113.485 17.8381C113.536 18.2838 113.577 18.7241 113.577 19.1726C113.577 21.4719 113.588 23.7712 113.569 26.0678C113.564 26.5923 113.737 26.7934 114.268 26.7663C114.947 26.7336 115.632 26.7282 116.315 26.7663C116.869 26.7989 117.079 26.6005 117.071 26.0433C117.027 23.1488 117.139 20.2543 116.978 17.3625L116.975 17.3598Z" fill="#ffffff"/>
<path d="M85.0731 12.1221C84.3689 12.1194 83.6648 12.1492 82.9634 12.1112C82.4495 12.084 82.2049 12.296 82.0282 12.7662C81.169 15.0356 80.2772 17.2914 79.3964 19.5527C79.0647 20.4006 78.7303 21.2459 78.366 22.17C78.0751 21.8547 78.037 21.5747 77.9473 21.3166C76.9631 18.4818 75.9817 15.6444 75.0002 12.8097C74.8887 12.4917 74.8208 12.1275 74.3641 12.1275C73.3826 12.1275 72.4011 12.1248 71.4223 12.1275C71.0933 12.1275 70.9384 12.2607 71.0661 12.6058C71.1259 12.7662 71.1723 12.9293 71.2321 13.0896C72.828 17.3784 74.4157 21.6699 76.0252 25.9532C76.2182 26.4696 76.2155 26.918 75.9844 27.4208C75.4135 28.6575 74.8751 29.9104 74.3341 31.1606C74.0595 31.7993 74.0921 31.8482 74.7691 31.8536C75.5167 31.8591 76.2644 31.8265 77.0066 31.8645C77.534 31.8917 77.8032 31.7015 78.0071 31.2068C79.4997 27.5866 81.0248 23.9773 82.5365 20.3653C83.5723 17.8921 84.6082 15.4161 85.6386 12.9401C85.954 12.1819 85.9132 12.1275 85.0704 12.1221H85.0731Z" fill="#ffffff"/>
<path d="M159.4 12.0077C159.272 12.0159 159.147 12.0349 159.019 12.0567C157.776 12.2605 156.741 12.8231 155.898 13.9619C155.898 13.4808 155.876 13.1438 155.903 12.8149C155.949 12.2741 155.702 12.1001 155.188 12.1192C154.549 12.1463 153.908 12.1518 153.271 12.1192C152.701 12.0893 152.48 12.285 152.488 12.8829C152.518 14.9457 152.499 17.0086 152.499 19.0714C152.499 21.3897 152.513 23.7081 152.491 26.0264C152.486 26.5781 152.66 26.7983 153.225 26.7629C153.84 26.7249 154.462 26.7167 155.077 26.7629C155.729 26.8146 155.919 26.57 155.911 25.9286C155.879 23.5885 155.881 21.2484 155.906 18.9111C155.928 16.8482 157.01 15.579 158.956 15.2855C159.462 15.2094 159.976 15.2175 160.482 15.3235C160.835 15.3969 161.009 15.2556 161.009 14.8941C161.009 14.4266 161.017 13.9592 161.017 13.4917C161.023 12.0838 160.84 11.918 159.4 12.0077Z" fill="#ffffff"/>
</svg>