<svg xmlns="http://www.w3.org/2000/svg" width="53" height="52" viewBox="0 0 53 52" fill="none">
<path d="M52.1302 39.2016C52.1302 39.0847 52.1248 38.9678 52.1194 38.851C52.1194 38.8021 52.1112 38.7531 52.103 38.7042C51.9888 38.0465 51.7034 37.4757 51.2303 37.0028C51.021 36.7936 50.7844 36.6115 50.5343 36.4538C50.1782 36.2283 49.8084 36.0353 49.4305 35.8505C49.0743 35.6765 48.7291 35.489 48.3865 35.2906C47.7993 34.9509 47.2283 34.5812 46.6819 34.1763C46.2414 33.8474 45.8173 33.4995 45.4122 33.1272C45.0343 32.782 44.6754 32.4151 44.3383 32.0292C43.8979 31.5264 43.4982 30.9937 43.1421 30.4311C42.892 30.0343 42.6663 29.6239 42.4678 29.1972C42.4243 29.1021 42.389 29.0042 42.3618 28.9009C42.3373 28.8112 42.3319 28.7188 42.3346 28.6264C42.3401 28.5123 42.3754 28.409 42.4461 28.3166C42.476 28.2785 42.5086 28.2405 42.544 28.2052C42.6174 28.1318 42.7016 28.0666 42.7886 28.0095C43.2182 27.7295 43.6478 27.4496 44.0746 27.1697C44.39 26.9631 44.7053 26.7593 45.0153 26.5473C45.5155 26.2021 45.9804 25.8216 46.391 25.3704C46.8722 24.8432 47.2419 24.2507 47.4676 23.5739C47.5818 23.2342 47.6524 22.8836 47.6769 22.5249C47.6932 22.2966 47.7014 22.0683 47.6769 21.8427C47.6715 21.7938 47.6715 21.7448 47.666 21.6959C47.6633 21.6579 47.6606 21.6225 47.6551 21.5845C47.6225 21.3643 47.579 21.1469 47.5192 20.9322C47.3833 20.4484 47.1767 19.9945 46.8885 19.5814C46.4535 18.959 45.8853 18.4943 45.2002 18.1763C44.5939 17.8936 43.9523 17.7496 43.2835 17.736C43.0796 17.7333 42.8757 17.7414 42.6718 17.7469C42.6283 17.7469 42.5848 17.7523 42.5413 17.7578C42.283 17.7904 42.0274 17.8257 41.7746 17.8855C41.7202 17.8991 41.6658 17.9045 41.6114 17.9127C41.5761 17.9181 41.5326 17.8855 41.5299 17.8529C41.5245 17.7849 41.5163 17.717 41.5163 17.6518C41.5163 17.2685 41.5163 16.8853 41.5163 16.4912C41.5081 16.3254 41.4972 16.1461 41.4918 15.9694C41.4836 15.7656 41.4809 15.5617 41.4755 15.3579C41.4755 15.2954 41.47 15.2356 41.4646 15.1731C41.4591 15.0752 41.451 14.9774 41.4429 14.8768C41.4374 14.8143 41.4374 14.7545 41.432 14.692C41.4238 14.5697 41.4129 14.4474 41.4048 14.3224C41.4021 14.2735 41.4021 14.2245 41.3966 14.1756C41.364 13.9011 41.3341 13.6239 41.2988 13.3494C41.2553 12.9879 41.1954 12.6292 41.1275 12.2704C41.0323 11.7785 40.9155 11.2947 40.7714 10.8137C40.5783 10.175 40.3418 9.55257 40.0536 8.94921C39.7409 8.30236 39.3739 7.68812 38.9552 7.10651C38.5691 6.57109 38.1532 6.05742 37.7046 5.57092C37.218 5.04366 36.6878 4.5626 36.1223 4.12231C35.2115 3.41567 34.23 2.82318 33.1833 2.34212C32.0795 1.83388 30.9295 1.46697 29.7387 1.22508C29.4233 1.16257 29.108 1.11093 28.7899 1.06473C28.412 1.00765 28.0314 0.975039 27.6507 0.939707C27.4169 0.917964 27.1831 0.907093 26.9493 0.901657C26.2016 0.882632 25.4567 0.890785 24.7118 0.961449C24.4481 0.98591 24.1844 1.00765 23.9206 1.0457C23.6515 1.08647 23.3823 1.12452 23.1158 1.17344C22.4661 1.29031 21.8245 1.45066 21.1938 1.64907C20.4923 1.86921 19.8099 2.141 19.1465 2.45898C18.7795 2.63564 18.4206 2.82861 18.0672 3.03245C17.5588 3.32598 17.0721 3.65212 16.6045 4.00544C16.2891 4.24461 15.9819 4.49193 15.691 4.75828C15.4953 4.93766 15.2995 5.11704 15.1146 5.30729C14.7259 5.7041 14.367 6.12808 14.0217 6.56294C13.4888 7.23696 13.0185 7.95447 12.6297 8.72091C12.2872 9.39493 12.0153 10.0934 11.7978 10.8164C11.6319 11.3735 11.5015 11.9388 11.3981 12.5096C11.3492 12.7759 11.3057 13.045 11.2758 13.3141C11.2432 13.5886 11.2105 13.8658 11.1806 14.1403C11.1616 14.3251 11.148 14.5099 11.1372 14.6947C11.1181 15.0644 11.0854 15.434 11.0854 15.8036C11.0854 15.858 11.0773 15.9151 11.0746 15.9694C11.0719 16.0183 11.0665 16.0673 11.0665 16.1162C11.0665 16.5592 11.061 17.0049 11.061 17.4479C11.061 17.5403 11.061 17.6327 11.061 17.7251C11.061 17.7632 11.0556 17.7985 11.0501 17.8366C11.042 17.8801 10.9985 17.9127 10.955 17.9072C10.887 17.8964 10.8217 17.8828 10.7538 17.8692C10.4085 17.7985 10.0633 17.7387 9.70982 17.7333C9.39445 17.7279 9.0818 17.7279 8.76643 17.7713C8.2988 17.8366 7.84744 17.9534 7.41788 18.1518C6.55332 18.5486 5.88456 19.1574 5.43053 19.9945C5.06079 20.674 4.8895 21.4078 4.87862 22.1797C4.87862 22.3292 4.8949 22.4759 4.90849 22.6227C4.95743 23.1581 5.1097 23.6636 5.34352 24.1447C5.62083 24.7182 6.00685 25.2128 6.46088 25.6558C6.77081 25.9575 7.10798 26.2293 7.46142 26.4793C7.91545 26.8 8.38847 27.0936 8.85066 27.398C9.16603 27.6045 9.48139 27.8111 9.79405 28.0176C9.89736 28.0856 9.99253 28.1644 10.0795 28.2541C10.1638 28.3411 10.2128 28.4443 10.2372 28.5639C10.2535 28.6427 10.2481 28.7243 10.2372 28.8031C10.21 28.9689 10.1502 29.1238 10.0795 29.276C9.86475 29.7272 9.62008 30.162 9.34548 30.5833C8.83708 31.3606 8.24713 32.0727 7.59191 32.7304C7.48316 32.8391 7.36898 32.9424 7.25751 33.0484C6.83339 33.4533 6.37937 33.8257 5.90631 34.1736C5.06079 34.7987 4.16901 35.3477 3.22561 35.8151C2.93742 35.9592 2.65199 36.1005 2.37196 36.2609C2.10824 36.4103 1.85267 36.5707 1.61886 36.7637C1.30621 37.0219 1.03974 37.3181 0.841275 37.6714C0.607464 38.0873 0.471537 38.533 0.44435 39.0086C0.419882 39.4272 0.487834 39.8321 0.631927 40.2262C0.781457 40.6312 1.0017 40.9926 1.27358 41.3242C1.61614 41.7428 2.02121 42.0934 2.48068 42.3815C2.95646 42.6804 3.46214 42.9278 3.97598 43.156C4.44361 43.3653 4.92483 43.542 5.4142 43.6942C5.62083 43.7567 5.82746 43.8192 6.03408 43.879C6.19449 43.9252 6.34945 43.9823 6.50442 44.0502C6.69745 44.1345 6.84423 44.2731 6.94482 44.4552C6.9856 44.5313 7.02099 44.6101 7.05633 44.6889C7.09711 44.7868 7.13243 44.8846 7.1705 44.9824C7.2874 45.2896 7.44236 45.5777 7.63267 45.844C7.8556 46.1593 8.12202 46.4311 8.43196 46.6621C8.76636 46.9121 9.1334 47.0996 9.52762 47.2301C9.96262 47.3741 10.414 47.4475 10.868 47.4937C11.0094 47.5073 11.1507 47.5182 11.2921 47.5264C11.5504 47.5399 11.8087 47.5562 12.0697 47.5644C12.521 47.578 12.9696 47.5943 13.4181 47.6378C13.6465 47.6595 13.8722 47.6813 14.0978 47.7112C14.5084 47.7655 14.9134 47.8416 15.3158 47.9476C15.585 48.0183 15.8514 48.0917 16.1124 48.1868C16.4386 48.3064 16.7459 48.464 17.0477 48.6325C17.3277 48.7901 17.6023 48.9559 17.8769 49.1217C18.4261 49.456 18.9698 49.793 19.538 50.0974C20.1525 50.429 20.7859 50.7198 21.4411 50.959C22.5721 51.3748 23.7385 51.6276 24.9375 51.7281C25.1087 51.7417 25.2827 51.758 25.454 51.7608C25.4975 51.7608 25.541 51.7662 25.5845 51.7689C25.6824 51.7743 25.7803 51.7852 25.8808 51.7852C26.2995 51.7852 26.7182 51.7934 27.1396 51.7635C27.4713 51.739 27.8057 51.72 28.1347 51.6792C28.2625 51.6629 28.3929 51.652 28.5207 51.6303C28.7573 51.5895 28.9965 51.5515 29.2303 51.5026C29.7033 51.4047 30.1683 51.2878 30.6277 51.1411C31.0519 51.0052 31.4679 50.8503 31.8757 50.6709C32.1747 50.5404 32.4711 50.4018 32.762 50.2524C33.3438 49.9534 33.9065 49.6218 34.4638 49.2794C34.8988 49.0103 35.3366 48.7412 35.7879 48.4993C36.0598 48.3526 36.3425 48.2276 36.6362 48.1324C37.3186 47.9096 38.0173 47.7628 38.7323 47.6813C38.8981 47.6622 39.0639 47.6514 39.2298 47.6351C39.4826 47.6079 39.7328 47.5916 39.9856 47.5807C40.2765 47.5671 40.5647 47.5807 40.8556 47.5454C40.8909 47.5399 40.929 47.5427 40.9671 47.5399C41.3124 47.5291 41.6577 47.5046 42.0002 47.4611C42.2694 47.4258 42.5385 47.3796 42.7995 47.3089C43.1992 47.1975 43.5825 47.0453 43.9332 46.8197C44.5748 46.4093 45.0452 45.8494 45.3469 45.1482C45.4013 45.0232 45.4475 44.8955 45.4965 44.7704C45.54 44.6563 45.5917 44.5421 45.6515 44.4362C45.7439 44.2758 45.869 44.1535 46.0375 44.0747C46.1109 44.0393 46.1843 44.0067 46.2577 43.9796C46.3692 43.9415 46.4807 43.9035 46.5921 43.8736C47.299 43.6752 47.995 43.4387 48.6666 43.137C49.1288 42.9305 49.5801 42.7049 50.0151 42.444C50.4691 42.1722 50.8687 41.8352 51.2167 41.4384C51.4696 41.1503 51.6871 40.835 51.8475 40.4844C52.0324 40.0822 52.1438 39.6609 52.1356 39.2124L52.1302 39.2016ZM49.145 39.3837C49.1151 39.4734 49.0662 39.5495 49.0037 39.6201C48.9031 39.7316 48.7916 39.8267 48.6692 39.9109C48.4952 40.0278 48.3104 40.1284 48.1255 40.2262C47.4567 40.5795 46.7552 40.8486 46.0293 41.0579C45.6623 41.1639 45.2926 41.2617 44.9229 41.3623C44.6918 41.4275 44.4607 41.4954 44.235 41.5797C44.0393 41.6558 43.8462 41.74 43.6668 41.846C43.6233 41.8705 43.5825 41.895 43.539 41.9221C43.297 42.0798 43.1312 42.2972 43.0387 42.569C43.0034 42.6723 42.9735 42.781 42.9545 42.8897C42.9219 43.0582 42.9028 43.2321 42.8757 43.4007C42.8539 43.5284 42.8322 43.6561 42.805 43.7839C42.7805 43.898 42.737 44.0095 42.6799 44.1127C42.6065 44.2459 42.5032 44.3492 42.3699 44.4226C42.2666 44.4796 42.1579 44.5231 42.0437 44.553C41.8153 44.6101 41.5842 44.6509 41.3504 44.659C41.2716 44.6617 41.19 44.6726 41.1112 44.678C41.0378 44.6835 40.9644 44.6889 40.8882 44.6916C40.7088 44.6971 40.5294 44.6998 40.3527 44.7161C40.2004 44.7297 40.0455 44.727 39.8905 44.7324C39.76 44.7378 39.6322 44.7487 39.5017 44.7569C39.4772 44.7569 39.4527 44.7623 39.4283 44.7623C39.0748 44.7704 38.7269 44.8085 38.3761 44.852C37.672 44.9362 36.9733 45.064 36.2882 45.2597C36.1522 45.2977 36.0163 45.3385 35.8804 45.3792C35.3393 45.5423 34.8282 45.7733 34.3333 46.0424C33.9364 46.2571 33.5531 46.4908 33.1698 46.7273C32.7375 46.9937 32.3079 47.2573 31.8648 47.5019C31.2096 47.8634 30.5326 48.1759 29.8203 48.4097C29.3445 48.5646 28.8578 48.6814 28.3657 48.7711C28.0014 48.8363 27.6344 48.8853 27.2646 48.9097C26.9194 48.9315 26.5741 48.9559 26.2289 48.9505C26.0875 48.9478 25.9461 48.9396 25.8047 48.9315C25.7612 48.9315 25.7177 48.926 25.6742 48.926C25.1794 48.9152 24.69 48.8554 24.2033 48.7711C23.2246 48.5999 22.2894 48.2901 21.3977 47.8525C20.8757 47.597 20.3727 47.3089 19.8779 47.0072C19.4728 46.7599 19.0677 46.5099 18.6571 46.268C18.3391 46.0805 18.0101 45.9065 17.6757 45.7489C17.276 45.5641 16.8628 45.4227 16.4414 45.3004C15.9031 45.1428 15.3539 45.0232 14.7966 44.9362C14.4377 44.8792 14.0761 44.8357 13.7118 44.8058C13.2442 44.7677 12.7765 44.7406 12.3062 44.727C12.0669 44.7188 11.825 44.7107 11.5857 44.6916C11.3519 44.6753 11.1154 44.6726 10.8843 44.6291C10.7565 44.6047 10.6287 44.5829 10.5037 44.5476C10.4139 44.5231 10.3297 44.4878 10.2454 44.447C10.085 44.3682 9.96807 44.2459 9.88651 44.0856C9.84301 44.004 9.8077 43.917 9.78867 43.8274C9.76149 43.7078 9.73701 43.5855 9.71798 43.4632C9.6908 43.3001 9.66632 43.1343 9.64457 42.9685C9.62826 42.8516 9.59834 42.7402 9.563 42.6261C9.45968 42.2999 9.26395 42.0499 8.96761 41.8787C8.78002 41.7699 8.58695 41.6748 8.38304 41.5987C8.13292 41.5063 7.88007 41.4275 7.6245 41.3568C7.27379 41.2617 6.92039 41.1666 6.57239 41.0687C6.03136 40.9165 5.50391 40.7236 4.99279 40.4898C4.68285 40.3485 4.38105 40.1963 4.08743 40.0251C3.95965 39.949 3.84007 39.862 3.72588 39.7696C3.65248 39.7098 3.58724 39.6446 3.53558 39.5685C3.50568 39.5223 3.47576 39.4734 3.45401 39.4244C3.3942 39.2831 3.41048 39.1472 3.49204 39.0195C3.5301 38.9624 3.57088 38.9081 3.62526 38.8673C3.69866 38.8102 3.77209 38.7531 3.84821 38.7042C3.91618 38.6607 3.98687 38.6227 4.06028 38.5901C4.46809 38.3971 4.865 38.1851 5.25922 37.9677C6.14824 37.4785 6.9938 36.9267 7.80126 36.3125C8.20907 36.0027 8.60053 35.6738 8.98387 35.3314C9.06543 35.258 9.14704 35.1792 9.2286 35.1031C9.32647 35.0107 9.42702 34.9182 9.5249 34.8231C9.56024 34.7905 9.59834 34.7552 9.63096 34.7198C10.0333 34.3013 10.4303 33.8773 10.7946 33.4261C11.3628 32.7249 11.8685 31.9803 12.3008 31.1866C12.6515 30.5452 12.9478 29.8821 13.1789 29.189C13.2605 28.9417 13.3339 28.6944 13.3856 28.4389C13.4291 28.2215 13.4562 28.0013 13.459 27.7785C13.4644 27.4741 13.3583 27.2104 13.1653 26.9821C13.0647 26.8653 12.9533 26.7565 12.8309 26.6641C12.6732 26.5446 12.5183 26.425 12.3551 26.3108C11.6972 25.8488 11.0229 25.4166 10.3514 24.9791C9.91641 24.6964 9.47596 24.4219 9.05456 24.1202C8.84794 23.9735 8.65493 23.8104 8.47006 23.6392C8.27431 23.4571 8.10845 23.2505 7.97251 23.0222C7.83385 22.7912 7.75504 22.5384 7.73057 22.2721C7.71698 22.109 7.74415 21.9514 7.77949 21.7965C7.80396 21.6959 7.83661 21.5954 7.87739 21.4975C8.02964 21.1306 8.29605 20.8778 8.66036 20.7284C8.88601 20.636 9.11985 20.5925 9.36453 20.5843C9.61194 20.5762 9.85661 20.5979 10.1013 20.6523C10.5173 20.742 10.9278 20.8643 11.3275 21.011C11.7543 21.1687 12.1811 21.3372 12.608 21.4975C12.7684 21.5573 12.9315 21.6171 13.0974 21.6715C13.1898 21.7041 13.2877 21.7285 13.3828 21.7503C13.5052 21.7802 13.6275 21.7829 13.7498 21.7639C13.9048 21.7421 14.0081 21.6551 14.0516 21.5029C14.0815 21.3888 14.0924 21.2719 14.0815 21.1551C14.0706 21.0328 14.0652 20.9077 14.0571 20.7854C14.0462 20.6251 14.0353 20.4647 14.0244 20.3044C14.0135 20.1196 14.0163 19.9347 13.9918 19.7499C13.9918 19.7391 13.9918 19.7255 13.9918 19.7119C13.981 19.2254 13.9401 18.7389 13.9428 18.2497C13.9428 18.1328 13.932 18.0159 13.9266 17.8991C13.9211 17.7931 13.9184 17.6898 13.9184 17.5838C13.9184 17.1897 13.9103 16.7929 13.9239 16.3988C13.9347 16.0673 13.9347 15.733 13.9592 15.4014C13.9782 15.1377 13.9891 14.8714 14.0108 14.6078C14.0353 14.3061 14.0679 14.0071 14.106 13.7054C14.1495 13.3494 14.212 12.9988 14.2854 12.6482C14.3914 12.1454 14.5247 11.6535 14.6932 11.1697C14.927 10.5038 15.2316 9.87056 15.6095 9.27263C15.914 8.79157 16.2592 8.34041 16.6235 7.90555C16.8492 7.63649 17.0911 7.38101 17.344 7.13368C17.9176 6.57652 18.5511 6.09547 19.2281 5.67148C19.8697 5.27196 20.544 4.93766 21.2454 4.66044C21.694 4.48378 22.1507 4.33702 22.6156 4.20928C23.1105 4.0761 23.6107 3.97011 24.1191 3.89673C24.3937 3.85868 24.6683 3.82334 24.9456 3.79888C25.174 3.77714 25.4023 3.7717 25.628 3.74996C25.7449 3.73909 25.8618 3.73909 25.9787 3.73909C26.2696 3.73909 26.5605 3.73365 26.8487 3.74724C27.1016 3.75812 27.3544 3.76627 27.6045 3.79888C27.7323 3.81519 27.8628 3.82334 27.9906 3.83693C29.1515 3.96195 30.2743 4.23646 31.3618 4.66044C32.3324 5.04094 33.2404 5.53287 34.0832 6.1471C34.6651 6.57109 35.2006 7.04128 35.6873 7.57126C35.9292 7.83489 36.1549 8.11211 36.3751 8.39477C36.6551 8.75624 36.9189 9.12858 37.1473 9.52539C37.4599 10.0662 37.7237 10.6288 37.9249 11.2213C38.1668 11.9307 38.3381 12.6564 38.4495 13.3956C38.5012 13.7381 38.5365 14.0805 38.5773 14.423C38.5828 14.4773 38.5855 14.5344 38.5882 14.5887C38.5964 14.7056 38.6072 14.8225 38.6154 14.9393C38.6154 14.9584 38.6181 14.9774 38.6208 14.9937C38.6453 15.4258 38.6725 15.8553 38.6698 16.2874C38.6698 16.6027 38.6698 16.9179 38.6698 17.2305C38.6698 17.2305 38.6752 17.2305 38.6779 17.2305C38.6697 17.7414 38.6725 18.2551 38.6535 18.7661C38.6426 19.0922 38.6344 19.4184 38.6018 19.7445C38.6018 19.7635 38.5991 19.7826 38.5964 19.7989C38.5964 20.1087 38.5664 20.4158 38.5501 20.7229C38.5474 20.7854 38.5447 20.8452 38.5366 20.9077C38.5175 21.0545 38.5175 21.204 38.5202 21.3507C38.5202 21.3997 38.5311 21.4486 38.5419 21.4975C38.5827 21.6524 38.6888 21.7367 38.8438 21.7584C38.9743 21.7747 39.102 21.772 39.2298 21.7394C39.3249 21.7149 39.4201 21.6878 39.5153 21.6579C39.8442 21.5519 40.1651 21.4214 40.4859 21.2964C41.016 21.0898 41.5462 20.8887 42.0953 20.7419C42.3292 20.6794 42.563 20.6224 42.8022 20.5952C43.1502 20.5571 43.4928 20.5707 43.8272 20.6822C43.8843 20.7012 43.9441 20.7256 43.9985 20.7501C44.3655 20.9186 44.6129 21.1931 44.7516 21.5736C44.8467 21.8345 44.8739 22.1009 44.8467 22.3754C44.8304 22.5493 44.776 22.7124 44.7026 22.87C44.5993 23.0902 44.4552 23.2831 44.2921 23.4598C44.0393 23.7343 43.7565 23.9708 43.4493 24.18C43.2155 24.3404 42.979 24.498 42.7397 24.6529C42.0002 25.134 41.258 25.6096 40.5266 26.107C40.2656 26.2836 40.0074 26.463 39.7627 26.6614C39.6567 26.7457 39.5588 26.8408 39.4664 26.9386C39.3929 27.0147 39.3332 27.1017 39.2815 27.1914C39.1972 27.3382 39.1483 27.4958 39.1428 27.667C39.132 27.9279 39.1564 28.1861 39.2108 28.4389C39.2761 28.746 39.3685 29.0477 39.4718 29.3439C39.7409 30.1158 40.0944 30.8496 40.5049 31.5536C40.7768 32.0183 41.0759 32.464 41.394 32.8962C41.6386 33.2305 41.8996 33.5512 42.1715 33.861C42.4841 34.217 42.8077 34.5676 43.1503 34.8965C43.5553 35.2852 43.974 35.6602 44.4144 36.0108C44.8766 36.3805 45.3551 36.7338 45.8499 37.0599C46.4018 37.4241 46.9673 37.7638 47.5491 38.0791C47.8754 38.2558 48.2043 38.4243 48.5387 38.5846C48.6556 38.6417 48.7698 38.7042 48.8731 38.7803C48.9438 38.832 49.0091 38.889 49.0635 38.9543C49.1016 39.0032 49.1341 39.0548 49.1559 39.1146C49.1885 39.2043 49.1885 39.294 49.1586 39.3864L49.145 39.3837Z" fill="#ffffff"/>
</svg>