<svg xmlns="http://www.w3.org/2000/svg" width="124" height="54" viewBox="0 0 124 54" fill="none">
<path d="M17.9032 38.872V35.1594H3.81746C2.83872 35.1594 1.90076 35.5481 1.2102 36.2384C0.519638 36.9287 0.130859 37.8691 0.130859 38.8448V42.609C0.130859 43.5875 0.519638 44.5251 1.2102 45.2155C1.90076 45.9058 2.84144 46.2944 3.81746 46.2944H14.986V50.007H0.38642V53.7196H15.0132C15.4971 53.7196 15.9784 53.6245 16.4242 53.4397C16.8728 53.2549 17.2779 52.9831 17.6205 52.6406C17.963 52.2982 18.2349 51.8905 18.4198 51.4448C18.6047 50.9963 18.6998 50.518 18.6998 50.0342V46.27C18.6998 45.2916 18.311 44.3539 17.6205 43.6636C16.9299 42.9732 15.9892 42.5846 15.0132 42.5846H3.84193V38.872H17.9032Z" fill="#ffffff"/>
<path d="M21.8613 38.8448V50.0369C21.8613 50.5207 21.9565 51.0018 22.1414 51.4475C22.3262 51.8959 22.5981 52.3009 22.9407 52.6433C23.2832 52.9858 23.6883 53.2576 24.1369 53.4424C24.5855 53.6272 25.064 53.7223 25.5479 53.7223H36.76C37.2439 53.7223 37.7251 53.6272 38.171 53.4424C38.6196 53.2576 39.0247 52.9858 39.3673 52.6433C39.7098 52.3009 39.9817 51.8932 40.1666 51.4475C40.3514 50.9991 40.4466 50.5207 40.4466 50.0369V38.8448C40.4466 38.361 40.3514 37.88 40.1666 37.4343C39.9817 36.9858 39.7098 36.5809 39.3673 36.2384C39.0247 35.896 38.6169 35.6242 38.171 35.4394C37.7224 35.2545 37.2439 35.1594 36.76 35.1594H25.5479C25.064 35.1594 24.5828 35.2545 24.1369 35.4394C23.6883 35.6242 23.2832 35.896 22.9407 36.2384C22.5981 36.5809 22.3262 36.9885 22.1414 37.4343C21.9565 37.8827 21.8613 38.361 21.8613 38.8448ZM36.7192 50.0097H25.5751V38.8693H36.7192V50.0097Z" fill="#ffffff"/>
<path d="M61.373 38.8448V53.7251H65.0868V47.6235H75.9672V53.7251H79.681V38.8448C79.681 38.361 79.5858 37.88 79.401 37.4343C79.2161 36.9858 78.9442 36.5809 78.6017 36.2384C78.2591 35.896 77.8513 35.6242 77.4054 35.4394C76.9568 35.2545 76.4783 35.1594 75.9944 35.1594H65.0624C64.5784 35.1594 64.0972 35.2545 63.6513 35.4394C63.2028 35.6242 62.7977 35.896 62.4551 36.2384C62.1125 36.5809 61.8407 36.9885 61.6558 37.4343C61.4709 37.8827 61.3758 38.361 61.3758 38.8448H61.373ZM75.9699 43.9109H65.0896V38.872H75.9699V43.9109Z" fill="#ffffff"/>
<path d="M104.861 38.8448V53.7251H108.575V47.6235H119.461V53.7251H123.175V38.8448C123.175 37.8664 122.786 36.9287 122.095 36.2384C121.405 35.5481 120.464 35.1594 119.488 35.1594H108.559C108.075 35.1594 107.594 35.2518 107.145 35.4366C106.696 35.6215 106.289 35.8932 105.946 36.2357C105.604 36.5781 105.332 36.9858 105.144 37.4343C104.959 37.8827 104.861 38.3611 104.861 38.8475V38.8448ZM119.455 43.9109H108.586V38.872H119.464L119.455 43.9109Z" fill="#ffffff"/>
<path d="M97.8454 35.1582V50.0113H96.3582L91.035 36.7047C90.8528 36.2481 90.5374 35.8567 90.1323 35.5795C89.7245 35.3023 89.246 35.1555 88.7539 35.1555H85.448C84.7955 35.1555 84.1702 35.4137 83.7107 35.8757C83.2485 36.3378 82.9902 36.9629 82.9902 37.6125V53.7211H86.704V38.8681H88.1912L93.5117 52.1747C93.6939 52.6313 94.0065 53.0226 94.4144 53.2999C94.8222 53.5744 95.3007 53.7239 95.7928 53.7239H99.0987C99.7512 53.7239 100.377 53.4657 100.836 53.0036C101.298 52.5416 101.556 51.9165 101.556 51.2669V35.1582H97.8481H97.8454Z" fill="#ffffff"/>
<path d="M47.454 50.0125V35.1594H43.7402V50.0396C43.7402 50.5234 43.8354 51.0045 44.0203 51.4502C44.2051 51.8986 44.477 52.3036 44.8196 52.6461C45.1621 52.9885 45.5699 53.2603 46.0158 53.4451C46.4644 53.6299 46.9429 53.7251 47.4268 53.7251H58.5954V50.0125H47.4513H47.454Z" fill="#ffffff"/>
<path d="M74.0356 18.0875L69.9466 22.4768C69.8569 22.5719 69.7508 22.648 69.6312 22.6997C69.5116 22.7513 69.3838 22.7785 69.2533 22.7785H49.8742C49.7817 22.7785 49.692 22.7513 49.6132 22.6997C49.537 22.648 49.4745 22.5773 49.4392 22.4904C49.4038 22.4061 49.3902 22.311 49.4065 22.2213C49.4229 22.1289 49.4636 22.0447 49.5262 21.9767L53.6179 17.5874C53.7076 17.4923 53.8136 17.4162 53.9332 17.3645C54.0529 17.3129 54.1806 17.2857 54.3111 17.2857H73.6903C73.7827 17.2857 73.8724 17.3129 73.9513 17.3645C74.0274 17.4162 74.0899 17.4868 74.1253 17.5738C74.1606 17.658 74.1742 17.7532 74.1579 17.8429C74.1416 17.9353 74.1008 18.0195 74.0383 18.0875H74.0356ZM69.9466 9.2463C69.8569 9.15118 69.7508 9.07508 69.6312 9.02344C69.5116 8.9718 69.3838 8.94462 69.2533 8.94462H49.8742C49.7817 8.94462 49.692 8.9718 49.6132 9.02344C49.537 9.07508 49.4745 9.14574 49.4392 9.23271C49.4038 9.31696 49.3902 9.41209 49.4065 9.50178C49.4229 9.59419 49.4636 9.67844 49.5262 9.74639L53.6179 14.1357C53.7076 14.2308 53.8136 14.3069 53.9332 14.3586C54.0529 14.4102 54.1806 14.4374 54.3111 14.4374H73.6903C73.7827 14.4374 73.8724 14.4102 73.9513 14.3586C74.0274 14.3069 74.0899 14.2363 74.1253 14.1493C74.1606 14.0651 74.1742 13.9699 74.1579 13.8802C74.1416 13.7878 74.1008 13.7036 74.0383 13.6356L69.9493 9.2463H69.9466ZM49.8714 6.0936H69.2506C69.3811 6.0936 69.5089 6.06642 69.6285 6.01478C69.7481 5.96314 69.8541 5.88705 69.9439 5.79192L74.0328 1.40259C74.0954 1.33464 74.1389 1.25039 74.1525 1.15799C74.1688 1.06558 74.1579 0.973175 74.1198 0.888921C74.0818 0.804668 74.022 0.731281 73.9458 0.679642C73.8697 0.628003 73.7773 0.60083 73.6848 0.60083H54.3057C54.1752 0.60083 54.0474 0.628003 53.9278 0.679642C53.8082 0.731281 53.7021 0.807383 53.6124 0.902507L49.5235 5.29183C49.4609 5.35978 49.4174 5.44404 49.4038 5.53644C49.3875 5.62885 49.3984 5.72125 49.4364 5.80551C49.4718 5.88976 49.5343 5.96314 49.6104 6.01478C49.6866 6.06642 49.779 6.0936 49.8714 6.0936Z" fill="#ffffff"/>
</svg>