<svg xmlns="http://www.w3.org/2000/svg" width="44" height="44" viewBox="0 0 44 44" fill="none">
<path d="M38.7565 0.782212C38.346 0.795801 38.0279 1.0241 37.7234 1.25512C37.3944 1.50516 37.0383 1.66008 36.6441 1.77966C35.6952 2.06775 34.8742 2.5624 34.2461 3.3533C32.914 5.03564 31.7177 6.81855 30.4834 8.56885C28.7652 11.004 27.0796 13.461 25.3396 15.8853C24.3635 17.2469 23.3059 18.5406 22.1668 19.7691C21.865 20.0952 21.7971 20.0898 21.4953 19.7773C20.8292 19.0951 20.2093 18.3694 19.6248 17.622C17.7489 15.2194 16.0524 12.6837 14.2988 10.1914C12.7328 7.96548 11.1994 5.71782 9.56002 3.54355C8.92656 2.70373 8.11367 2.13298 7.12949 1.82315C6.63468 1.66823 6.18878 1.46439 5.77553 1.15184C5.51725 0.956154 5.23181 0.784929 4.77778 0.790365C4.48415 0.790365 4.30744 0.996921 4.36997 1.39645C4.39987 1.58669 4.45424 1.77151 4.52764 1.95089C5.40851 4.10342 6.33017 6.23965 7.25726 8.37316C9.10328 12.613 11.039 16.8148 13.0427 20.9813C13.668 22.2804 14.326 23.5632 14.9567 24.8596C16.0442 27.091 17.1697 29.3033 18.5862 31.3471C19.2278 32.2712 19.9075 33.1735 20.8156 33.8639C21.604 34.4645 22.107 34.4455 22.8845 33.8231C23.8524 33.0485 24.5783 32.0646 25.2607 31.0509C26.5304 29.1647 27.5499 27.1372 28.5585 25.1042C30.2333 21.7287 31.8781 18.3368 33.4523 14.9123C35.4233 10.6235 37.3455 6.31031 39.1208 1.93458C39.1997 1.73889 39.2703 1.53777 39.2839 1.32306C39.3057 0.948 39.1317 0.768623 38.7538 0.782212H38.7565ZM38.7701 1.53234C37.6473 2.67112 37.022 4.12245 36.2798 5.49768C34.9666 7.93559 33.7459 10.4197 32.4925 12.8902C31.2011 15.4368 29.9179 17.9862 28.632 20.5383C27.1176 23.5469 25.4102 26.4441 23.5506 29.2544C23.1646 29.8387 22.7595 30.4149 22.2674 30.9204C21.9004 31.2982 21.759 31.2982 21.3947 30.9068C21.0141 30.4992 20.6769 30.0507 20.3697 29.5887C18.7575 27.1616 17.2296 24.683 15.8811 22.0956C14.0242 18.5325 12.2434 14.9286 10.4219 11.3465C9.07882 8.70746 7.74933 6.06027 6.31656 3.46745C5.96584 2.83419 5.56619 2.23626 5.05778 1.71715C4.95719 1.61387 4.87563 1.49429 4.79135 1.37742C4.74785 1.31763 4.69619 1.24153 4.75601 1.16543C4.82126 1.08389 4.91098 1.10835 4.99526 1.13553C5.17197 1.19261 5.32966 1.28773 5.47376 1.39916C5.98216 1.8014 6.51775 2.11668 7.17024 2.27159C8.02936 2.47543 8.63023 3.09238 9.1631 3.76913C9.62256 4.35075 10.0521 4.95139 10.4626 5.56834C12.0803 8.00353 13.6816 10.4496 15.321 12.8685C16.7891 15.0346 18.2681 17.1899 19.932 19.2119C20.3344 19.7012 20.7531 20.1795 21.2587 20.5709C21.7264 20.9351 21.9439 20.9378 22.406 20.5709C23.1945 19.9403 23.8008 19.1413 24.4152 18.3531C26.3455 15.8663 28.0882 13.2517 29.8309 10.6344C31.1849 8.60146 32.5007 6.54405 33.909 4.54915C34.3359 3.94579 34.7736 3.34514 35.3554 2.87224C35.7877 2.52163 36.277 2.27159 36.8262 2.17103C37.2449 2.09493 37.5657 1.8612 37.8892 1.61931C38.1366 1.43721 38.3732 1.23337 38.6695 1.13553C38.7891 1.09476 38.8979 1.09748 38.936 1.26599C38.8816 1.35296 38.8381 1.45624 38.7674 1.52962L38.7701 1.53234Z" fill="#ffffff"/>
<path d="M16.812 39.8742C16.812 39.3197 16.5319 39.0434 15.9719 39.0452C15.6873 39.0452 15.5441 39.1902 15.5423 39.4801C15.5423 39.8878 15.5423 40.2955 15.5423 40.7058L15.4689 40.7357C15.0937 40.3335 14.4847 40.1242 14.3026 39.5861C14.115 39.0317 13.7724 39.0018 13.3211 39.0452C13.2722 39.0507 13.2233 39.0507 13.177 39.0452C12.8916 39.0045 12.8127 39.1458 12.8209 39.4121C12.8345 39.9394 12.8236 40.4694 12.8236 40.9967C12.8236 41.7549 12.8236 42.5132 12.8236 43.2742C12.8236 43.9727 12.7991 43.8613 13.4353 43.8721C13.5033 43.8721 13.5685 43.8721 13.6365 43.8721C13.9392 43.8721 14.0905 43.7163 14.0905 43.4047C14.0905 42.7796 14.0905 42.1572 14.0905 41.5321C14.0905 41.4641 14.0905 41.3962 14.0933 41.331C14.0987 41.225 14.1449 41.1896 14.2373 41.2603C14.8817 41.7413 15.4444 42.2686 15.5641 43.1302C15.5967 43.3693 15.4608 43.6873 15.6892 43.8314C15.8985 43.9645 16.1975 43.8504 16.4531 43.8776C16.7386 43.9075 16.8147 43.7797 16.812 43.5107C16.8011 42.3012 16.8065 41.0891 16.8065 39.8796L16.812 39.8742Z" fill="#ffffff"/>
<path d="M29.2039 39.4551C29.1088 39.1507 28.9103 39.0311 28.5922 39.0338C28.3231 39.0392 28.0512 39.0664 27.7848 39.0365C27.4531 39.0012 27.3334 39.1534 27.2519 39.4496C27.0453 40.1998 26.8087 40.9417 26.5804 41.6864C26.3928 42.3007 26.197 42.9149 26.0094 43.5318C25.9143 43.8417 25.9333 43.8661 26.246 43.8689C26.458 43.8689 26.6701 43.8607 26.8794 43.8689C27.1132 43.8797 27.2709 43.7982 27.3307 43.5617C27.4041 43.2737 27.5945 43.1513 27.8826 43.1677C28.2279 43.1867 28.5651 43.1867 28.7445 42.7464C28.8913 43.0725 28.9294 43.3579 29 43.6324C29.0435 43.7982 29.1278 43.8716 29.3045 43.8689C29.6226 43.8607 29.9407 43.8553 30.2561 43.8689C30.5171 43.8797 30.5443 43.7656 30.479 43.5536C30.0522 42.1865 29.6335 40.8167 29.2067 39.4524L29.2039 39.4551ZM28.3883 42.0479C28.3883 42.0479 28.3693 42.0479 28.3584 42.0479C27.676 42.0506 27.7984 42.0914 27.9479 41.5397C28.005 41.3304 28.0757 41.1238 28.1409 40.9146C28.1708 40.9118 28.198 40.9091 28.2279 40.9064C28.3258 41.2325 28.4237 41.556 28.5188 41.8821C28.5487 41.9881 28.5052 42.0479 28.391 42.0452L28.3883 42.0479Z" fill="#ffffff"/>
<path d="M4.09592 39.051C4.04699 39.051 4.00076 39.051 3.95182 39.051C3.62195 39.051 3.4407 39.2177 3.40808 39.5511C3.40264 39.6191 3.38905 39.6843 3.37817 39.7495C3.25583 40.4861 2.94045 41.1574 2.69577 41.883C2.60061 41.8124 2.59246 41.7335 2.568 41.6629C2.33147 40.9426 2.10307 40.2197 1.86382 39.4995C1.73604 39.119 1.63274 39.0537 1.23037 39.051C1.03734 39.051 0.847027 39.051 0.653997 39.051C0.267936 39.051 0.246181 39.0755 0.376681 39.4451C0.803522 40.6573 1.22493 41.8749 1.66808 43.0816C2.02695 44.0627 1.77684 43.8453 2.76918 43.8698C3.2069 43.8806 3.3374 43.7855 3.49237 43.3588C3.84037 42.3913 4.18563 41.4237 4.52275 40.4534C4.60431 40.2197 4.66957 39.9724 4.69675 39.7278C4.77831 39.0537 4.76745 39.051 4.09592 39.051Z" fill="#ffffff"/>
<path d="M36.1994 41.3903C35.9411 41.2408 35.6855 41.0913 35.4028 40.9908C35.2424 40.931 35.0847 40.8576 34.9297 40.7815C34.8074 40.719 34.7557 40.6075 34.7639 40.4689C34.7747 40.3167 34.8563 40.2243 34.995 40.17C35.2832 40.0531 35.7263 40.1482 35.9085 40.4119C36.0417 40.6048 36.1695 40.5695 36.319 40.4689C36.7132 40.208 36.667 39.5911 36.213 39.3437C35.468 38.9334 34.7041 38.9252 33.9537 39.3329C33.5731 39.5394 33.3882 39.8873 33.361 40.3249C33.3257 40.9065 33.6601 41.2598 34.106 41.5289C34.4512 41.7382 34.8182 41.9067 35.1717 42.1024C35.3266 42.1893 35.4789 42.3089 35.4245 42.51C35.3729 42.7057 35.1798 42.6976 35.0167 42.703C34.5464 42.7166 34.1766 42.472 33.8042 42.2301C33.671 42.1431 33.554 41.9203 33.4154 41.9882C33.2822 42.0534 33.3855 42.2872 33.361 42.4231C33.361 42.9639 33.3964 43.0917 33.6003 43.3009C34.1848 43.8989 35.3674 44.0565 36.0988 43.6515C36.9497 43.1759 37.083 41.9012 36.1994 41.393V41.3903Z" fill="#ffffff"/>
<path d="M22.961 39.0395C22.2106 39.0477 21.4603 39.0504 20.7099 39.0395C20.4516 39.0341 20.3782 39.1346 20.3809 39.3792C20.3918 40.0723 20.3837 40.7626 20.3837 41.4557C20.3837 42.1569 20.3891 42.8608 20.3837 43.562C20.3837 43.7767 20.4489 43.8827 20.6827 43.8718C20.9519 43.8583 21.221 43.8583 21.4902 43.8718C21.7077 43.8827 21.7811 43.7849 21.7783 43.581C21.7729 43.244 21.7783 42.907 21.7783 42.5727C21.7783 41.9503 21.7457 42.0264 22.3139 42.021C22.9583 42.0156 23.1595 41.7927 23.1214 41.1567C23.1105 40.9746 23.0426 40.8931 22.8604 40.8985C22.6021 40.904 22.3411 40.8877 22.0829 40.9012C21.8518 40.9148 21.7783 40.8197 21.7838 40.5968C21.7919 40.2381 21.8028 40.2163 22.1508 40.2136C22.2569 40.2136 22.3629 40.2136 22.4689 40.2136C23.4205 40.2028 23.2791 40.3332 23.2954 39.3521C23.3008 39.1047 23.1921 39.0422 22.9665 39.045L22.961 39.0395Z" fill="#ffffff"/>
<path d="M43.3713 38.9544C43.3686 38.8402 43.2789 38.8511 43.2 38.8756C42.4687 39.0957 41.7156 39.0359 41.0386 39.0468C40.5846 39.0468 40.2013 39.0468 39.8179 39.0468C39.6793 39.0468 39.5841 39.0767 39.5569 39.2425C39.4318 40.0007 39.5188 40.1122 40.2719 40.1122C40.291 40.1122 40.31 40.1122 40.3291 40.1122C40.62 40.0687 40.7097 40.1883 40.7042 40.4818C40.6879 41.4412 40.6988 42.4033 40.6988 43.3627C40.6988 43.7015 40.8737 43.871 41.2235 43.871C41.3975 43.871 41.5715 43.8574 41.7428 43.8737C42.0282 43.9009 42.1044 43.7731 42.1016 43.5068C42.0908 42.5175 42.0962 41.5282 42.099 40.5389C42.099 40.1176 42.0989 40.1095 42.5312 40.1149C42.8711 40.1203 43.1755 40.0497 43.3332 39.7235C43.4474 39.4844 43.3849 39.2126 43.3767 38.9544H43.3713Z" fill="#ffffff"/>
<path d="M9.3014 41.8806C9.3014 41.1713 9.3014 40.4592 9.3014 39.7499C9.3014 39.1818 9.16817 39.0486 8.61083 39.0432C8.51567 39.0432 8.41778 39.0432 8.32263 39.0432C7.91481 39.0432 7.91481 39.0432 7.91209 39.4672C7.91209 40.1195 7.91209 40.7718 7.91209 41.4268C7.91209 42.1171 7.923 42.8101 7.90668 43.5005C7.89853 43.7967 8.00454 43.8973 8.29272 43.8728C8.5211 43.8538 8.75492 43.8565 8.98329 43.8728C9.22254 43.8864 9.30684 43.7859 9.30412 43.5548C9.29596 42.9977 9.30412 42.4405 9.30412 41.8834L9.3014 41.8806Z" fill="#ffffff"/>
<path d="M36.4768 2.59152C36.379 2.52629 36.2893 2.60239 36.2213 2.67034C36.0174 2.87418 35.808 3.0753 35.6204 3.29272C34.9054 4.11895 34.3399 5.04845 33.7608 5.96709C31.6402 9.32635 29.6773 12.778 27.5812 16.1509C26.3387 18.1512 25.1914 20.214 23.6825 22.0377C23.2774 22.5269 22.8478 22.9944 22.3775 23.4238C21.9534 23.8098 21.7359 23.8125 21.3036 23.4456C21.1051 23.2771 20.9094 23.1058 20.7354 22.9156C19.8518 21.948 19.0443 20.9207 18.3375 19.8145C16.3528 16.6999 14.4687 13.5254 12.5683 10.3564C11.3068 8.2528 10.0752 6.13287 8.6968 4.10264C8.34881 3.59169 7.96004 3.11878 7.49242 2.7111C7.41358 2.64316 7.31298 2.55075 7.21239 2.62685C7.11451 2.70023 7.15528 2.82525 7.2015 2.92038C7.32384 3.17042 7.45435 3.41503 7.58757 3.66235C8.6071 5.58115 9.6076 7.51082 10.6543 9.41604C12.272 12.3567 13.9032 15.2893 15.5643 18.2028C16.9019 20.5483 18.1689 22.94 19.7974 25.1089C20.2949 25.7693 20.768 26.4488 21.4205 26.9761C21.5401 27.0739 21.6706 27.1554 21.8229 27.1772C21.9398 27.1745 22.0322 27.1255 22.1219 27.0685C22.3095 26.9489 22.4808 26.8075 22.6303 26.6445C23.8918 25.2557 24.9249 23.7038 25.8738 22.0948C27.0265 20.1407 28.1385 18.1621 29.2613 16.1889C30.6615 13.732 32.029 11.2587 33.3612 8.76647C34.2176 7.16294 35.074 5.56213 35.9304 3.9586C36.1234 3.59441 36.3137 3.2275 36.4959 2.85515C36.5339 2.77633 36.5829 2.65947 36.4796 2.59152H36.4768Z" fill="#ffffff"/>
</svg>