<svg xmlns="http://www.w3.org/2000/svg" width="188" height="24" viewBox="0 0 188 24" fill="none">
<path d="M39.5809 1.00952C37.3407 1.00952 36.3755 2.28419 35.4104 3.46646C32.7352 6.76321 26.7295 14.1965 24.6143 16.8111C23.0266 18.7408 21.9689 19.3006 21.1288 19.3006C20.2887 19.3006 19.2312 18.7408 17.6434 16.8111C15.5283 14.1992 9.5226 6.76321 6.84736 3.46646C5.88221 2.28419 4.9171 1.00952 2.67687 1.00952C1.05922 1.00952 0.0641527 2.31681 1.30661 3.7165C2.73667 5.39613 15.153 19.7029 16.4906 21.1977C18.1409 23.0649 19.291 23.6872 21.1588 23.6872C23.0266 23.6872 24.1766 23.0649 25.8269 21.1977C27.1346 19.7056 39.5782 5.39613 41.011 3.7165C42.1937 2.31681 41.1985 1.00952 39.5809 1.00952Z" fill="#ffffff"/>
<path d="M107.784 6.88948C107.784 4.52495 112.172 3.09536 118.955 3.09536C131.151 3.09536 129.408 7.54448 134.169 7.54448C135.942 7.54448 136.472 6.92209 136.472 6.42473C136.472 3.31551 128.443 0.796068 119.08 0.796068C111.022 0.796068 102.216 2.63061 102.216 7.17214C102.216 15.1979 132.459 10.9663 132.426 17.4374C132.426 20.7342 124.958 21.449 119.7 21.449C104.173 21.449 108.561 16.2226 103.303 16.2226C102.338 16.2226 100.628 16.5025 100.628 17.3124C100.628 20.3292 107.784 23.626 119.327 23.626C127.323 23.626 138.399 21.8213 138.399 17.0325C138.369 8.41691 107.784 12.8959 107.784 6.8922M69.8872 21.1364H69.7947C68.9546 21.1663 52.3405 21.5414 52.3405 12.1159C52.3405 2.69041 68.9546 3.06547 69.7947 3.09536H69.8872C70.7273 3.06547 87.3414 2.69041 87.3414 12.1159C87.3414 21.5414 70.6947 21.1663 69.8872 21.1364ZM93.4396 12.0534C93.2846 3.81016 79.5931 0.638428 69.8545 0.638428C60.116 0.638428 46.4245 3.81016 46.2695 12.0534V12.1784C46.4245 20.4216 60.116 23.5934 69.8545 23.5934C79.5931 23.5934 93.2846 20.4216 93.4396 12.1784V12.0534ZM153.709 6.88948C153.709 4.52495 158.064 3.09536 164.88 3.09536C177.076 3.09536 175.333 7.54448 180.094 7.54448C181.866 7.54448 182.397 6.92209 182.397 6.42473C182.397 3.31551 174.401 0.796068 165.005 0.796068C156.946 0.796068 148.173 2.63061 148.173 7.17214C148.173 15.1979 178.416 10.9663 178.354 17.4374C178.354 20.7342 170.885 21.449 165.627 21.449C150.071 21.449 154.489 16.2226 149.231 16.2226C148.298 16.2226 146.555 16.5025 146.555 17.3124C146.555 20.3292 153.711 23.626 165.255 23.626C173.251 23.626 184.327 21.8213 184.327 17.0325C184.297 8.41691 153.711 12.8959 153.711 6.8922M185.384 3.59545H185.694C185.974 3.59545 186.224 3.59545 186.224 3.28562C186.224 3.03558 186.007 2.97578 185.79 2.97578H185.384V3.59817V3.59545ZM185.104 2.72573H185.882C186.35 2.72573 186.567 2.91327 186.567 3.28562C186.567 3.62807 186.35 3.78298 186.037 3.81559L186.597 4.68531H186.254L185.724 3.84549H185.414V4.68531H185.104V2.72573ZM185.757 5.15278C186.534 5.15278 187.157 4.53039 187.157 3.72319C187.157 2.91599 186.567 2.2936 185.757 2.2936C184.947 2.2936 184.357 2.91599 184.357 3.72319C184.357 4.53039 184.947 5.15278 185.757 5.15278ZM185.757 2.04356C186.689 2.04356 187.437 2.75835 187.437 3.69329C187.437 4.62823 186.66 5.37292 185.757 5.37292C184.854 5.37292 184.047 4.65813 184.047 3.69329C184.047 2.72846 184.824 2.04356 185.757 2.04356Z" fill="#ffffff"/>
</svg>